<svg width="148" height="110" viewBox="0 0 148 110" fill="none" xmlns="http://www.w3.org/2000/svg">
<rect width="148" height="110" rx="10" fill="url(#paint0_linear_516_6384)"/>
<path d="M17.936 72.216C17.936 72.664 17.828 73.084 17.612 73.476C17.404 73.868 17.072 74.184 16.616 74.424C16.168 74.664 15.6 74.784 14.912 74.784H13.508V78H11.828V69.624H14.912C15.56 69.624 16.112 69.736 16.568 69.96C17.024 70.184 17.364 70.492 17.588 70.884C17.82 71.276 17.936 71.72 17.936 72.216ZM14.84 73.428C15.304 73.428 15.648 73.324 15.872 73.116C16.096 72.9 16.208 72.6 16.208 72.216C16.208 71.4 15.752 70.992 14.84 70.992H13.508V73.428H14.84ZM25.3088 74.532C25.3088 74.772 25.2928 74.988 25.2608 75.18H20.4008C20.4408 75.66 20.6088 76.036 20.9048 76.308C21.2008 76.58 21.5648 76.716 21.9968 76.716C22.6208 76.716 23.0648 76.448 23.3288 75.912H25.1408C24.9488 76.552 24.5808 77.08 24.0368 77.496C23.4928 77.904 22.8248 78.108 22.0328 78.108C21.3928 78.108 20.8168 77.968 20.3048 77.688C19.8008 77.4 19.4048 76.996 19.1168 76.476C18.8368 75.956 18.6968 75.356 18.6968 74.676C18.6968 73.988 18.8368 73.384 19.1168 72.864C19.3968 72.344 19.7888 71.944 20.2928 71.664C20.7968 71.384 21.3768 71.244 22.0328 71.244C22.6648 71.244 23.2288 71.38 23.7248 71.652C24.2288 71.924 24.6168 72.312 24.8888 72.816C25.1688 73.312 25.3088 73.884 25.3088 74.532ZM23.5688 74.052C23.5608 73.62 23.4048 73.276 23.1008 73.02C22.7968 72.756 22.4248 72.624 21.9848 72.624C21.5688 72.624 21.2168 72.752 20.9288 73.008C20.6488 73.256 20.4768 73.604 20.4128 74.052H23.5688ZM34.791 71.256C35.607 71.256 36.263 71.508 36.759 72.012C37.263 72.508 37.515 73.204 37.515 74.1V78H35.835V74.328C35.835 73.808 35.703 73.412 35.439 73.14C35.175 72.86 34.815 72.72 34.359 72.72C33.903 72.72 33.539 72.86 33.267 73.14C33.003 73.412 32.871 73.808 32.871 74.328V78H31.191V74.328C31.191 73.808 31.059 73.412 30.795 73.14C30.531 72.86 30.171 72.72 29.715 72.72C29.251 72.72 28.883 72.86 28.611 73.14C28.347 73.412 28.215 73.808 28.215 74.328V78H26.535V71.352H28.215V72.156C28.431 71.876 28.707 71.656 29.043 71.496C29.387 71.336 29.763 71.256 30.171 71.256C30.691 71.256 31.155 71.368 31.563 71.592C31.971 71.808 32.287 72.12 32.511 72.528C32.727 72.144 33.039 71.836 33.447 71.604C33.863 71.372 34.311 71.256 34.791 71.256ZM40.7893 72.384C41.0053 72.032 41.2853 71.756 41.6293 71.556C41.9813 71.356 42.3813 71.256 42.8293 71.256V73.02H42.3853C41.8573 73.02 41.4573 73.144 41.1853 73.392C40.9213 73.64 40.7893 74.072 40.7893 74.688V78H39.1093V71.352H40.7893V72.384ZM46.9128 78.108C46.2728 78.108 45.6968 77.968 45.1848 77.688C44.6728 77.4 44.2688 76.996 43.9728 76.476C43.6848 75.956 43.5408 75.356 43.5408 74.676C43.5408 73.996 43.6888 73.396 43.9848 72.876C44.2888 72.356 44.7008 71.956 45.2208 71.676C45.7408 71.388 46.3208 71.244 46.9608 71.244C47.6008 71.244 48.1808 71.388 48.7008 71.676C49.2208 71.956 49.6288 72.356 49.9248 72.876C50.2288 73.396 50.3808 73.996 50.3808 74.676C50.3808 75.356 50.2248 75.956 49.9128 76.476C49.6088 76.996 49.1928 77.4 48.6648 77.688C48.1448 77.968 47.5608 78.108 46.9128 78.108ZM46.9128 76.644C47.2168 76.644 47.5008 76.572 47.7648 76.428C48.0368 76.276 48.2528 76.052 48.4128 75.756C48.5728 75.46 48.6528 75.1 48.6528 74.676C48.6528 74.044 48.4848 73.56 48.1488 73.224C47.8208 72.88 47.4168 72.708 46.9368 72.708C46.4568 72.708 46.0528 72.88 45.7248 73.224C45.4048 73.56 45.2448 74.044 45.2448 74.676C45.2448 75.308 45.4008 75.796 45.7128 76.14C46.0328 76.476 46.4328 76.644 46.9128 76.644ZM54.2172 71.244C54.7132 71.244 55.1492 71.344 55.5252 71.544C55.9012 71.736 56.1972 71.988 56.4132 72.3V71.352H58.1052V78.048C58.1052 78.664 57.9812 79.212 57.7332 79.692C57.4852 80.18 57.1132 80.564 56.6172 80.844C56.1212 81.132 55.5212 81.276 54.8172 81.276C53.8732 81.276 53.0972 81.056 52.4892 80.616C51.8892 80.176 51.5492 79.576 51.4692 78.816H53.1372C53.2252 79.12 53.4132 79.36 53.7012 79.536C53.9972 79.72 54.3532 79.812 54.7692 79.812C55.2572 79.812 55.6532 79.664 55.9572 79.368C56.2612 79.08 56.4132 78.64 56.4132 78.048V77.016C56.1972 77.328 55.8972 77.588 55.5132 77.796C55.1372 78.004 54.7052 78.108 54.2172 78.108C53.6572 78.108 53.1452 77.964 52.6812 77.676C52.2172 77.388 51.8492 76.984 51.5772 76.464C51.3132 75.936 51.1812 75.332 51.1812 74.652C51.1812 73.98 51.3132 73.384 51.5772 72.864C51.8492 72.344 52.2132 71.944 52.6692 71.664C53.1332 71.384 53.6492 71.244 54.2172 71.244ZM56.4132 74.676C56.4132 74.268 56.3332 73.92 56.1732 73.632C56.0132 73.336 55.7972 73.112 55.5252 72.96C55.2532 72.8 54.9612 72.72 54.6492 72.72C54.3372 72.72 54.0492 72.796 53.7852 72.948C53.5212 73.1 53.3052 73.324 53.1372 73.62C52.9772 73.908 52.8972 74.252 52.8972 74.652C52.8972 75.052 52.9772 75.404 53.1372 75.708C53.3052 76.004 53.5212 76.232 53.7852 76.392C54.0572 76.552 54.3452 76.632 54.6492 76.632C54.9612 76.632 55.2532 76.556 55.5252 76.404C55.7972 76.244 56.0132 76.02 56.1732 75.732C56.3332 75.436 56.4132 75.084 56.4132 74.676ZM61.426 72.384C61.642 72.032 61.922 71.756 62.266 71.556C62.618 71.356 63.018 71.256 63.466 71.256V73.02H63.022C62.494 73.02 62.094 73.144 61.822 73.392C61.558 73.64 61.426 74.072 61.426 74.688V78H59.746V71.352H61.426V72.384ZM64.1655 74.652C64.1655 73.98 64.2975 73.384 64.5615 72.864C64.8335 72.344 65.1975 71.944 65.6535 71.664C66.1175 71.384 66.6335 71.244 67.2015 71.244C67.6975 71.244 68.1295 71.344 68.4975 71.544C68.8735 71.744 69.1735 71.996 69.3975 72.3V71.352H71.0895V78H69.3975V77.028C69.1815 77.34 68.8815 77.6 68.4975 77.808C68.1215 78.008 67.6855 78.108 67.1895 78.108C66.6295 78.108 66.1175 77.964 65.6535 77.676C65.1975 77.388 64.8335 76.984 64.5615 76.464C64.2975 75.936 64.1655 75.332 64.1655 74.652ZM69.3975 74.676C69.3975 74.268 69.3175 73.92 69.1575 73.632C68.9975 73.336 68.7815 73.112 68.5095 72.96C68.2375 72.8 67.9455 72.72 67.6335 72.72C67.3215 72.72 67.0335 72.796 66.7695 72.948C66.5055 73.1 66.2895 73.324 66.1215 73.62C65.9615 73.908 65.8815 74.252 65.8815 74.652C65.8815 75.052 65.9615 75.404 66.1215 75.708C66.2895 76.004 66.5055 76.232 66.7695 76.392C67.0415 76.552 67.3295 76.632 67.6335 76.632C67.9455 76.632 68.2375 76.556 68.5095 76.404C68.7815 76.244 68.9975 76.02 69.1575 75.732C69.3175 75.436 69.3975 75.084 69.3975 74.676ZM80.9863 71.256C81.8023 71.256 82.4583 71.508 82.9543 72.012C83.4583 72.508 83.7103 73.204 83.7103 74.1V78H82.0303V74.328C82.0303 73.808 81.8983 73.412 81.6343 73.14C81.3703 72.86 81.0103 72.72 80.5543 72.72C80.0983 72.72 79.7343 72.86 79.4623 73.14C79.1983 73.412 79.0663 73.808 79.0663 74.328V78H77.3863V74.328C77.3863 73.808 77.2543 73.412 76.9903 73.14C76.7263 72.86 76.3663 72.72 75.9103 72.72C75.4463 72.72 75.0783 72.86 74.8063 73.14C74.5423 73.412 74.4103 73.808 74.4103 74.328V78H72.7303V71.352H74.4103V72.156C74.6263 71.876 74.9023 71.656 75.2383 71.496C75.5823 71.336 75.9583 71.256 76.3663 71.256C76.8863 71.256 77.3503 71.368 77.7583 71.592C78.1663 71.808 78.4823 72.12 78.7063 72.528C78.9223 72.144 79.2343 71.836 79.6423 71.604C80.0583 71.372 80.5063 71.256 80.9863 71.256ZM84.8726 74.652C84.8726 73.98 85.0046 73.384 85.2686 72.864C85.5406 72.344 85.9046 71.944 86.3606 71.664C86.8246 71.384 87.3406 71.244 87.9086 71.244C88.4046 71.244 88.8366 71.344 89.2046 71.544C89.5806 71.744 89.8806 71.996 90.1046 72.3V71.352H91.7966V78H90.1046V77.028C89.8886 77.34 89.5886 77.6 89.2046 77.808C88.8286 78.008 88.3926 78.108 87.8966 78.108C87.3366 78.108 86.8246 77.964 86.3606 77.676C85.9046 77.388 85.5406 76.984 85.2686 76.464C85.0046 75.936 84.8726 75.332 84.8726 74.652ZM90.1046 74.676C90.1046 74.268 90.0246 73.92 89.8646 73.632C89.7046 73.336 89.4886 73.112 89.2166 72.96C88.9446 72.8 88.6526 72.72 88.3406 72.72C88.0286 72.72 87.7406 72.796 87.4766 72.948C87.2126 73.1 86.9966 73.324 86.8286 73.62C86.6686 73.908 86.5886 74.252 86.5886 74.652C86.5886 75.052 86.6686 75.404 86.8286 75.708C86.9966 76.004 87.2126 76.232 87.4766 76.392C87.7486 76.552 88.0366 76.632 88.3406 76.632C88.6526 76.632 88.9446 76.556 89.2166 76.404C89.4886 76.244 89.7046 76.02 89.8646 75.732C90.0246 75.436 90.1046 75.084 90.1046 74.676ZM97.1214 71.256C97.9134 71.256 98.5534 71.508 99.0414 72.012C99.5294 72.508 99.7734 73.204 99.7734 74.1V78H98.0934V74.328C98.0934 73.8 97.9614 73.396 97.6974 73.116C97.4334 72.828 97.0734 72.684 96.6174 72.684C96.1534 72.684 95.7854 72.828 95.5134 73.116C95.2494 73.396 95.1174 73.8 95.1174 74.328V78H93.4374V71.352H95.1174V72.18C95.3414 71.892 95.6254 71.668 95.9694 71.508C96.3214 71.34 96.7054 71.256 97.1214 71.256ZM16.964 94.404H13.628L13.076 96H11.312L14.324 87.612H16.28L19.292 96H17.516L16.964 94.404ZM16.508 93.06L15.296 89.556L14.084 93.06H16.508ZM24.1018 89.256C24.8938 89.256 25.5338 89.508 26.0218 90.012C26.5098 90.508 26.7538 91.204 26.7538 92.1V96H25.0738V92.328C25.0738 91.8 24.9418 91.396 24.6778 91.116C24.4138 90.828 24.0538 90.684 23.5978 90.684C23.1338 90.684 22.7658 90.828 22.4938 91.116C22.2298 91.396 22.0978 91.8 22.0978 92.328V96H20.4178V89.352H22.0978V90.18C22.3218 89.892 22.6058 89.668 22.9498 89.508C23.3018 89.34 23.6858 89.256 24.1018 89.256ZM27.9194 92.652C27.9194 91.98 28.0514 91.384 28.3154 90.864C28.5874 90.344 28.9554 89.944 29.4194 89.664C29.8834 89.384 30.3994 89.244 30.9674 89.244C31.3994 89.244 31.8114 89.34 32.2034 89.532C32.5954 89.716 32.9074 89.964 33.1394 90.276V87.12H34.8434V96H33.1394V95.016C32.9314 95.344 32.6394 95.608 32.2634 95.808C31.8874 96.008 31.4514 96.108 30.9554 96.108C30.3954 96.108 29.8834 95.964 29.4194 95.676C28.9554 95.388 28.5874 94.984 28.3154 94.464C28.0514 93.936 27.9194 93.332 27.9194 92.652ZM33.1514 92.676C33.1514 92.268 33.0714 91.92 32.9114 91.632C32.7514 91.336 32.5354 91.112 32.2634 90.96C31.9914 90.8 31.6994 90.72 31.3874 90.72C31.0754 90.72 30.7874 90.796 30.5234 90.948C30.2594 91.1 30.0434 91.324 29.8754 91.62C29.7154 91.908 29.6354 92.252 29.6354 92.652C29.6354 93.052 29.7154 93.404 29.8754 93.708C30.0434 94.004 30.2594 94.232 30.5234 94.392C30.7954 94.552 31.0834 94.632 31.3874 94.632C31.6994 94.632 31.9914 94.556 32.2634 94.404C32.5354 94.244 32.7514 94.02 32.9114 93.732C33.0714 93.436 33.1514 93.084 33.1514 92.676ZM38.1643 90.384C38.3803 90.032 38.6603 89.756 39.0043 89.556C39.3563 89.356 39.7563 89.256 40.2043 89.256V91.02H39.7603C39.2323 91.02 38.8323 91.144 38.5603 91.392C38.2963 91.64 38.1643 92.072 38.1643 92.688V96H36.4843V89.352H38.1643V90.384ZM44.2878 96.108C43.6478 96.108 43.0718 95.968 42.5598 95.688C42.0478 95.4 41.6438 94.996 41.3478 94.476C41.0598 93.956 40.9158 93.356 40.9158 92.676C40.9158 91.996 41.0638 91.396 41.3598 90.876C41.6638 90.356 42.0758 89.956 42.5958 89.676C43.1158 89.388 43.6958 89.244 44.3358 89.244C44.9758 89.244 45.5558 89.388 46.0758 89.676C46.5958 89.956 47.0038 90.356 47.2998 90.876C47.6038 91.396 47.7558 91.996 47.7558 92.676C47.7558 93.356 47.5998 93.956 47.2878 94.476C46.9838 94.996 46.5678 95.4 46.0398 95.688C45.5198 95.968 44.9358 96.108 44.2878 96.108ZM44.2878 94.644C44.5918 94.644 44.8758 94.572 45.1398 94.428C45.4118 94.276 45.6278 94.052 45.7878 93.756C45.9478 93.46 46.0278 93.1 46.0278 92.676C46.0278 92.044 45.8598 91.56 45.5238 91.224C45.1958 90.88 44.7918 90.708 44.3118 90.708C43.8318 90.708 43.4278 90.88 43.0998 91.224C42.7798 91.56 42.6198 92.044 42.6198 92.676C42.6198 93.308 42.7758 93.796 43.0878 94.14C43.4078 94.476 43.8078 94.644 44.2878 94.644ZM49.8402 88.56C49.5442 88.56 49.2962 88.468 49.0962 88.284C48.9042 88.092 48.8082 87.856 48.8082 87.576C48.8082 87.296 48.9042 87.064 49.0962 86.88C49.2962 86.688 49.5442 86.592 49.8402 86.592C50.1362 86.592 50.3802 86.688 50.5722 86.88C50.7722 87.064 50.8722 87.296 50.8722 87.576C50.8722 87.856 50.7722 88.092 50.5722 88.284C50.3802 88.468 50.1362 88.56 49.8402 88.56ZM50.6682 89.352V96H48.9882V89.352H50.6682ZM51.896 92.652C51.896 91.98 52.028 91.384 52.292 90.864C52.564 90.344 52.932 89.944 53.396 89.664C53.86 89.384 54.376 89.244 54.944 89.244C55.376 89.244 55.788 89.34 56.18 89.532C56.572 89.716 56.884 89.964 57.116 90.276V87.12H58.82V96H57.116V95.016C56.908 95.344 56.616 95.608 56.24 95.808C55.864 96.008 55.428 96.108 54.932 96.108C54.372 96.108 53.86 95.964 53.396 95.676C52.932 95.388 52.564 94.984 52.292 94.464C52.028 93.936 51.896 93.332 51.896 92.652ZM57.128 92.676C57.128 92.268 57.048 91.92 56.888 91.632C56.728 91.336 56.512 91.112 56.24 90.96C55.968 90.8 55.676 90.72 55.364 90.72C55.052 90.72 54.764 90.796 54.5 90.948C54.236 91.1 54.02 91.324 53.852 91.62C53.692 91.908 53.612 92.252 53.612 92.652C53.612 93.052 53.692 93.404 53.852 93.708C54.02 94.004 54.236 94.232 54.5 94.392C54.772 94.552 55.06 94.632 55.364 94.632C55.676 94.632 55.968 94.556 56.24 94.404C56.512 94.244 56.728 94.02 56.888 93.732C57.048 93.436 57.128 93.084 57.128 92.676Z" fill="#FAFAFA"/>
<path d="M75.9853 19.9788L88.9629 42.4566H63.0076L75.9853 19.9788Z" fill="white"/>
<path d="M120.456 44.2314L130.7 6L92.4688 16.2441L94.2013 17.9766L127.699 9.00089L118.724 42.4988L120.456 44.2314Z" fill="white"/>
<path d="M116.684 40.4596L124.167 12.5329L96.2406 20.0159L116.684 40.4596Z" fill="white"/>
<path d="M128.033 58.3986L123.555 75.1117L111.318 62.8773L128.033 58.3986Z" stroke="white" stroke-width="1.24877"/>
<defs>
<linearGradient id="paint0_linear_516_6384" x1="74" y1="0" x2="74" y2="110" gradientUnits="userSpaceOnUse">
<stop offset="0.245" stop-color="#408CD8"/>
<stop offset="1" stop-color="#292B92"/>
</linearGradient>
</defs>
</svg>
