<svg width="30" height="30" viewBox="0 0 30 30" fill="none" xmlns="http://www.w3.org/2000/svg">
<path d="M9.15586 24.0527C11.2398 24.0527 12.6337 24.8316 13.2487 25.2709C13.4748 25.3963 14.1155 25.7729 14.2532 25.7852V6.80163C13.4373 5.28234 11.0389 4.05234 8.55318 4.05234C5.4139 4.05234 2.75247 5.86038 2.16211 7.07806V24.807C2.16211 25.6357 2.65175 25.9497 3.24211 25.9497C3.7189 25.9497 4.03282 25.7863 4.33443 25.535C5.07532 24.8697 6.82015 24.0527 9.15586 24.0527ZM20.858 24.0532C23.1932 24.0532 24.9262 24.8697 25.6794 25.535C25.9676 25.7734 26.2821 25.9491 26.7589 25.9491C27.3493 25.9491 27.8389 25.6357 27.8389 24.807V7.07698C27.2485 5.85877 24.5994 4.05127 21.4601 4.05127C18.9744 4.05127 16.576 5.28127 15.7601 6.80056V25.8109C15.8984 25.7981 16.5385 25.4091 16.7769 25.2709C17.3796 24.8316 18.7735 24.0532 20.858 24.0532Z" fill="#FAFAFA"/>
</svg>
