<svg width="30" height="30" viewBox="0 0 30 30" fill="none" xmlns="http://www.w3.org/2000/svg">
<path d="M16.8125 3.16631C16.3053 2.73884 15.6633 2.50439 15 2.50439C14.3367 2.50439 13.6947 2.73884 13.1875 3.16631L4.75 10.2851C4.43682 10.549 4.18507 10.8782 4.01235 11.2495C3.83962 11.6209 3.75008 12.0255 3.75 12.4351V24.0663C3.75 25.2738 4.73 26.2538 5.9375 26.2538H9.6875C10.2677 26.2538 10.8241 26.0233 11.2343 25.6131C11.6445 25.2029 11.875 24.6465 11.875 24.0663V19.0626C11.875 18.2126 12.5525 17.5226 13.3963 17.5001H16.6037C17.011 17.5108 17.3979 17.6802 17.682 17.972C17.9662 18.2639 18.1251 18.6552 18.125 19.0626V24.0663C18.125 25.2738 19.105 26.2538 20.3125 26.2538H24.0625C24.6427 26.2538 25.1991 26.0233 25.6093 25.6131C26.0195 25.2029 26.25 24.6465 26.25 24.0663V12.4338C26.2499 12.0242 26.1604 11.6196 25.9877 11.2483C25.8149 10.8769 25.5632 10.5478 25.25 10.2838L16.8125 3.16631Z" fill="#FFB61A"/>
</svg>
