<svg width="32" height="26" viewBox="0 0 32 26" fill="none" xmlns="http://www.w3.org/2000/svg">
<g clip-path="url(#clip0_722_9784)">
<path d="M10.4001 17.6C10.2806 17.6 10.1611 17.6175 10.0471 17.6545C9.39908 17.865 8.71758 18 8.00008 18C7.28258 18 6.60108 17.865 5.95258 17.6545C5.83858 17.6175 5.71958 17.6 5.60008 17.6C2.49708 17.6 -0.0164192 20.124 8.07739e-05 23.231C0.00708077 24.544 1.08658 25.6 2.40008 25.6H13.6001C14.9136 25.6 15.9931 24.544 16.0001 23.231C16.0166 20.124 13.5031 17.6 10.4001 17.6ZM8.00008 16C10.6511 16 12.8001 13.851 12.8001 11.2C12.8001 8.549 10.6511 6.4 8.00008 6.4C5.34908 6.4 3.20008 8.549 3.20008 11.2C3.20008 13.851 5.34908 16 8.00008 16ZM29.6001 0H10.4001C9.07658 0 8.00008 1.1125 8.00008 2.4795V4.8C9.17108 4.8 10.2551 5.139 11.2001 5.69V3.2H28.8001V17.6H25.6001V14.4H19.2001V17.6H15.3881C16.3431 18.4345 17.0441 19.5365 17.3726 20.8H29.6001C30.9236 20.8 32.0001 19.6875 32.0001 18.3205V2.4795C32.0001 1.1125 30.9236 0 29.6001 0Z" fill="#FFB61A"/>
</g>
<defs>
<clipPath id="clip0_722_9784">
<rect width="32" height="25.6" fill="white"/>
</clipPath>
</defs>
</svg>
