<svg width="35" height="35" viewBox="0 0 35 35" fill="none" xmlns="http://www.w3.org/2000/svg">
<path d="M2.91699 17.4999C2.91773 14.3027 3.96916 11.1943 5.90947 8.65308C7.84978 6.1119 10.5714 4.27879 13.6556 3.43587C16.7397 2.59294 20.0154 2.78693 22.9785 3.98796C25.9416 5.189 28.4279 7.33052 30.0547 10.0829C31.6815 12.8354 32.3588 16.0461 31.9821 19.2211C31.6055 22.3961 30.1959 25.3594 27.9703 27.6548C25.7447 29.9502 22.8264 31.4506 19.6645 31.9251C16.5027 32.3996 13.2725 31.8218 10.4712 30.2808L4.80116 32.0074C4.54826 32.0845 4.27917 32.0913 4.02268 32.0272C3.76619 31.9631 3.53195 31.8305 3.34501 31.6436C3.15807 31.4566 3.02546 31.2224 2.96137 30.9659C2.89728 30.7094 2.90412 30.4403 2.98116 30.1874L4.70783 24.5087C3.53172 22.3599 2.91583 19.9495 2.91699 17.4999ZM11.667 16.0416C11.667 16.4284 11.8206 16.7993 12.0941 17.0728C12.3676 17.3463 12.7386 17.4999 13.1253 17.4999H21.8753C22.2621 17.4999 22.633 17.3463 22.9065 17.0728C23.18 16.7993 23.3337 16.4284 23.3337 16.0416C23.3337 15.6548 23.18 15.2839 22.9065 15.0104C22.633 14.7369 22.2621 14.5833 21.8753 14.5833H13.1253C12.7386 14.5833 12.3676 14.7369 12.0941 15.0104C11.8206 15.2839 11.667 15.6548 11.667 16.0416ZM13.1253 20.4166C12.7386 20.4166 12.3676 20.5702 12.0941 20.8437C11.8206 21.1172 11.667 21.4881 11.667 21.8749C11.667 22.2617 11.8206 22.6326 12.0941 22.9061C12.3676 23.1796 12.7386 23.3333 13.1253 23.3333H18.9587C19.3454 23.3333 19.7164 23.1796 19.9899 22.9061C20.2633 22.6326 20.417 22.2617 20.417 21.8749C20.417 21.4881 20.2633 21.1172 19.9899 20.8437C19.7164 20.5702 19.3454 20.4166 18.9587 20.4166H13.1253Z" fill="#FAFAFA"/>
</svg>
