<svg width="148" height="110" viewBox="0 0 148 110" fill="none" xmlns="http://www.w3.org/2000/svg">
<rect width="148" height="110" rx="10" fill="url(#paint0_linear_516_6400)"/>
<path d="M13.756 86.624C14.636 86.624 15.408 86.796 16.072 87.14C16.744 87.484 17.26 87.976 17.62 88.616C17.988 89.248 18.172 89.984 18.172 90.824C18.172 91.664 17.988 92.4 17.62 93.032C17.26 93.656 16.744 94.14 16.072 94.484C15.408 94.828 14.636 95 13.756 95H10.828V86.624H13.756ZM13.696 93.572C14.576 93.572 15.256 93.332 15.736 92.852C16.216 92.372 16.456 91.696 16.456 90.824C16.456 89.952 16.216 89.272 15.736 88.784C15.256 88.288 14.576 88.04 13.696 88.04H12.508V93.572H13.696ZM18.9976 91.652C18.9976 90.98 19.1296 90.384 19.3936 89.864C19.6656 89.344 20.0296 88.944 20.4856 88.664C20.9496 88.384 21.4656 88.244 22.0336 88.244C22.5296 88.244 22.9616 88.344 23.3296 88.544C23.7056 88.744 24.0056 88.996 24.2296 89.3V88.352H25.9216V95H24.2296V94.028C24.0136 94.34 23.7136 94.6 23.3296 94.808C22.9536 95.008 22.5176 95.108 22.0216 95.108C21.4616 95.108 20.9496 94.964 20.4856 94.676C20.0296 94.388 19.6656 93.984 19.3936 93.464C19.1296 92.936 18.9976 92.332 18.9976 91.652ZM24.2296 91.676C24.2296 91.268 24.1496 90.92 23.9896 90.632C23.8296 90.336 23.6136 90.112 23.3416 89.96C23.0696 89.8 22.7776 89.72 22.4656 89.72C22.1536 89.72 21.8656 89.796 21.6016 89.948C21.3376 90.1 21.1216 90.324 20.9536 90.62C20.7936 90.908 20.7136 91.252 20.7136 91.652C20.7136 92.052 20.7936 92.404 20.9536 92.708C21.1216 93.004 21.3376 93.232 21.6016 93.392C21.8736 93.552 22.1616 93.632 22.4656 93.632C22.7776 93.632 23.0696 93.556 23.3416 93.404C23.6136 93.244 23.8296 93.02 23.9896 92.732C24.1496 92.436 24.2296 92.084 24.2296 91.676ZM29.5184 89.732V92.948C29.5184 93.172 29.5704 93.336 29.6744 93.44C29.7864 93.536 29.9704 93.584 30.2264 93.584H31.0064V95H29.9504C28.5344 95 27.8264 94.312 27.8264 92.936V89.732H27.0344V88.352H27.8264V86.708H29.5184V88.352H31.0064V89.732H29.5184ZM31.7827 91.652C31.7827 90.98 31.9147 90.384 32.1787 89.864C32.4507 89.344 32.8147 88.944 33.2707 88.664C33.7347 88.384 34.2507 88.244 34.8187 88.244C35.3147 88.244 35.7467 88.344 36.1147 88.544C36.4907 88.744 36.7907 88.996 37.0147 89.3V88.352H38.7067V95H37.0147V94.028C36.7987 94.34 36.4987 94.6 36.1147 94.808C35.7387 95.008 35.3027 95.108 34.8067 95.108C34.2467 95.108 33.7347 94.964 33.2707 94.676C32.8147 94.388 32.4507 93.984 32.1787 93.464C31.9147 92.936 31.7827 92.332 31.7827 91.652ZM37.0147 91.676C37.0147 91.268 36.9347 90.92 36.7747 90.632C36.6147 90.336 36.3987 90.112 36.1267 89.96C35.8547 89.8 35.5627 89.72 35.2507 89.72C34.9387 89.72 34.6507 89.796 34.3867 89.948C34.1227 90.1 33.9067 90.324 33.7387 90.62C33.5787 90.908 33.4987 91.252 33.4987 91.652C33.4987 92.052 33.5787 92.404 33.7387 92.708C33.9067 93.004 34.1227 93.232 34.3867 93.392C34.6587 93.552 34.9467 93.632 35.2507 93.632C35.5627 93.632 35.8547 93.556 36.1267 93.404C36.3987 93.244 36.6147 93.02 36.7747 92.732C36.9347 92.436 37.0147 92.084 37.0147 91.676ZM46.0989 95.084C45.5149 95.084 44.9869 94.984 44.5149 94.784C44.0509 94.584 43.6829 94.296 43.4109 93.92C43.1389 93.544 42.9989 93.1 42.9909 92.588H44.7909C44.8149 92.932 44.9349 93.204 45.1509 93.404C45.3749 93.604 45.6789 93.704 46.0629 93.704C46.4549 93.704 46.7629 93.612 46.9869 93.428C47.2109 93.236 47.3229 92.988 47.3229 92.684C47.3229 92.436 47.2469 92.232 47.0949 92.072C46.9429 91.912 46.7509 91.788 46.5189 91.7C46.2949 91.604 45.9829 91.5 45.5829 91.388C45.0389 91.228 44.5949 91.072 44.2509 90.92C43.9149 90.76 43.6229 90.524 43.3749 90.212C43.1349 89.892 43.0149 89.468 43.0149 88.94C43.0149 88.444 43.1389 88.012 43.3869 87.644C43.6349 87.276 43.9829 86.996 44.4309 86.804C44.8789 86.604 45.3909 86.504 45.9669 86.504C46.8309 86.504 47.5309 86.716 48.0669 87.14C48.6109 87.556 48.9109 88.14 48.9669 88.892H47.1189C47.1029 88.604 46.9789 88.368 46.7469 88.184C46.5229 87.992 46.2229 87.896 45.8469 87.896C45.5189 87.896 45.2549 87.98 45.0549 88.148C44.8629 88.316 44.7669 88.56 44.7669 88.88C44.7669 89.104 44.8389 89.292 44.9829 89.444C45.1349 89.588 45.3189 89.708 45.5349 89.804C45.7589 89.892 46.0709 89.996 46.4709 90.116C47.0149 90.276 47.4589 90.436 47.8029 90.596C48.1469 90.756 48.4429 90.996 48.6909 91.316C48.9389 91.636 49.0629 92.056 49.0629 92.576C49.0629 93.024 48.9469 93.44 48.7149 93.824C48.4829 94.208 48.1429 94.516 47.6949 94.748C47.2469 94.972 46.7149 95.084 46.0989 95.084ZM50.0874 91.676C50.0874 90.988 50.2274 90.388 50.5074 89.876C50.7874 89.356 51.1754 88.956 51.6714 88.676C52.1674 88.388 52.7354 88.244 53.3754 88.244C54.1994 88.244 54.8794 88.452 55.4154 88.868C55.9594 89.276 56.3234 89.852 56.5074 90.596H54.6954C54.5994 90.308 54.4354 90.084 54.2034 89.924C53.9794 89.756 53.6994 89.672 53.3634 89.672C52.8834 89.672 52.5034 89.848 52.2234 90.2C51.9434 90.544 51.8034 91.036 51.8034 91.676C51.8034 92.308 51.9434 92.8 52.2234 93.152C52.5034 93.496 52.8834 93.668 53.3634 93.668C54.0434 93.668 54.4874 93.364 54.6954 92.756H56.5074C56.3234 93.476 55.9594 94.048 55.4154 94.472C54.8714 94.896 54.1914 95.108 53.3754 95.108C52.7354 95.108 52.1674 94.968 51.6714 94.688C51.1754 94.4 50.7874 94 50.5074 93.488C50.2274 92.968 50.0874 92.364 50.0874 91.676ZM58.5902 87.56C58.2942 87.56 58.0462 87.468 57.8462 87.284C57.6542 87.092 57.5582 86.856 57.5582 86.576C57.5582 86.296 57.6542 86.064 57.8462 85.88C58.0462 85.688 58.2942 85.592 58.5902 85.592C58.8862 85.592 59.1302 85.688 59.3222 85.88C59.5222 86.064 59.6222 86.296 59.6222 86.576C59.6222 86.856 59.5222 87.092 59.3222 87.284C59.1302 87.468 58.8862 87.56 58.5902 87.56ZM59.4182 88.352V95H57.7382V88.352H59.4182ZM67.258 91.532C67.258 91.772 67.242 91.988 67.21 92.18H62.35C62.39 92.66 62.558 93.036 62.854 93.308C63.15 93.58 63.514 93.716 63.946 93.716C64.57 93.716 65.014 93.448 65.278 92.912H67.09C66.898 93.552 66.53 94.08 65.986 94.496C65.442 94.904 64.774 95.108 63.982 95.108C63.342 95.108 62.766 94.968 62.254 94.688C61.75 94.4 61.354 93.996 61.066 93.476C60.786 92.956 60.646 92.356 60.646 91.676C60.646 90.988 60.786 90.384 61.066 89.864C61.346 89.344 61.738 88.944 62.242 88.664C62.746 88.384 63.326 88.244 63.982 88.244C64.614 88.244 65.178 88.38 65.674 88.652C66.178 88.924 66.566 89.312 66.838 89.816C67.118 90.312 67.258 90.884 67.258 91.532ZM65.518 91.052C65.51 90.62 65.354 90.276 65.05 90.02C64.746 89.756 64.374 89.624 63.934 89.624C63.518 89.624 63.166 89.752 62.878 90.008C62.598 90.256 62.426 90.604 62.362 91.052H65.518ZM72.1683 88.256C72.9603 88.256 73.6003 88.508 74.0883 89.012C74.5763 89.508 74.8203 90.204 74.8203 91.1V95H73.1403V91.328C73.1403 90.8 73.0083 90.396 72.7443 90.116C72.4803 89.828 72.1203 89.684 71.6643 89.684C71.2003 89.684 70.8323 89.828 70.5603 90.116C70.2963 90.396 70.1643 90.8 70.1643 91.328V95H68.4843V88.352H70.1643V89.18C70.3883 88.892 70.6723 88.668 71.0163 88.508C71.3683 88.34 71.7523 88.256 72.1683 88.256ZM75.9858 91.676C75.9858 90.988 76.1258 90.388 76.4058 89.876C76.6858 89.356 77.0738 88.956 77.5698 88.676C78.0658 88.388 78.6338 88.244 79.2738 88.244C80.0978 88.244 80.7778 88.452 81.3138 88.868C81.8578 89.276 82.2218 89.852 82.4058 90.596H80.5938C80.4978 90.308 80.3338 90.084 80.1018 89.924C79.8778 89.756 79.5978 89.672 79.2618 89.672C78.7818 89.672 78.4018 89.848 78.1218 90.2C77.8418 90.544 77.7018 91.036 77.7018 91.676C77.7018 92.308 77.8418 92.8 78.1218 93.152C78.4018 93.496 78.7818 93.668 79.2618 93.668C79.9418 93.668 80.3858 93.364 80.5938 92.756H82.4058C82.2218 93.476 81.8578 94.048 81.3138 94.472C80.7698 94.896 80.0898 95.108 79.2738 95.108C78.6338 95.108 78.0658 94.968 77.5698 94.688C77.0738 94.4 76.6858 94 76.4058 93.488C76.1258 92.968 75.9858 92.364 75.9858 91.676ZM89.8166 91.532C89.8166 91.772 89.8006 91.988 89.7686 92.18H84.9086C84.9486 92.66 85.1166 93.036 85.4126 93.308C85.7086 93.58 86.0726 93.716 86.5046 93.716C87.1286 93.716 87.5726 93.448 87.8366 92.912H89.6486C89.4566 93.552 89.0886 94.08 88.5446 94.496C88.0006 94.904 87.3326 95.108 86.5406 95.108C85.9006 95.108 85.3246 94.968 84.8126 94.688C84.3086 94.4 83.9126 93.996 83.6246 93.476C83.3446 92.956 83.2046 92.356 83.2046 91.676C83.2046 90.988 83.3446 90.384 83.6246 89.864C83.9046 89.344 84.2966 88.944 84.8006 88.664C85.3046 88.384 85.8846 88.244 86.5406 88.244C87.1726 88.244 87.7366 88.38 88.2326 88.652C88.7366 88.924 89.1246 89.312 89.3966 89.816C89.6766 90.312 89.8166 90.884 89.8166 91.532ZM88.0766 91.052C88.0686 90.62 87.9126 90.276 87.6086 90.02C87.3046 89.756 86.9326 89.624 86.4926 89.624C86.0766 89.624 85.7246 89.752 85.4366 90.008C85.1566 90.256 84.9846 90.604 84.9206 91.052H88.0766Z" fill="#FAFAFA"/>
<path d="M96.7663 39.8241C96.7663 31.079 103.856 23.9897 112.601 23.9897" stroke="white" stroke-width="12.4191"/>
<path d="M80 38.4268C80 21.6225 93.6225 8 110.427 8" stroke="white" stroke-width="3.10477"/>
<path d="M85.4333 36.2535C85.4333 49.1139 95.8587 59.5393 108.719 59.5393C121.579 59.5393 132.005 49.1139 132.005 36.2535C132.005 23.3931 121.579 12.9677 108.719 12.9677" stroke="white" stroke-width="0.620954" stroke-linecap="round"/>
<defs>
<linearGradient id="paint0_linear_516_6400" x1="74" y1="0" x2="74" y2="110" gradientUnits="userSpaceOnUse">
<stop offset="0.245" stop-color="#40D84A"/>
<stop offset="1" stop-color="#299233"/>
</linearGradient>
</defs>
</svg>
