<svg width="148" height="110" viewBox="0 0 148 110" fill="none" xmlns="http://www.w3.org/2000/svg">
<rect width="148" height="110" rx="10" fill="url(#paint0_linear_516_6424)"/>
<path d="M14.756 82.624C15.636 82.624 16.408 82.796 17.072 83.14C17.744 83.484 18.26 83.976 18.62 84.616C18.988 85.248 19.172 85.984 19.172 86.824C19.172 87.664 18.988 88.4 18.62 89.032C18.26 89.656 17.744 90.14 17.072 90.484C16.408 90.828 15.636 91 14.756 91H11.828V82.624H14.756ZM14.696 89.572C15.576 89.572 16.256 89.332 16.736 88.852C17.216 88.372 17.456 87.696 17.456 86.824C17.456 85.952 17.216 85.272 16.736 84.784C16.256 84.288 15.576 84.04 14.696 84.04H13.508V89.572H14.696ZM19.9976 87.652C19.9976 86.98 20.1296 86.384 20.3936 85.864C20.6656 85.344 21.0296 84.944 21.4856 84.664C21.9496 84.384 22.4656 84.244 23.0336 84.244C23.5296 84.244 23.9616 84.344 24.3296 84.544C24.7056 84.744 25.0056 84.996 25.2296 85.3V84.352H26.9216V91H25.2296V90.028C25.0136 90.34 24.7136 90.6 24.3296 90.808C23.9536 91.008 23.5176 91.108 23.0216 91.108C22.4616 91.108 21.9496 90.964 21.4856 90.676C21.0296 90.388 20.6656 89.984 20.3936 89.464C20.1296 88.936 19.9976 88.332 19.9976 87.652ZM25.2296 87.676C25.2296 87.268 25.1496 86.92 24.9896 86.632C24.8296 86.336 24.6136 86.112 24.3416 85.96C24.0696 85.8 23.7776 85.72 23.4656 85.72C23.1536 85.72 22.8656 85.796 22.6016 85.948C22.3376 86.1 22.1216 86.324 21.9536 86.62C21.7936 86.908 21.7136 87.252 21.7136 87.652C21.7136 88.052 21.7936 88.404 21.9536 88.708C22.1216 89.004 22.3376 89.232 22.6016 89.392C22.8736 89.552 23.1616 89.632 23.4656 89.632C23.7776 89.632 24.0696 89.556 24.3416 89.404C24.6136 89.244 24.8296 89.02 24.9896 88.732C25.1496 88.436 25.2296 88.084 25.2296 87.676ZM30.5184 85.732V88.948C30.5184 89.172 30.5704 89.336 30.6744 89.44C30.7864 89.536 30.9704 89.584 31.2264 89.584H32.0064V91H30.9504C29.5344 91 28.8264 90.312 28.8264 88.936V85.732H28.0344V84.352H28.8264V82.708H30.5184V84.352H32.0064V85.732H30.5184ZM32.7827 87.652C32.7827 86.98 32.9147 86.384 33.1787 85.864C33.4507 85.344 33.8147 84.944 34.2707 84.664C34.7347 84.384 35.2507 84.244 35.8187 84.244C36.3147 84.244 36.7467 84.344 37.1147 84.544C37.4907 84.744 37.7907 84.996 38.0147 85.3V84.352H39.7067V91H38.0147V90.028C37.7987 90.34 37.4987 90.6 37.1147 90.808C36.7387 91.008 36.3027 91.108 35.8067 91.108C35.2467 91.108 34.7347 90.964 34.2707 90.676C33.8147 90.388 33.4507 89.984 33.1787 89.464C32.9147 88.936 32.7827 88.332 32.7827 87.652ZM38.0147 87.676C38.0147 87.268 37.9347 86.92 37.7747 86.632C37.6147 86.336 37.3987 86.112 37.1267 85.96C36.8547 85.8 36.5627 85.72 36.2507 85.72C35.9387 85.72 35.6507 85.796 35.3867 85.948C35.1227 86.1 34.9067 86.324 34.7387 86.62C34.5787 86.908 34.4987 87.252 34.4987 87.652C34.4987 88.052 34.5787 88.404 34.7387 88.708C34.9067 89.004 35.1227 89.232 35.3867 89.392C35.6587 89.552 35.9467 89.632 36.2507 89.632C36.5627 89.632 36.8547 89.556 37.1267 89.404C37.3987 89.244 37.6147 89.02 37.7747 88.732C37.9347 88.436 38.0147 88.084 38.0147 87.676ZM53.3389 82.624V91H51.6589V85.552L49.4149 91H48.1429L45.8869 85.552V91H44.2069V82.624H46.1149L48.7789 88.852L51.4429 82.624H53.3389ZM55.8519 83.56C55.5559 83.56 55.3079 83.468 55.1079 83.284C54.9159 83.092 54.8199 82.856 54.8199 82.576C54.8199 82.296 54.9159 82.064 55.1079 81.88C55.3079 81.688 55.5559 81.592 55.8519 81.592C56.1479 81.592 56.3919 81.688 56.5839 81.88C56.7839 82.064 56.8839 82.296 56.8839 82.576C56.8839 82.856 56.7839 83.092 56.5839 83.284C56.3919 83.468 56.1479 83.56 55.8519 83.56ZM56.6799 84.352V91H54.9999V84.352H56.6799ZM62.0237 84.256C62.8157 84.256 63.4557 84.508 63.9437 85.012C64.4317 85.508 64.6757 86.204 64.6757 87.1V91H62.9957V87.328C62.9957 86.8 62.8637 86.396 62.5997 86.116C62.3357 85.828 61.9757 85.684 61.5197 85.684C61.0557 85.684 60.6877 85.828 60.4157 86.116C60.1517 86.396 60.0197 86.8 60.0197 87.328V91H58.3397V84.352H60.0197V85.18C60.2437 84.892 60.5277 84.668 60.8717 84.508C61.2237 84.34 61.6077 84.256 62.0237 84.256ZM67.1253 83.56C66.8293 83.56 66.5813 83.468 66.3813 83.284C66.1893 83.092 66.0933 82.856 66.0933 82.576C66.0933 82.296 66.1893 82.064 66.3813 81.88C66.5813 81.688 66.8293 81.592 67.1253 81.592C67.4213 81.592 67.6653 81.688 67.8573 81.88C68.0573 82.064 68.1573 82.296 68.1573 82.576C68.1573 82.856 68.0573 83.092 67.8573 83.284C67.6653 83.468 67.4213 83.56 67.1253 83.56ZM67.9533 84.352V91H66.2733V84.352H67.9533ZM73.2972 84.256C74.0892 84.256 74.7292 84.508 75.2172 85.012C75.7052 85.508 75.9492 86.204 75.9492 87.1V91H74.2692V87.328C74.2692 86.8 74.1372 86.396 73.8732 86.116C73.6092 85.828 73.2492 85.684 72.7932 85.684C72.3292 85.684 71.9612 85.828 71.6892 86.116C71.4252 86.396 71.2932 86.8 71.2932 87.328V91H69.6132V84.352H71.2932V85.18C71.5172 84.892 71.8012 84.668 72.1452 84.508C72.4972 84.34 72.8812 84.256 73.2972 84.256ZM80.1508 84.244C80.6468 84.244 81.0828 84.344 81.4588 84.544C81.8348 84.736 82.1308 84.988 82.3468 85.3V84.352H84.0388V91.048C84.0388 91.664 83.9148 92.212 83.6668 92.692C83.4188 93.18 83.0468 93.564 82.5508 93.844C82.0548 94.132 81.4548 94.276 80.7508 94.276C79.8068 94.276 79.0308 94.056 78.4228 93.616C77.8228 93.176 77.4828 92.576 77.4028 91.816H79.0708C79.1588 92.12 79.3468 92.36 79.6348 92.536C79.9308 92.72 80.2868 92.812 80.7028 92.812C81.1908 92.812 81.5868 92.664 81.8908 92.368C82.1948 92.08 82.3468 91.64 82.3468 91.048V90.016C82.1308 90.328 81.8308 90.588 81.4468 90.796C81.0708 91.004 80.6388 91.108 80.1508 91.108C79.5908 91.108 79.0788 90.964 78.6148 90.676C78.1508 90.388 77.7828 89.984 77.5107 89.464C77.2467 88.936 77.1147 88.332 77.1147 87.652C77.1147 86.98 77.2467 86.384 77.5107 85.864C77.7828 85.344 78.1468 84.944 78.6028 84.664C79.0668 84.384 79.5828 84.244 80.1508 84.244ZM82.3468 87.676C82.3468 87.268 82.2668 86.92 82.1068 86.632C81.9468 86.336 81.7308 86.112 81.4588 85.96C81.1868 85.8 80.8948 85.72 80.5828 85.72C80.2708 85.72 79.9828 85.796 79.7188 85.948C79.4548 86.1 79.2388 86.324 79.0708 86.62C78.9108 86.908 78.8308 87.252 78.8308 87.652C78.8308 88.052 78.9108 88.404 79.0708 88.708C79.2388 89.004 79.4548 89.232 79.7188 89.392C79.9908 89.552 80.2788 89.632 80.5828 89.632C80.8948 89.632 81.1868 89.556 81.4588 89.404C81.7308 89.244 81.9468 89.02 82.1068 88.732C82.2668 88.436 82.3468 88.084 82.3468 87.676Z" fill="#FAFAFA"/>
<path d="M28.6543 9.46143C39.105 9.46167 47.5771 17.9345 47.5771 28.3853C47.5769 38.8358 39.1049 47.3079 28.6543 47.3081C18.2035 47.3081 9.73071 38.836 9.73047 28.3853C9.73047 17.9343 18.2034 9.46143 28.6543 9.46143Z" stroke="white" stroke-width="9.46154"/>
<circle cx="80.6925" cy="6.30769" r="6.30769" fill="white"/>
<circle cx="77.5387" cy="60.5538" r="8.67308" stroke="white" stroke-width="1.57692"/>
<defs>
<linearGradient id="paint0_linear_516_6424" x1="74" y1="0" x2="74" y2="110" gradientUnits="userSpaceOnUse">
<stop offset="0.245" stop-color="#D84040"/>
<stop offset="1" stop-color="#922929"/>
</linearGradient>
</defs>
</svg>
