<svg width="312" height="108" viewBox="0 0 312 108" fill="none" xmlns="http://www.w3.org/2000/svg">
<g clip-path="url(#clip0_731_9762)">
<rect width="312" height="108" rx="10" fill="#FFD680"/>
<circle cx="254.5" cy="52.5" r="89.5" fill="#FB773C"/>
<circle cx="251.5" cy="54.5" r="65.5" fill="#FDAD8A"/>
<circle cx="252" cy="54" r="39" fill="#FED6C5"/>
<path d="M285.95 153.901L276.66 152.339L258.26 149.223C258.26 149.223 264.197 125.393 263.755 121.418C263.314 117.444 244.774 107.851 242.378 103.272C239.982 98.6921 241.241 87.3657 241.241 87.3657H262.88C263.566 88.4068 264.142 89.5169 264.597 90.6778C264.753 91.4956 287.005 108.244 290.047 115.629C292.885 122.596 285.95 153.901 285.95 153.901Z" fill="#052B4F"/>
<path d="M258.284 149.223C258.284 149.223 264.221 125.393 263.78 121.418C263.338 117.444 244.799 107.851 242.403 103.272C240.007 98.6921 241.241 87.3657 241.241 87.3657H255.496L276.684 152.306L258.284 149.223Z" fill="#263238"/>
<path d="M221.509 87.3657L255.504 87.4148C255.504 87.4148 254.596 96.525 254.048 97.3836C254.048 97.3836 269.987 111.809 272.089 119.063C274.19 126.317 264.598 157.696 264.598 157.696L236.793 150.025C236.793 150.025 244.587 124.673 244.587 121.459C244.587 119.276 225.663 109.299 221.999 104.384C218.335 99.469 221.509 87.3657 221.509 87.3657Z" fill="#052B4F"/>
<path d="M272.473 119.905C272.301 118.534 271.88 117.206 271.23 115.987C270.559 114.769 259.715 101.267 254.056 97.3827C253.966 97.3255 253.86 97.44 253.942 97.5054C259.11 101.807 269.063 114.123 269.93 115.35C270.72 116.446 271.277 117.693 271.565 119.013C272.195 121.81 271.835 124.738 271.467 127.567C271.001 131.117 270.469 134.674 269.831 138.199C269.837 138.213 269.846 138.226 269.858 138.234C269.871 138.243 269.886 138.248 269.901 138.248C269.916 138.248 269.931 138.243 269.944 138.234C269.956 138.226 269.966 138.213 269.971 138.199C270.788 134.976 271.459 131.746 271.974 128.467C272.375 125.686 272.866 122.767 272.473 119.905Z" fill="#263238"/>
<path d="M256.256 87.9949C256.035 89.4015 255.839 90.8163 255.553 92.2065C255.414 92.8689 255.299 93.5395 255.111 94.1856C255.059 94.4685 254.912 94.7252 254.694 94.9134C254.429 95.0676 254.126 95.1441 253.819 95.1342C253.165 95.1342 252.707 94.8316 252.74 94.1365C252.816 93.4756 252.933 92.8201 253.091 92.1738C253.214 91.4624 253.304 90.759 253.386 90.0476C253.386 89.745 253.443 89.4342 253.467 89.1317C253.492 88.8291 253.467 88.3875 253.508 88.0195C253.508 87.9459 253.394 87.9377 253.386 88.0195C253.32 88.3466 253.198 88.6492 253.132 88.9681C253.067 89.287 252.985 89.6223 252.92 89.9413C252.797 90.5955 252.674 91.2497 252.543 91.904C252.413 92.5582 252.249 93.1225 252.159 93.744C252.1 93.9813 252.089 94.228 252.127 94.4696C252.165 94.7112 252.251 94.9427 252.38 95.1506C252.706 95.4816 253.138 95.6887 253.6 95.7365C254.063 95.7842 254.528 95.6696 254.915 95.4123C255.255 95.1351 255.479 94.7416 255.545 94.3083C255.684 93.6949 255.765 93.0652 255.864 92.4519C256.093 90.9799 256.346 89.516 256.493 88.0358C256.51 87.8886 256.281 87.8641 256.256 87.9949Z" fill="#263238"/>
<path d="M253.729 95.265C253.729 95.4367 253.729 95.6084 253.778 95.7802C253.827 95.9519 253.778 96.1236 253.819 96.2954C253.86 96.4671 253.819 96.6389 253.819 96.8106C253.819 96.9823 253.819 97.1459 253.86 97.3176C253.86 97.335 253.867 97.3516 253.879 97.3639C253.892 97.3761 253.908 97.383 253.926 97.383C253.943 97.383 253.96 97.3761 253.972 97.3639C253.984 97.3516 253.991 97.335 253.991 97.3176C254.02 97.1473 254.036 96.9751 254.04 96.8024C254.04 96.6307 254.04 96.4508 254.04 96.279C254.04 96.1073 254.04 95.9356 253.999 95.7638C254.002 95.5845 253.98 95.4055 253.934 95.2322C253.919 95.2186 253.902 95.2084 253.882 95.2025C253.863 95.1967 253.843 95.1953 253.823 95.1984C253.804 95.2016 253.785 95.2092 253.769 95.2208C253.752 95.2323 253.739 95.2474 253.729 95.265Z" fill="#263238"/>
<path d="M246.59 118.384C245.912 117.705 245.151 117.114 244.325 116.626L241.487 114.63L235.803 110.648L230.21 106.722C228.443 105.487 226.448 104.351 225.09 102.633C221.966 98.7244 222.899 93.376 223.774 88.87C223.774 88.7882 223.667 88.7555 223.651 88.87C222.833 92.7954 222.016 97.0479 223.651 100.883C224.45 102.569 225.68 104.013 227.217 105.07C228.983 106.379 230.807 107.614 232.606 108.873L244.006 116.806C244.926 117.327 245.755 117.996 246.459 118.785C247.171 119.782 246.778 121.025 246.516 122.105C245.971 124.286 245.426 126.483 244.881 128.696C243.616 133.603 242.253 138.51 240.792 143.417C240.791 143.436 240.796 143.454 240.807 143.47C240.818 143.485 240.834 143.496 240.853 143.501C240.871 143.506 240.891 143.504 240.908 143.496C240.925 143.488 240.939 143.475 240.947 143.457C242.278 139.134 243.526 134.772 244.693 130.373C245.282 128.192 245.851 126.011 246.402 123.83C246.713 122.781 246.959 121.713 247.138 120.633C247.215 120.241 247.205 119.837 247.111 119.448C247.016 119.06 246.839 118.697 246.59 118.384Z" fill="#263238"/>
<path d="M248.127 54.9153C248.471 62.0137 251.398 85.5824 257.475 89.2624C261.449 91.7158 284.028 94.8643 288.444 91.8058C290.366 90.4646 291.266 75.957 288.78 75.6463C286.293 75.3355 268.335 74.8285 266.797 73.6999C265.26 72.5714 257.597 53.4351 254.056 48.1113C248.037 38.9357 247.947 51.0962 248.127 54.9153Z" fill="#EB9481"/>
<path d="M264.295 66.2994L262.087 67.0681L248.283 71.8685C247.276 65.316 246.692 58.7056 246.533 52.0781C246.533 45.2004 248.561 41.8393 251.538 44.0147C252.707 44.8324 253.991 46.5334 255.373 49.1749L264.295 66.2994Z" fill="#FFB61A"/>
<path d="M248.847 69.317C251.088 68.3683 260.419 64.8355 262.488 64.2058C262.635 64.1567 262.692 64.2058 262.553 64.3039C258.096 66.2482 253.534 67.9409 248.888 69.3742C248.831 69.4233 248.79 69.3742 248.847 69.317Z" fill="#263238"/>
<path d="M262.087 67.0681L248.283 71.8685C247.276 65.316 246.692 58.7056 246.533 52.0781C246.533 45.2004 248.561 41.8393 251.538 44.0147L262.087 67.0681Z" fill="#263238"/>
<path d="M265.563 88.1834C264.933 88.8785 243.261 90.4323 229.629 91.2583C223.389 91.6263 218.85 91.8553 218.777 91.7653C218.164 91.0539 222.244 56.1997 236.629 42.8779C236.901 42.6244 237.188 42.3868 237.488 42.1664C242.354 38.6091 248.7 41.136 249.689 41.6349C251.562 42.5672 254.686 48.0627 256.125 52.9449C257.769 58.4977 266.127 87.5701 265.563 88.1834Z" fill="#FFB61A"/>
<path d="M237.488 42.1987L229.629 91.2661C223.389 91.6341 218.85 91.863 218.777 91.7731C218.164 91.0616 222.244 56.2075 236.629 42.8857C236.902 42.6405 237.189 42.4112 237.488 42.1987Z" fill="#263238"/>
<path d="M260.885 78.9177C260.615 81.2729 254.007 79.9317 252.323 79.9481C250.638 79.9644 250.344 80.3733 251.121 80.954C251.286 81.0563 251.461 81.1412 251.644 81.2075C249.117 80.3897 240.882 76.4316 240.882 76.4316C240.882 76.4316 246.214 75.3031 249.002 75.0577C251.791 74.8124 261.155 76.5543 260.885 78.9177Z" fill="#EB9481"/>
<path d="M278.263 68.5558C279.733 67.5036 281.312 66.6126 282.973 65.898C285.181 65.0802 290.031 63.6736 290.889 63.1748L292.37 63.0112L284.192 94.0872L271.197 98.1762L249.043 93.343L255.528 63.9026L257.033 63.7145C257.033 63.7145 259.854 64.4424 262.169 64.8022C264.483 65.162 272.407 65.0884 278.263 68.5558Z" fill="white"/>
<path d="M269.251 99.0923L276.496 69.2266L254.538 63.6738L247.775 94.1201L269.251 99.0923Z" fill="#37474F"/>
<path d="M269.251 99.0922H272.408L279.694 69.2266H276.497L269.251 99.0922Z" fill="#263238"/>
<path d="M272.408 99.0924L279.694 69.2268L293 62.7417L284.519 94.3574L272.408 99.0924Z" fill="#37474F"/>
<path d="M229.236 48.3649C224.166 53.3452 207.802 73.1357 209.07 80.1033C209.888 84.6829 233.881 93.605 239.099 94.8235C241.381 95.3714 246.189 79.8253 244.766 77.7726C243.343 75.72 228.5 73.9944 228.296 72.1217C228.092 70.2489 236.637 54.4166 238.273 48.2504C241.094 37.6601 231.976 45.658 229.236 48.3649Z" fill="#EB9481"/>
<path d="M239.222 50.238C243.311 40.4245 238.682 39.157 231.355 45.2822C226.362 49.633 221.653 54.2984 217.256 59.25L231.772 68.0249C231.772 68.0249 236.58 56.5023 239.222 50.238Z" fill="#FFB61A"/>
<path d="M238.093 53.3613C237.562 54.6616 237.071 55.97 236.58 57.2785C236.94 56.796 237.324 56.3298 237.725 55.8801C237.439 56.2644 237.169 56.657 236.907 57.0413L236.49 57.5892L236.4 57.7119C236.016 58.726 235.623 59.7482 235.206 60.7541C234.707 61.9644 234.184 63.1502 233.661 64.3442C233.137 65.5382 232.401 66.8875 231.911 68.1387C231.911 68.245 230.619 67.3209 230.48 67.3209C230.34 67.3209 230.406 67.1001 230.52 67.1901C230.635 67.28 231.821 67.8525 231.845 67.8525C232.377 66.6585 232.769 65.3991 233.26 64.1888C233.751 62.9785 234.233 61.7763 234.748 60.5742C235.795 58.1208 236.981 55.7656 238.02 53.3367C238.06 53.304 238.101 53.3286 238.093 53.3613Z" fill="#263238"/>
<path d="M219.546 58.0559C221.713 59.1763 230.381 64.1075 232.189 65.3015C232.311 65.3833 232.287 65.4814 232.189 65.416C227.843 63.2247 223.623 60.7948 219.546 58.1377C219.456 58.1131 219.497 58.0232 219.546 58.0559Z" fill="#263238"/>
<path d="M264.949 88.837C264.614 90.9142 261.302 91.2413 261.073 91.2904C261.269 91.2904 264.18 91.3313 263.69 93.3676C263.199 95.4039 260.231 96.2625 260.231 96.2625C260.231 96.2625 261.13 96.8677 260.108 98.1925C258.636 100.098 253.435 100.147 250.72 99.5255C248.005 98.904 238.494 94.6188 237.054 93.9564L240.882 76.4639C240.882 76.4639 249.117 80.4138 251.644 81.2398C253.385 81.8616 255.163 82.375 256.968 82.7772C259.854 83.3088 264.082 81.6405 264.328 83.7994C264.549 85.7294 261.506 86.6045 261.506 86.6045C261.506 86.6045 265.301 86.7026 264.949 88.837Z" fill="#EB9481"/>
<path d="M261.416 86.5475C257.09 87.4716 255.037 87.1281 250.948 85.6152C250.932 85.6076 250.913 85.6068 250.897 85.613C250.88 85.6191 250.866 85.6317 250.858 85.6479C250.851 85.6642 250.85 85.6828 250.856 85.6997C250.862 85.7166 250.875 85.7303 250.891 85.7379C254.751 87.5779 257.27 88.3875 261.473 86.7601C261.653 86.6784 261.596 86.5475 261.416 86.5475Z" fill="#263238"/>
<path d="M261.245 91.176C256.665 91.7403 254.433 91.3887 250.041 90.1211C249.976 90.1211 249.943 90.2111 250 90.2356C254.212 91.8712 256.731 92.5826 261.237 91.4132C261.417 91.3641 261.417 91.1515 261.245 91.176Z" fill="#263238"/>
<path d="M260.173 96.1975C255.7 96.4265 253.238 96.1402 249.133 94.3656C249.113 94.3559 249.091 94.3543 249.07 94.3612C249.049 94.3681 249.032 94.3829 249.023 94.4024C249.013 94.4219 249.011 94.4445 249.018 94.4653C249.025 94.486 249.04 94.5031 249.059 94.5128C252.376 96.5609 256.364 97.2246 260.165 96.361C260.443 96.2874 260.459 96.1893 260.173 96.1975Z" fill="#263238"/>
<path d="M291.789 71.4839C292.967 73.6347 295.764 76.2271 296.091 78.0262C296.185 78.4644 296.136 78.9214 295.95 79.3294C295.765 79.7374 295.453 80.0748 295.06 80.2915C295.06 80.2915 296.909 81.1093 296.933 82.7448C296.933 83.5626 295.576 84.3804 295.576 84.3804C295.985 84.5844 296.331 84.8964 296.576 85.2827C296.821 85.6689 296.956 86.1148 296.966 86.5721C296.909 87.7579 295.543 88.3631 295.543 88.3631C295.543 88.3631 296.63 89.6797 296.181 90.8737C295.281 93.2861 285.091 93.875 283.309 90.2194C282.491 88.5103 284.944 88.5021 284.944 88.5021C284.944 88.5021 281.346 87.6434 281.174 85.5499C281.003 83.4563 284.241 83.6362 284.241 83.6362C284.241 83.6362 280.765 82.8184 280.806 80.5859C280.847 78.3533 284.077 79.0484 284.077 79.0484C284.077 79.0484 281.722 77.6418 282.131 75.9654C282.818 73.2094 287.3 76.3743 289.491 75.7119L290.513 71.95L291.789 71.4839Z" fill="#EB9481"/>
<path d="M294.022 74.5754C293.081 72.441 295.657 69.5951 295.019 67.428C294.202 64.5003 291.037 67.5997 290.538 71.9585L290.75 75.4014L294.022 74.5754Z" fill="#EB9481"/>
<path d="M295.633 84.4052C295.633 84.4052 295.682 84.4706 295.633 84.4788C291.851 85.6055 287.79 85.3445 284.184 83.7428C284.061 83.6855 284.012 83.5056 284.184 83.5629C286.629 84.5442 292.362 84.9122 295.633 84.4052Z" fill="#100E3A"/>
<path d="M283.857 78.8437C287.372 80.2542 291.183 80.7657 294.946 80.3321C294.995 80.3321 294.995 80.3975 294.946 80.4138C292.929 80.9734 290.816 81.0989 288.747 80.7818C286.981 80.6155 285.289 79.9896 283.84 78.9664C283.75 78.9255 283.783 78.811 283.857 78.8437Z" fill="#100E3A"/>
<path d="M248.659 51.2273C246.091 51.6198 242.076 47.4082 240.62 44.1534C240.834 42.4081 241.137 40.6748 241.528 38.9604C241.822 37.3249 242.108 35.4358 242.248 33.7184C242.248 33.3668 243.417 34.111 243.417 34.111L245.592 34.8306L252.789 37.2104C251.998 39.3181 251.47 41.5155 251.219 43.7527C251.194 43.9892 251.194 44.2276 251.219 44.4642V44.5786C251.35 45.8953 251.145 50.8429 248.659 51.2273Z" fill="#EB9481"/>
<path d="M251.235 44.4232V44.5377C250.867 44.5653 250.498 44.5653 250.131 44.5377C242.893 43.7853 242.771 34.5034 242.771 34.5034L245.625 34.8632L252.821 37.243C252.03 39.3507 251.503 41.5482 251.251 43.7853C251.226 43.997 251.22 44.2105 251.235 44.4232Z" fill="#263238"/>
<path d="M242.542 17.714C240.252 21.8929 239.761 33.4401 242.337 36.973C246.075 42.1005 253.525 44.0632 258.211 39.2628C262.758 34.6177 263.191 20.0038 260.19 16.6591C255.766 11.7278 245.919 11.5479 242.542 17.714Z" fill="#EB9481"/>
<path d="M241.61 28.4845C243.916 28.4845 243.548 22.3429 243.548 22.3429C243.548 22.3429 247.162 22.4165 248.773 17.3053C248.773 17.3053 250.286 23.6514 259.871 23.7904C260.3 23.056 260.569 22.2397 260.662 21.3944C260.755 20.5491 260.669 19.6937 260.411 18.8837C261.124 20.6356 261.69 22.4436 262.103 24.2893C262.103 24.2893 265.424 16.7492 259.11 13.0774C256.592 11.6135 252.511 11.2864 245.944 13.4863C245.944 13.4863 245.265 9.64266 244.496 10.027C243.728 10.4114 244.611 14.0424 244.611 14.0424C244.611 14.0424 242.027 12.8402 241.495 13.3391C240.964 13.8379 243.548 14.8111 243.548 14.8111C242.279 15.0777 241.148 15.7921 240.363 16.8238C239.578 17.8554 239.19 19.1353 239.271 20.4293C239.336 24.8372 240.465 28.4845 241.61 28.4845Z" fill="#263238"/>
<path d="M258.448 24.044C257.21 24.209 255.951 24.1001 254.76 23.7251C253.713 23.3561 252.74 22.8021 251.889 22.0895C251.06 21.3786 250.38 20.5117 249.886 19.538C249.397 18.4592 249.106 17.3014 249.027 16.1197C249.027 16.0542 248.912 16.0297 248.896 16.1197C248.734 17.3071 248.895 18.5162 249.362 19.6198C249.771 20.7127 250.445 21.6873 251.322 22.4564C252.2 23.2256 253.254 23.7654 254.392 24.0277C255.746 24.2203 257.116 24.2724 258.48 24.1831C258.538 24.1749 258.53 24.0359 258.448 24.044Z" fill="#263238"/>
<path d="M244.3 14.7949C243.113 14.5869 241.891 14.8228 240.867 15.4577C239.843 16.0927 239.089 17.0822 238.747 18.2378C238.423 19.6036 238.423 21.0263 238.747 22.3921C239.058 23.8133 239.553 25.1878 240.219 26.4811C240.219 26.5547 240.366 26.4811 240.326 26.4157C239.761 25.1988 239.386 23.9026 239.213 22.5721C238.983 21.3061 238.953 20.012 239.123 18.7366C239.345 17.5677 239.997 16.5246 240.951 15.8142C241.906 15.1037 243.092 14.7779 244.276 14.9012C244.365 14.9339 244.382 14.8031 244.3 14.7949Z" fill="#263238"/>
<path d="M253.893 10.9756C252.237 11.1238 250.607 11.4838 249.043 12.0469C247.534 12.5181 246.115 13.2426 244.848 14.1895C244.791 14.2385 244.848 14.3449 244.922 14.2958C247.609 12.9035 250.527 12.0113 253.533 11.6625C256.289 11.2618 259.437 11.6625 261.171 14.1159C261.171 14.1159 261.261 14.1159 261.237 14.1159C259.732 11.5807 256.649 10.7793 253.893 10.9756Z" fill="#263238"/>
<path d="M252.176 28.3538C250.736 28.1903 250.54 31.0934 251.849 31.2488C253.157 31.4042 253.394 28.4847 252.176 28.3538Z" fill="#263238"/>
<path d="M258.816 29.1471C260.263 29.2616 259.936 32.1484 258.595 32.0502C257.254 31.9521 257.597 29.0571 258.816 29.1471Z" fill="#263238"/>
<path d="M251.357 26.5953C251.673 26.5338 251.985 26.4518 252.29 26.35C252.63 26.3115 252.947 26.1587 253.189 25.9166C253.259 25.8295 253.297 25.7214 253.297 25.6099C253.297 25.4984 253.259 25.3903 253.189 25.3032C253.022 25.1617 252.821 25.0667 252.606 25.028C252.39 24.9892 252.168 25.008 251.963 25.0824C251.52 25.1721 251.127 25.4227 250.859 25.7857C250.807 25.8696 250.779 25.9664 250.779 26.0651C250.779 26.1638 250.806 26.2606 250.858 26.3447C250.91 26.4288 250.984 26.4967 251.072 26.541C251.16 26.5853 251.259 26.6041 251.357 26.5953Z" fill="#263238"/>
<path d="M260.116 27.3641C259.806 27.2737 259.5 27.1673 259.2 27.0452C258.865 26.9817 258.56 26.8092 258.333 26.5545C258.278 26.4593 258.256 26.3487 258.269 26.2396C258.282 26.1304 258.331 26.0286 258.407 25.9493C258.583 25.8176 258.791 25.7352 259.01 25.7108C259.228 25.6863 259.449 25.7207 259.65 25.8103C260.091 25.9419 260.467 26.2336 260.705 26.6281C260.744 26.717 260.758 26.8149 260.746 26.9113C260.733 27.0076 260.694 27.0987 260.634 27.1745C260.573 27.2504 260.493 27.3082 260.401 27.3416C260.31 27.375 260.212 27.3828 260.116 27.3641Z" fill="#263238"/>
<path d="M251.521 35.7133C251.636 35.9832 251.726 36.3348 252.02 36.4902C252.333 36.6073 252.667 36.6601 253.001 36.6456C253.001 36.6456 253.05 36.6865 253.001 36.7028C252.812 36.8151 252.596 36.8743 252.376 36.8743C252.156 36.8743 251.939 36.8151 251.75 36.7028C251.6 36.5875 251.487 36.4309 251.424 36.2523C251.362 36.0736 251.353 35.8806 251.398 35.6969C251.431 35.6642 251.505 35.6724 251.521 35.7133Z" fill="#263238"/>
<path d="M251.824 33.4401H251.783C251.031 33.4254 250.3 33.1902 249.682 32.7637C249.063 32.3373 248.583 31.7383 248.301 31.0414C248.02 30.3444 247.949 29.5801 248.099 28.8434C248.248 28.1067 248.611 27.4302 249.141 26.8978C249.588 26.4541 250.137 26.1275 250.74 25.9467C251.343 25.766 251.981 25.7368 252.598 25.8618C253.215 25.9867 253.792 26.2619 254.277 26.6629C254.762 27.064 255.141 27.5786 255.38 28.161C255.619 28.7435 255.71 29.3758 255.646 30.0021C255.582 30.6283 255.364 31.2291 255.013 31.7512C254.661 32.2733 254.186 32.7006 253.63 32.9952C253.073 33.2898 252.453 33.4426 251.824 33.4401ZM251.824 26.3908C250.981 26.3941 250.173 26.7222 249.566 27.3067C249.264 27.6034 249.024 27.9572 248.86 28.3475C248.696 28.7377 248.611 29.1567 248.61 29.5802C248.601 30.0025 248.678 30.4223 248.835 30.8143C248.992 31.2064 249.227 31.5626 249.526 31.8618C249.821 32.164 250.173 32.4048 250.562 32.5704C250.951 32.7361 251.368 32.8232 251.791 32.8268C252.638 32.8247 253.451 32.4887 254.052 31.8918C254.654 31.2948 254.996 30.4849 255.005 29.6374C255.012 29.2133 254.936 28.7919 254.78 28.3975C254.624 28.003 254.391 27.6434 254.095 27.3393C253.8 27.0352 253.447 26.7927 253.057 26.6257C252.667 26.4587 252.248 26.3705 251.824 26.3662V26.3908Z" fill="#FFB61A"/>
<path d="M259.781 34.5277C259.375 34.5129 258.979 34.404 258.622 34.2096C258.266 34.0151 257.96 33.7405 257.728 33.4073C257.182 32.6641 256.894 31.7619 256.91 30.8395C256.91 28.8277 258.235 27.2085 259.822 27.2085C260.229 27.2201 260.628 27.3276 260.986 27.5223C261.344 27.7169 261.651 27.9933 261.882 28.3289C262.433 29.0702 262.721 29.9737 262.7 30.8967C262.676 32.9003 261.416 34.5277 259.781 34.5277ZM259.781 27.8218C258.538 27.8218 257.507 29.1712 257.491 30.8477C257.47 31.6318 257.705 32.4014 258.162 33.0393C258.34 33.2962 258.575 33.5087 258.849 33.6604C259.123 33.8121 259.427 33.899 259.74 33.9144C260.991 33.9144 262.021 32.565 262.038 30.8885C262.057 30.1035 261.818 29.3338 261.359 28.6969C261.185 28.437 260.953 28.2221 260.68 28.0699C260.407 27.9178 260.101 27.8327 259.789 27.8218H259.781Z" fill="#FFB61A"/>
<path d="M255.757 33.6448C255.757 33.6448 255.757 34.986 255.626 35.5993C255.626 35.6566 255.463 35.6647 255.25 35.6402C254.704 35.6484 254.167 35.5073 253.695 35.232C253.224 34.9566 252.837 34.5577 252.576 34.0782C252.569 34.0642 252.568 34.0482 252.571 34.033C252.575 34.0179 252.585 34.0047 252.598 33.9959C252.61 33.987 252.626 33.983 252.641 33.9846C252.657 33.9862 252.671 33.9933 252.682 34.0046C253.382 34.6731 254.281 35.0951 255.242 35.2068C255.315 35.0432 255.242 32.8924 255.315 32.9251C255.716 33.056 256.411 33.3586 256.673 33.4649C256.673 32.598 256.673 30.1201 256.779 28.5581C256.779 28.46 256.935 28.4518 256.943 28.5581C257.157 30.4065 257.25 32.2668 257.221 34.1273C257.188 34.2091 255.986 33.792 255.757 33.6448Z" fill="#263238"/>
<path d="M257.148 30.1857C256.641 29.5069 255.512 30.0957 255.512 30.1039L255.226 29.5642C255.291 29.5642 256.862 28.7464 257.679 29.8177L257.148 30.1857Z" fill="#FFB61A"/>
<path d="M248.561 28.3783C246.024 27.5434 243.444 26.8446 240.833 26.2847C239.914 26.3333 239.043 26.7107 238.379 27.3479L237.897 26.9717C238.689 26.1732 239.757 25.708 240.882 25.6714C242.157 25.7532 248.479 27.7077 248.749 27.7895L248.561 28.3783Z" fill="#FFB61A"/>
<path d="M242.37 28.166C242.37 28.166 240.538 24.1261 238.755 24.7149C236.972 25.3037 237.872 30.8319 239.647 31.8951C239.864 32.047 240.111 32.1533 240.371 32.2077C240.631 32.262 240.899 32.2633 241.159 32.2113C241.42 32.1594 241.667 32.0553 241.886 31.9054C242.106 31.7555 242.292 31.5628 242.435 31.339L242.37 28.166Z" fill="#EB9481"/>
<path d="M239.05 26.293C239.05 26.293 239.009 26.293 239.05 26.342C239.599 26.7642 240.053 27.2967 240.384 27.9051C240.715 28.5136 240.915 29.1845 240.971 29.8749C240.92 29.7259 240.836 29.5902 240.726 29.477C240.617 29.3639 240.483 29.2762 240.336 29.2201C240.189 29.1639 240.031 29.1408 239.874 29.1522C239.716 29.1636 239.564 29.2093 239.426 29.2861V29.3597C239.675 29.3284 239.928 29.3753 240.149 29.494C240.37 29.6127 240.549 29.7972 240.661 30.0221C240.847 30.3971 240.99 30.7922 241.086 31.1997C241.127 31.3305 241.356 31.306 241.339 31.1997C241.724 29.4333 240.849 26.8 239.05 26.293Z" fill="#263238"/>
<path d="M17.516 36.098C16.592 36.098 15.7427 35.8833 14.968 35.454C14.2027 35.0247 13.5913 34.4273 13.134 33.662C12.686 32.8873 12.462 32.0193 12.462 31.058C12.462 30.0967 12.686 29.2333 13.134 28.468C13.5913 27.7027 14.2027 27.1053 14.968 26.676C15.7427 26.2467 16.592 26.032 17.516 26.032C18.44 26.032 19.2847 26.2467 20.05 26.676C20.8247 27.1053 21.4313 27.7027 21.87 28.468C22.318 29.2333 22.542 30.0967 22.542 31.058C22.542 32.0193 22.318 32.8873 21.87 33.662C21.422 34.4273 20.8153 35.0247 20.05 35.454C19.2847 35.8833 18.44 36.098 17.516 36.098ZM17.516 33.914C18.3 33.914 18.9253 33.6527 19.392 33.13C19.868 32.6073 20.106 31.9167 20.106 31.058C20.106 30.19 19.868 29.4993 19.392 28.986C18.9253 28.4633 18.3 28.202 17.516 28.202C16.7227 28.202 16.088 28.4587 15.612 28.972C15.1453 29.4853 14.912 30.1807 14.912 31.058C14.912 31.926 15.1453 32.6213 15.612 33.144C16.088 33.6573 16.7227 33.914 17.516 33.914ZM28.6339 28.104C29.5485 28.104 30.2765 28.4027 30.8179 29C31.3685 29.588 31.6439 30.4 31.6439 31.436V36H29.2639V31.758C29.2639 31.2353 29.1285 30.8293 28.8579 30.54C28.5872 30.2507 28.2232 30.106 27.7659 30.106C27.3085 30.106 26.9445 30.2507 26.6739 30.54C26.4032 30.8293 26.2679 31.2353 26.2679 31.758V36H23.8739V28.188H26.2679V29.224C26.5105 28.8787 26.8372 28.608 27.2479 28.412C27.6585 28.2067 28.1205 28.104 28.6339 28.104ZM40.6715 31.968C40.6715 32.192 40.6575 32.4253 40.6295 32.668H35.2115C35.2488 33.1533 35.4028 33.5267 35.6735 33.788C35.9535 34.04 36.2941 34.166 36.6955 34.166C37.2928 34.166 37.7081 33.914 37.9415 33.41H40.4895C40.3588 33.9233 40.1208 34.3853 39.7755 34.796C39.4395 35.2067 39.0148 35.5287 38.5015 35.762C37.9881 35.9953 37.4141 36.112 36.7795 36.112C36.0141 36.112 35.3328 35.9487 34.7355 35.622C34.1381 35.2953 33.6715 34.8287 33.3355 34.222C32.9995 33.6153 32.8315 32.906 32.8315 32.094C32.8315 31.282 32.9948 30.5727 33.3215 29.966C33.6575 29.3593 34.1241 28.8927 34.7215 28.566C35.3188 28.2393 36.0048 28.076 36.7795 28.076C37.5355 28.076 38.2075 28.2347 38.7955 28.552C39.3835 28.8693 39.8408 29.322 40.1675 29.91C40.5035 30.498 40.6715 31.184 40.6715 31.968ZM38.2215 31.338C38.2215 30.9273 38.0815 30.6007 37.8015 30.358C37.5215 30.1153 37.1715 29.994 36.7515 29.994C36.3501 29.994 36.0095 30.1107 35.7295 30.344C35.4588 30.5773 35.2908 30.9087 35.2255 31.338H38.2215ZM47.9544 30.092V32.08H41.7944V30.092H47.9544ZM57.1255 26.172V28.09H54.5215V36H52.1275V28.09H49.5235V26.172H57.1255ZM59.531 27.376C59.111 27.376 58.7657 27.2547 58.495 27.012C58.2337 26.76 58.103 26.452 58.103 26.088C58.103 25.7147 58.2337 25.4067 58.495 25.164C58.7657 24.912 59.111 24.786 59.531 24.786C59.9417 24.786 60.2777 24.912 60.539 25.164C60.8097 25.4067 60.945 25.7147 60.945 26.088C60.945 26.452 60.8097 26.76 60.539 27.012C60.2777 27.2547 59.9417 27.376 59.531 27.376ZM60.721 28.188V36H58.327V28.188H60.721ZM72.4239 28.104C73.3946 28.104 74.1646 28.398 74.7339 28.986C75.3126 29.574 75.6019 30.3907 75.6019 31.436V36H73.2219V31.758C73.2219 31.254 73.0866 30.8667 72.8159 30.596C72.5546 30.316 72.1906 30.176 71.7239 30.176C71.2572 30.176 70.8886 30.316 70.6179 30.596C70.3566 30.8667 70.2259 31.254 70.2259 31.758V36H67.8459V31.758C67.8459 31.254 67.7106 30.8667 67.4399 30.596C67.1786 30.316 66.8146 30.176 66.3479 30.176C65.8812 30.176 65.5126 30.316 65.2419 30.596C64.9806 30.8667 64.8499 31.254 64.8499 31.758V36H62.4559V28.188H64.8499V29.168C65.0926 28.8413 65.4099 28.5847 65.8019 28.398C66.1939 28.202 66.6372 28.104 67.1319 28.104C67.7199 28.104 68.2426 28.23 68.6999 28.482C69.1666 28.734 69.5306 29.0933 69.7919 29.56C70.0626 29.1307 70.4312 28.7807 70.8979 28.51C71.3646 28.2393 71.8732 28.104 72.4239 28.104ZM84.6402 31.968C84.6402 32.192 84.6262 32.4253 84.5982 32.668H79.1802C79.2175 33.1533 79.3715 33.5267 79.6422 33.788C79.9222 34.04 80.2629 34.166 80.6642 34.166C81.2615 34.166 81.6769 33.914 81.9102 33.41H84.4582C84.3275 33.9233 84.0895 34.3853 83.7442 34.796C83.4082 35.2067 82.9835 35.5287 82.4702 35.762C81.9569 35.9953 81.3829 36.112 80.7482 36.112C79.9829 36.112 79.3015 35.9487 78.7042 35.622C78.1069 35.2953 77.6402 34.8287 77.3042 34.222C76.9682 33.6153 76.8002 32.906 76.8002 32.094C76.8002 31.282 76.9635 30.5727 77.2902 29.966C77.6262 29.3593 78.0929 28.8927 78.6902 28.566C79.2875 28.2393 79.9735 28.076 80.7482 28.076C81.5042 28.076 82.1762 28.2347 82.7642 28.552C83.3522 28.8693 83.8095 29.322 84.1362 29.91C84.4722 30.498 84.6402 31.184 84.6402 31.968ZM82.1902 31.338C82.1902 30.9273 82.0502 30.6007 81.7702 30.358C81.4902 30.1153 81.1402 29.994 80.7202 29.994C80.3189 29.994 79.9782 30.1107 79.6982 30.344C79.4275 30.5773 79.2595 30.9087 79.1942 31.338H82.1902ZM92.426 36.098C91.7073 36.098 91.0633 35.9813 90.494 35.748C89.9246 35.5147 89.4673 35.1693 89.122 34.712C88.786 34.2547 88.6086 33.704 88.59 33.06H91.138C91.1753 33.424 91.3013 33.704 91.516 33.9C91.7306 34.0867 92.0106 34.18 92.356 34.18C92.7106 34.18 92.9906 34.1007 93.196 33.942C93.4013 33.774 93.504 33.5453 93.504 33.256C93.504 33.0133 93.42 32.8127 93.252 32.654C93.0933 32.4953 92.8926 32.3647 92.65 32.262C92.4166 32.1593 92.0806 32.0427 91.642 31.912C91.0073 31.716 90.4893 31.52 90.088 31.324C89.6866 31.128 89.3413 30.8387 89.052 30.456C88.7626 30.0733 88.618 29.574 88.618 28.958C88.618 28.0433 88.9493 27.3293 89.612 26.816C90.2746 26.2933 91.138 26.032 92.202 26.032C93.2846 26.032 94.1573 26.2933 94.82 26.816C95.4826 27.3293 95.8373 28.048 95.884 28.972H93.294C93.2753 28.6547 93.1586 28.4073 92.944 28.23C92.7293 28.0433 92.454 27.95 92.118 27.95C91.8286 27.95 91.5953 28.0293 91.418 28.188C91.2406 28.3373 91.152 28.5567 91.152 28.846C91.152 29.1633 91.3013 29.4107 91.6 29.588C91.8986 29.7653 92.3653 29.9567 93 30.162C93.6346 30.3767 94.148 30.582 94.54 30.778C94.9413 30.974 95.2866 31.2587 95.576 31.632C95.8653 32.0053 96.01 32.486 96.01 33.074C96.01 33.634 95.8653 34.1427 95.576 34.6C95.296 35.0573 94.8853 35.4213 94.344 35.692C93.8026 35.9627 93.1633 36.098 92.426 36.098ZM101.837 33.97V36H100.619C99.7512 36 99.0746 35.79 98.5892 35.37C98.1039 34.9407 97.8612 34.2453 97.8612 33.284V30.176H96.9092V28.188H97.8612V26.284H100.255V28.188H101.823V30.176H100.255V33.312C100.255 33.5453 100.311 33.7133 100.423 33.816C100.535 33.9187 100.722 33.97 100.983 33.97H101.837ZM110.885 28.188V36H108.491V34.936C108.248 35.2813 107.917 35.5613 107.497 35.776C107.086 35.9813 106.629 36.084 106.125 36.084C105.527 36.084 105 35.9533 104.543 35.692C104.085 35.4213 103.731 35.034 103.479 34.53C103.227 34.026 103.101 33.4333 103.101 32.752V28.188H105.481V32.43C105.481 32.9527 105.616 33.3587 105.887 33.648C106.157 33.9373 106.521 34.082 106.979 34.082C107.445 34.082 107.814 33.9373 108.085 33.648C108.355 33.3587 108.491 32.9527 108.491 32.43V28.188H110.885ZM112.128 32.08C112.128 31.2773 112.278 30.5727 112.576 29.966C112.884 29.3593 113.3 28.8927 113.822 28.566C114.345 28.2393 114.928 28.076 115.572 28.076C116.086 28.076 116.552 28.1833 116.972 28.398C117.402 28.6127 117.738 28.902 117.98 29.266V25.64H120.374V36H117.98V34.88C117.756 35.2533 117.434 35.552 117.014 35.776C116.604 36 116.123 36.112 115.572 36.112C114.928 36.112 114.345 35.9487 113.822 35.622C113.3 35.286 112.884 34.8147 112.576 34.208C112.278 33.592 112.128 32.8827 112.128 32.08ZM117.98 32.094C117.98 31.4967 117.812 31.0253 117.476 30.68C117.15 30.3347 116.748 30.162 116.272 30.162C115.796 30.162 115.39 30.3347 115.054 30.68C114.728 31.016 114.564 31.4827 114.564 32.08C114.564 32.6773 114.728 33.1533 115.054 33.508C115.39 33.8533 115.796 34.026 116.272 34.026C116.748 34.026 117.15 33.8533 117.476 33.508C117.812 33.1627 117.98 32.6913 117.98 32.094ZM130.086 28.188L125.186 39.71H122.61L124.402 35.734L121.224 28.188H123.898L125.704 33.074L127.496 28.188H130.086Z" fill="#052B4F"/>
<path d="M16.344 53.056C16.344 53.52 16.184 53.9067 15.864 54.216C15.5493 54.52 15.0667 54.672 14.416 54.672H13.344V57H12.616V51.424H14.416C15.0453 51.424 15.5227 51.576 15.848 51.88C16.1787 52.184 16.344 52.576 16.344 53.056ZM14.416 54.072C14.8213 54.072 15.12 53.984 15.312 53.808C15.504 53.632 15.6 53.3813 15.6 53.056C15.6 52.368 15.2053 52.024 14.416 52.024H13.344V54.072H14.416ZM17.6248 51.904C17.4861 51.904 17.3688 51.856 17.2728 51.76C17.1768 51.664 17.1288 51.5467 17.1288 51.408C17.1288 51.2693 17.1768 51.152 17.2728 51.056C17.3688 50.96 17.4861 50.912 17.6248 50.912C17.7581 50.912 17.8701 50.96 17.9608 51.056C18.0568 51.152 18.1048 51.2693 18.1048 51.408C18.1048 51.5467 18.0568 51.664 17.9608 51.76C17.8701 51.856 17.7581 51.904 17.6248 51.904ZM17.9768 52.616V57H17.2488V52.616H17.9768ZM19.9456 51.08V57H19.2176V51.08H19.9456ZM21.5623 51.904C21.4236 51.904 21.3063 51.856 21.2103 51.76C21.1143 51.664 21.0663 51.5467 21.0663 51.408C21.0663 51.2693 21.1143 51.152 21.2103 51.056C21.3063 50.96 21.4236 50.912 21.5623 50.912C21.6956 50.912 21.8076 50.96 21.8983 51.056C21.9943 51.152 22.0423 51.2693 22.0423 51.408C22.0423 51.5467 21.9943 51.664 21.8983 51.76C21.8076 51.856 21.6956 51.904 21.5623 51.904ZM21.9143 52.616V57H21.1863V52.616H21.9143ZM25.3311 52.536C25.6617 52.536 25.9604 52.608 26.2271 52.752C26.4937 52.8907 26.7017 53.1013 26.8511 53.384C27.0057 53.6667 27.0831 54.0107 27.0831 54.416V57H26.3631V54.52C26.3631 54.0827 26.2537 53.7493 26.0351 53.52C25.8164 53.2853 25.5177 53.168 25.1391 53.168C24.7551 53.168 24.4484 53.288 24.2191 53.528C23.9951 53.768 23.8831 54.1173 23.8831 54.576V57H23.1551V51.08H23.8831V53.24C24.0271 53.016 24.2244 52.8427 24.4751 52.72C24.7311 52.5973 25.0164 52.536 25.3311 52.536ZM30.7971 51.904C30.6584 51.904 30.5411 51.856 30.4451 51.76C30.3544 51.664 30.3091 51.5467 30.3091 51.408C30.3091 51.2693 30.3544 51.152 30.4451 51.056C30.5411 50.96 30.6584 50.912 30.7971 50.912C30.9357 50.912 31.0504 50.96 31.1411 51.056C31.2371 51.152 31.2851 51.2693 31.2851 51.408C31.2851 51.5467 31.2371 51.664 31.1411 51.76C31.0504 51.856 30.9357 51.904 30.7971 51.904ZM31.1571 57.952C31.1571 58.3413 31.0584 58.6267 30.8611 58.808C30.6637 58.9893 30.3757 59.08 29.9971 59.08H29.5731V58.464H29.8771C30.0797 58.464 30.2211 58.424 30.3011 58.344C30.3864 58.264 30.4291 58.128 30.4291 57.936V52.616H31.1571V57.952ZM32.1174 54.792C32.1174 54.344 32.2081 53.952 32.3894 53.616C32.5708 53.2747 32.8188 53.0107 33.1334 52.824C33.4534 52.6373 33.8081 52.544 34.1974 52.544C34.5814 52.544 34.9148 52.6267 35.1974 52.792C35.4801 52.9573 35.6908 53.1653 35.8294 53.416V52.616H36.5654V57H35.8294V56.184C35.6854 56.44 35.4694 56.6533 35.1814 56.824C34.8988 56.9893 34.5681 57.072 34.1894 57.072C33.8001 57.072 33.4481 56.976 33.1334 56.784C32.8188 56.592 32.5708 56.3227 32.3894 55.976C32.2081 55.6293 32.1174 55.2347 32.1174 54.792ZM35.8294 54.8C35.8294 54.4693 35.7628 54.1813 35.6294 53.936C35.4961 53.6907 35.3148 53.504 35.0854 53.376C34.8614 53.2427 34.6134 53.176 34.3414 53.176C34.0694 53.176 33.8214 53.24 33.5974 53.368C33.3734 53.496 33.1948 53.6827 33.0614 53.928C32.9281 54.1733 32.8614 54.4613 32.8614 54.792C32.8614 55.128 32.9281 55.4213 33.0614 55.672C33.1948 55.9173 33.3734 56.1067 33.5974 56.24C33.8214 56.368 34.0694 56.432 34.3414 56.432C34.6134 56.432 34.8614 56.368 35.0854 56.24C35.3148 56.1067 35.4961 55.9173 35.6294 55.672C35.7628 55.4213 35.8294 55.1307 35.8294 54.8ZM37.5237 54.792C37.5237 54.344 37.6144 53.952 37.7957 53.616C37.977 53.2747 38.225 53.0107 38.5397 52.824C38.8597 52.6373 39.217 52.544 39.6117 52.544C39.953 52.544 40.2704 52.624 40.5637 52.784C40.857 52.9387 41.081 53.144 41.2357 53.4V51.08H41.9717V57H41.2357V56.176C41.0917 56.4373 40.8784 56.6533 40.5957 56.824C40.313 56.9893 39.9824 57.072 39.6037 57.072C39.2144 57.072 38.8597 56.976 38.5397 56.784C38.225 56.592 37.977 56.3227 37.7957 55.976C37.6144 55.6293 37.5237 55.2347 37.5237 54.792ZM41.2357 54.8C41.2357 54.4693 41.169 54.1813 41.0357 53.936C40.9024 53.6907 40.721 53.504 40.4917 53.376C40.2677 53.2427 40.0197 53.176 39.7477 53.176C39.4757 53.176 39.2277 53.24 39.0037 53.368C38.7797 53.496 38.601 53.6827 38.4677 53.928C38.3344 54.1733 38.2677 54.4613 38.2677 54.792C38.2677 55.128 38.3344 55.4213 38.4677 55.672C38.601 55.9173 38.7797 56.1067 39.0037 56.24C39.2277 56.368 39.4757 56.432 39.7477 56.432C40.0197 56.432 40.2677 56.368 40.4917 56.24C40.721 56.1067 40.9024 55.9173 41.0357 55.672C41.169 55.4213 41.2357 55.1307 41.2357 54.8ZM49.0419 52.616L47.6739 57H46.9219L45.8659 53.52L44.8099 57H44.0579L42.6819 52.616H43.4259L44.4339 56.296L45.5219 52.616H46.2659L47.3299 56.304L48.3219 52.616H49.0419ZM49.4924 54.792C49.4924 54.344 49.5831 53.952 49.7644 53.616C49.9458 53.2747 50.1938 53.0107 50.5084 52.824C50.8284 52.6373 51.1831 52.544 51.5724 52.544C51.9564 52.544 52.2898 52.6267 52.5724 52.792C52.8551 52.9573 53.0658 53.1653 53.2044 53.416V52.616H53.9404V57H53.2044V56.184C53.0604 56.44 52.8444 56.6533 52.5564 56.824C52.2738 56.9893 51.9431 57.072 51.5644 57.072C51.1751 57.072 50.8231 56.976 50.5084 56.784C50.1938 56.592 49.9458 56.3227 49.7644 55.976C49.5831 55.6293 49.4924 55.2347 49.4924 54.792ZM53.2044 54.8C53.2044 54.4693 53.1378 54.1813 53.0044 53.936C52.8711 53.6907 52.6898 53.504 52.4604 53.376C52.2364 53.2427 51.9884 53.176 51.7164 53.176C51.4444 53.176 51.1964 53.24 50.9724 53.368C50.7484 53.496 50.5698 53.6827 50.4364 53.928C50.3031 54.1733 50.2364 54.4613 50.2364 54.792C50.2364 55.128 50.3031 55.4213 50.4364 55.672C50.5698 55.9173 50.7484 56.1067 50.9724 56.24C51.1964 56.368 51.4444 56.432 51.7164 56.432C51.9884 56.432 52.2364 56.368 52.4604 56.24C52.6898 56.1067 52.8711 55.9173 53.0044 55.672C53.1378 55.4213 53.2044 55.1307 53.2044 54.8ZM55.8987 51.08V57H55.1707V51.08H55.8987ZM62.4114 52.536C62.7528 52.536 63.0568 52.608 63.3234 52.752C63.5901 52.8907 63.8008 53.1013 63.9554 53.384C64.1101 53.6667 64.1874 54.0107 64.1874 54.416V57H63.4674V54.52C63.4674 54.0827 63.3581 53.7493 63.1394 53.52C62.9261 53.2853 62.6354 53.168 62.2674 53.168C61.8888 53.168 61.5874 53.2907 61.3634 53.536C61.1394 53.776 61.0274 54.1253 61.0274 54.584V57H60.3074V54.52C60.3074 54.0827 60.1981 53.7493 59.9794 53.52C59.7661 53.2853 59.4754 53.168 59.1074 53.168C58.7288 53.168 58.4274 53.2907 58.2034 53.536C57.9794 53.776 57.8674 54.1253 57.8674 54.584V57H57.1394V52.616H57.8674V53.248C58.0114 53.0187 58.2034 52.8427 58.4434 52.72C58.6888 52.5973 58.9581 52.536 59.2514 52.536C59.6194 52.536 59.9448 52.6187 60.2274 52.784C60.5101 52.9493 60.7208 53.192 60.8594 53.512C60.9821 53.2027 61.1848 52.9627 61.4674 52.792C61.7501 52.6213 62.0648 52.536 62.4114 52.536ZM69.2696 52.616V57H68.5416V56.352C68.403 56.576 68.2083 56.752 67.9576 56.88C67.7123 57.0027 67.4403 57.064 67.1416 57.064C66.8003 57.064 66.4936 56.9947 66.2216 56.856C65.9496 56.712 65.7336 56.4987 65.5736 56.216C65.419 55.9333 65.3416 55.5893 65.3416 55.184V52.616H66.0616V55.088C66.0616 55.52 66.171 55.8533 66.3896 56.088C66.6083 56.3173 66.907 56.432 67.2856 56.432C67.675 56.432 67.9816 56.312 68.2056 56.072C68.4296 55.832 68.5416 55.4827 68.5416 55.024V52.616H69.2696ZM76.5196 52.616V57H75.7916V56.352C75.653 56.576 75.4583 56.752 75.2076 56.88C74.9623 57.0027 74.6903 57.064 74.3916 57.064C74.0503 57.064 73.7436 56.9947 73.4716 56.856C73.1996 56.712 72.9836 56.4987 72.8236 56.216C72.669 55.9333 72.5916 55.5893 72.5916 55.184V52.616H73.3116V55.088C73.3116 55.52 73.421 55.8533 73.6396 56.088C73.8583 56.3173 74.157 56.432 74.5356 56.432C74.925 56.432 75.2316 56.312 75.4556 56.072C75.6796 55.832 75.7916 55.4827 75.7916 55.024V52.616H76.5196ZM79.8848 52.536C80.4181 52.536 80.8501 52.6987 81.1808 53.024C81.5115 53.344 81.6768 53.808 81.6768 54.416V57H80.9568V54.52C80.9568 54.0827 80.8475 53.7493 80.6288 53.52C80.4101 53.2853 80.1115 53.168 79.7328 53.168C79.3488 53.168 79.0421 53.288 78.8128 53.528C78.5888 53.768 78.4768 54.1173 78.4768 54.576V57H77.7488V52.616H78.4768V53.24C78.6208 53.016 78.8155 52.8427 79.0608 52.72C79.3115 52.5973 79.5861 52.536 79.8848 52.536ZM83.754 53.216V55.8C83.754 56.0133 83.7993 56.1653 83.89 56.256C83.9807 56.3413 84.138 56.384 84.362 56.384H84.898V57H84.242C83.8367 57 83.5327 56.9067 83.33 56.72C83.1273 56.5333 83.026 56.2267 83.026 55.8V53.216H82.458V52.616H83.026V51.512H83.754V52.616H84.898V53.216H83.754ZM89.6681 52.616V57H88.9401V56.352C88.8014 56.576 88.6067 56.752 88.3561 56.88C88.1107 57.0027 87.8387 57.064 87.5401 57.064C87.1987 57.064 86.8921 56.9947 86.6201 56.856C86.3481 56.712 86.1321 56.4987 85.9721 56.216C85.8174 55.9333 85.7401 55.5893 85.7401 55.184V52.616H86.4601V55.088C86.4601 55.52 86.5694 55.8533 86.7881 56.088C87.0067 56.3173 87.3054 56.432 87.6841 56.432C88.0734 56.432 88.3801 56.312 88.6041 56.072C88.8281 55.832 88.9401 55.4827 88.9401 55.024V52.616H89.6681ZM93.3453 57L91.6253 55.064V57H90.8973V51.08H91.6253V54.56L93.3133 52.616H94.3293L92.2653 54.8L94.3373 57H93.3453ZM96.3098 52.432V51.16H98.5258V57H97.1018V52.432H96.3098ZM102.238 57L101.382 55.76L100.662 57H99.1816L100.654 54.72L99.1416 52.536H100.678L101.534 53.768L102.254 52.536H103.734L102.238 54.784L103.774 57H102.238ZM107.364 53.168C107.497 52.96 107.681 52.792 107.916 52.664C108.151 52.536 108.425 52.472 108.74 52.472C109.108 52.472 109.441 52.5653 109.74 52.752C110.039 52.9387 110.273 53.2053 110.444 53.552C110.62 53.8987 110.708 54.3013 110.708 54.76C110.708 55.2187 110.62 55.624 110.444 55.976C110.273 56.3227 110.039 56.592 109.74 56.784C109.441 56.9707 109.108 57.064 108.74 57.064C108.431 57.064 108.156 57 107.916 56.872C107.681 56.744 107.497 56.5787 107.364 56.376V59.128H105.996V52.536H107.364V53.168ZM109.316 54.76C109.316 54.4187 109.22 54.152 109.028 53.96C108.841 53.7627 108.609 53.664 108.332 53.664C108.06 53.664 107.828 53.7627 107.636 53.96C107.449 54.1573 107.356 54.4267 107.356 54.768C107.356 55.1093 107.449 55.3787 107.636 55.576C107.828 55.7733 108.06 55.872 108.332 55.872C108.604 55.872 108.836 55.7733 109.028 55.576C109.22 55.3733 109.316 55.1013 109.316 54.76ZM115.634 54.696C115.634 54.824 115.626 54.9573 115.61 55.096H112.514C112.535 55.3733 112.623 55.5867 112.778 55.736C112.938 55.88 113.132 55.952 113.362 55.952C113.703 55.952 113.94 55.808 114.074 55.52H115.53C115.455 55.8133 115.319 56.0773 115.122 56.312C114.93 56.5467 114.687 56.7307 114.394 56.864C114.1 56.9973 113.772 57.064 113.41 57.064C112.972 57.064 112.583 56.9707 112.242 56.784C111.9 56.5973 111.634 56.3307 111.442 55.984C111.25 55.6373 111.154 55.232 111.154 54.768C111.154 54.304 111.247 53.8987 111.434 53.552C111.626 53.2053 111.892 52.9387 112.234 52.752C112.575 52.5653 112.967 52.472 113.41 52.472C113.842 52.472 114.226 52.5627 114.562 52.744C114.898 52.9253 115.159 53.184 115.346 53.52C115.538 53.856 115.634 54.248 115.634 54.696ZM114.234 54.336C114.234 54.1013 114.154 53.9147 113.994 53.776C113.834 53.6373 113.634 53.568 113.394 53.568C113.164 53.568 112.97 53.6347 112.81 53.768C112.655 53.9013 112.559 54.0907 112.522 54.336H114.234ZM117.723 53.28C117.883 53.0347 118.083 52.8427 118.323 52.704C118.563 52.56 118.83 52.488 119.123 52.488V53.936H118.747C118.406 53.936 118.15 54.0107 117.979 54.16C117.809 54.304 117.723 54.56 117.723 54.928V57H116.355V52.536H117.723V53.28ZM122.265 55.84V57H121.569C121.073 57 120.687 56.88 120.409 56.64C120.132 56.3947 119.993 55.9973 119.993 55.448V53.672H119.449V52.536H119.993V51.448H121.361V52.536H122.257V53.672H121.361V55.464C121.361 55.5973 121.393 55.6933 121.457 55.752C121.521 55.8107 121.628 55.84 121.777 55.84H122.265ZM127.235 54.696C127.235 54.824 127.227 54.9573 127.211 55.096H124.115C124.137 55.3733 124.225 55.5867 124.379 55.736C124.539 55.88 124.734 55.952 124.963 55.952C125.305 55.952 125.542 55.808 125.675 55.52H127.131C127.057 55.8133 126.921 56.0773 126.723 56.312C126.531 56.5467 126.289 56.7307 125.995 56.864C125.702 56.9973 125.374 57.064 125.011 57.064C124.574 57.064 124.185 56.9707 123.843 56.784C123.502 56.5973 123.235 56.3307 123.043 55.984C122.851 55.6373 122.755 55.232 122.755 54.768C122.755 54.304 122.849 53.8987 123.035 53.552C123.227 53.2053 123.494 52.9387 123.835 52.752C124.177 52.5653 124.569 52.472 125.011 52.472C125.443 52.472 125.827 52.5627 126.163 52.744C126.499 52.9253 126.761 53.184 126.947 53.52C127.139 53.856 127.235 54.248 127.235 54.696ZM125.835 54.336C125.835 54.1013 125.755 53.9147 125.595 53.776C125.435 53.6373 125.235 53.568 124.995 53.568C124.766 53.568 124.571 53.6347 124.411 53.768C124.257 53.9013 124.161 54.0907 124.123 54.336H125.835ZM133.653 52.488C134.208 52.488 134.648 52.656 134.973 52.992C135.304 53.328 135.469 53.7947 135.469 54.392V57H134.109V54.576C134.109 54.288 134.032 54.0667 133.877 53.912C133.728 53.752 133.52 53.672 133.253 53.672C132.986 53.672 132.776 53.752 132.621 53.912C132.472 54.0667 132.397 54.288 132.397 54.576V57H131.037V54.576C131.037 54.288 130.96 54.0667 130.805 53.912C130.656 53.752 130.448 53.672 130.181 53.672C129.914 53.672 129.704 53.752 129.549 53.912C129.4 54.0667 129.325 54.288 129.325 54.576V57H127.957V52.536H129.325V53.096C129.464 52.9093 129.645 52.7627 129.869 52.656C130.093 52.544 130.346 52.488 130.629 52.488C130.965 52.488 131.264 52.56 131.525 52.704C131.792 52.848 132 53.0533 132.149 53.32C132.304 53.0747 132.514 52.8747 132.781 52.72C133.048 52.5653 133.338 52.488 133.653 52.488ZM140.834 52.536V57H139.466V56.392C139.327 56.5893 139.138 56.7493 138.898 56.872C138.663 56.9893 138.402 57.048 138.114 57.048C137.772 57.048 137.471 56.9733 137.21 56.824C136.948 56.6693 136.746 56.448 136.602 56.16C136.458 55.872 136.386 55.5333 136.386 55.144V52.536H137.746V54.96C137.746 55.2587 137.823 55.4907 137.978 55.656C138.132 55.8213 138.34 55.904 138.602 55.904C138.868 55.904 139.079 55.8213 139.234 55.656C139.388 55.4907 139.466 55.2587 139.466 54.96V52.536H140.834ZM141.544 54.76C141.544 54.3013 141.63 53.8987 141.8 53.552C141.976 53.2053 142.214 52.9387 142.512 52.752C142.811 52.5653 143.144 52.472 143.512 52.472C143.827 52.472 144.102 52.536 144.336 52.664C144.576 52.792 144.76 52.96 144.888 53.168V52.536H146.256V57H144.888V56.368C144.755 56.576 144.568 56.744 144.328 56.872C144.094 57 143.819 57.064 143.504 57.064C143.142 57.064 142.811 56.9707 142.512 56.784C142.214 56.592 141.976 56.3227 141.8 55.976C141.63 55.624 141.544 55.2187 141.544 54.76ZM144.888 54.768C144.888 54.4267 144.792 54.1573 144.6 53.96C144.414 53.7627 144.184 53.664 143.912 53.664C143.64 53.664 143.408 53.7627 143.216 53.96C143.03 54.152 142.936 54.4187 142.936 54.76C142.936 55.1013 143.03 55.3733 143.216 55.576C143.408 55.7733 143.64 55.872 143.912 55.872C144.184 55.872 144.414 55.7733 144.6 55.576C144.792 55.3787 144.888 55.1093 144.888 54.768ZM149.966 52.488C150.489 52.488 150.905 52.6587 151.214 53C151.529 53.336 151.686 53.8 151.686 54.392V57H150.326V54.576C150.326 54.2773 150.249 54.0453 150.094 53.88C149.939 53.7147 149.731 53.632 149.47 53.632C149.209 53.632 149.001 53.7147 148.846 53.88C148.691 54.0453 148.614 54.2773 148.614 54.576V57H147.246V52.536H148.614V53.128C148.753 52.9307 148.939 52.776 149.174 52.664C149.409 52.5467 149.673 52.488 149.966 52.488ZM153.701 51.424L153.613 55.424H153.005L152.917 51.424H153.701ZM153.341 57.048C153.202 57.048 153.085 57 152.989 56.904C152.893 56.808 152.845 56.6907 152.845 56.552C152.845 56.4133 152.893 56.296 152.989 56.2C153.085 56.104 153.202 56.056 153.341 56.056C153.474 56.056 153.586 56.104 153.677 56.2C153.773 56.296 153.821 56.4133 153.821 56.552C153.821 56.6907 153.773 56.808 153.677 56.904C153.586 57 153.474 57.048 153.341 57.048ZM15.408 66.128C15.6107 66.16 15.7947 66.2427 15.96 66.376C16.1307 66.5093 16.264 66.6747 16.36 66.872C16.4613 67.0693 16.512 67.28 16.512 67.504C16.512 67.7867 16.44 68.0427 16.296 68.272C16.152 68.496 15.9413 68.6747 15.664 68.808C15.392 68.936 15.0693 69 14.696 69H12.616V63.424H14.616C14.9947 63.424 15.3173 63.488 15.584 63.616C15.8507 63.7387 16.0507 63.9067 16.184 64.12C16.3173 64.3333 16.384 64.5733 16.384 64.84C16.384 65.1707 16.2933 65.4453 16.112 65.664C15.936 65.8773 15.7013 66.032 15.408 66.128ZM13.344 65.832H14.568C14.9093 65.832 15.1733 65.752 15.36 65.592C15.5467 65.432 15.64 65.2107 15.64 64.928C15.64 64.6453 15.5467 64.424 15.36 64.264C15.1733 64.104 14.904 64.024 14.552 64.024H13.344V65.832ZM14.632 68.4C14.9947 68.4 15.2773 68.3147 15.48 68.144C15.6827 67.9733 15.784 67.736 15.784 67.432C15.784 67.1227 15.6773 66.88 15.464 66.704C15.2507 66.5227 14.9653 66.432 14.608 66.432H13.344V68.4H14.632ZM21.4103 64.616V69H20.6823V68.352C20.5436 68.576 20.3489 68.752 20.0983 68.88C19.8529 69.0027 19.5809 69.064 19.2823 69.064C18.9409 69.064 18.6343 68.9947 18.3623 68.856C18.0903 68.712 17.8743 68.4987 17.7143 68.216C17.5596 67.9333 17.4823 67.5893 17.4823 67.184V64.616H18.2023V67.088C18.2023 67.52 18.3116 67.8533 18.5303 68.088C18.7489 68.3173 19.0476 68.432 19.4263 68.432C19.8156 68.432 20.1223 68.312 20.3463 68.072C20.5703 67.832 20.6823 67.4827 20.6823 67.024V64.616H21.4103ZM22.3674 66.792C22.3674 66.344 22.4581 65.952 22.6394 65.616C22.8208 65.2747 23.0688 65.0107 23.3834 64.824C23.7034 64.6373 24.0581 64.544 24.4474 64.544C24.8314 64.544 25.1648 64.6267 25.4474 64.792C25.7301 64.9573 25.9408 65.1653 26.0794 65.416V64.616H26.8154V69H26.0794V68.184C25.9354 68.44 25.7194 68.6533 25.4314 68.824C25.1488 68.9893 24.8181 69.072 24.4394 69.072C24.0501 69.072 23.6981 68.976 23.3834 68.784C23.0688 68.592 22.8208 68.3227 22.6394 67.976C22.4581 67.6293 22.3674 67.2347 22.3674 66.792ZM26.0794 66.8C26.0794 66.4693 26.0128 66.1813 25.8794 65.936C25.7461 65.6907 25.5648 65.504 25.3354 65.376C25.1114 65.2427 24.8634 65.176 24.5914 65.176C24.3194 65.176 24.0714 65.24 23.8474 65.368C23.6234 65.496 23.4448 65.6827 23.3114 65.928C23.1781 66.1733 23.1114 66.4613 23.1114 66.792C23.1114 67.128 23.1781 67.4213 23.3114 67.672C23.4448 67.9173 23.6234 68.1067 23.8474 68.24C24.0714 68.368 24.3194 68.432 24.5914 68.432C24.8634 68.432 25.1114 68.368 25.3354 68.24C25.5648 68.1067 25.7461 67.9173 25.8794 67.672C26.0128 67.4213 26.0794 67.1307 26.0794 66.8ZM28.9337 65.216V67.8C28.9337 68.0133 28.979 68.1653 29.0697 68.256C29.1604 68.3413 29.3177 68.384 29.5417 68.384H30.0777V69H29.4217C29.0164 69 28.7124 68.9067 28.5097 68.72C28.307 68.5333 28.2057 68.2267 28.2057 67.8V65.216H27.6377V64.616H28.2057V63.512H28.9337V64.616H30.0777V65.216H28.9337ZM33.8206 65.432C33.9699 65.1707 34.1886 64.9573 34.4766 64.792C34.7646 64.6267 35.0926 64.544 35.4606 64.544C35.8552 64.544 36.2099 64.6373 36.5246 64.824C36.8392 65.0107 37.0872 65.2747 37.2686 65.616C37.4499 65.952 37.5406 66.344 37.5406 66.792C37.5406 67.2347 37.4499 67.6293 37.2686 67.976C37.0872 68.3227 36.8366 68.592 36.5166 68.784C36.2019 68.976 35.8499 69.072 35.4606 69.072C35.0819 69.072 34.7486 68.9893 34.4606 68.824C34.1779 68.6587 33.9646 68.448 33.8206 68.192V69H33.0926V63.08H33.8206V65.432ZM36.7966 66.792C36.7966 66.4613 36.7299 66.1733 36.5966 65.928C36.4632 65.6827 36.2819 65.496 36.0526 65.368C35.8286 65.24 35.5806 65.176 35.3086 65.176C35.0419 65.176 34.7939 65.2427 34.5646 65.376C34.3406 65.504 34.1592 65.6933 34.0206 65.944C33.8872 66.1893 33.8206 66.4747 33.8206 66.8C33.8206 67.1307 33.8872 67.4213 34.0206 67.672C34.1592 67.9173 34.3406 68.1067 34.5646 68.24C34.7939 68.368 35.0419 68.432 35.3086 68.432C35.5806 68.432 35.8286 68.368 36.0526 68.24C36.2819 68.1067 36.4632 67.9173 36.5966 67.672C36.7299 67.4213 36.7966 67.128 36.7966 66.792ZM42.4988 66.64C42.4988 66.7787 42.4908 66.9253 42.4748 67.08H38.9708C38.9975 67.512 39.1441 67.8507 39.4108 68.096C39.6828 68.336 40.0108 68.456 40.3948 68.456C40.7095 68.456 40.9708 68.384 41.1788 68.24C41.3921 68.0907 41.5415 67.8933 41.6268 67.648H42.4108C42.2935 68.0693 42.0588 68.4133 41.7068 68.68C41.3548 68.9413 40.9175 69.072 40.3948 69.072C39.9788 69.072 39.6055 68.9787 39.2748 68.792C38.9495 68.6053 38.6935 68.3413 38.5068 68C38.3201 67.6533 38.2268 67.2533 38.2268 66.8C38.2268 66.3467 38.3175 65.9493 38.4988 65.608C38.6801 65.2667 38.9335 65.0053 39.2588 64.824C39.5895 64.6373 39.9681 64.544 40.3948 64.544C40.8108 64.544 41.1788 64.6347 41.4988 64.816C41.8188 64.9973 42.0641 65.248 42.2348 65.568C42.4108 65.8827 42.4988 66.24 42.4988 66.64ZM41.7468 66.488C41.7468 66.2107 41.6855 65.9733 41.5628 65.776C41.4401 65.5733 41.2721 65.4213 41.0588 65.32C40.8508 65.2133 40.6188 65.16 40.3628 65.16C39.9948 65.16 39.6801 65.2773 39.4188 65.512C39.1628 65.7467 39.0161 66.072 38.9788 66.488H41.7468ZM44.1878 63.08V69H43.4598V63.08H44.1878ZM45.1565 66.792C45.1565 66.344 45.2472 65.952 45.4285 65.616C45.6098 65.2747 45.8578 65.0107 46.1725 64.824C46.4925 64.6373 46.8472 64.544 47.2365 64.544C47.6205 64.544 47.9538 64.6267 48.2365 64.792C48.5192 64.9573 48.7298 65.1653 48.8685 65.416V64.616H49.6045V69H48.8685V68.184C48.7245 68.44 48.5085 68.6533 48.2205 68.824C47.9378 68.9893 47.6072 69.072 47.2285 69.072C46.8392 69.072 46.4872 68.976 46.1725 68.784C45.8578 68.592 45.6098 68.3227 45.4285 67.976C45.2472 67.6293 45.1565 67.2347 45.1565 66.792ZM48.8685 66.8C48.8685 66.4693 48.8018 66.1813 48.6685 65.936C48.5352 65.6907 48.3538 65.504 48.1245 65.376C47.9005 65.2427 47.6525 65.176 47.3805 65.176C47.1085 65.176 46.8605 65.24 46.6365 65.368C46.4125 65.496 46.2338 65.6827 46.1005 65.928C45.9672 66.1733 45.9005 66.4613 45.9005 66.792C45.9005 67.128 45.9672 67.4213 46.1005 67.672C46.2338 67.9173 46.4125 68.1067 46.6365 68.24C46.8605 68.368 47.1085 68.432 47.3805 68.432C47.6525 68.432 47.9005 68.368 48.1245 68.24C48.3538 68.1067 48.5352 67.9173 48.6685 67.672C48.8018 67.4213 48.8685 67.1307 48.8685 66.8ZM51.2268 63.904C51.0881 63.904 50.9708 63.856 50.8748 63.76C50.7841 63.664 50.7388 63.5467 50.7388 63.408C50.7388 63.2693 50.7841 63.152 50.8748 63.056C50.9708 62.96 51.0881 62.912 51.2268 62.912C51.3654 62.912 51.4801 62.96 51.5708 63.056C51.6668 63.152 51.7148 63.2693 51.7148 63.408C51.7148 63.5467 51.6668 63.664 51.5708 63.76C51.4801 63.856 51.3654 63.904 51.2268 63.904ZM51.5868 69.952C51.5868 70.3413 51.4881 70.6267 51.2908 70.808C51.0934 70.9893 50.8054 71.08 50.4268 71.08H50.0027V70.464H50.3068C50.5094 70.464 50.6508 70.424 50.7308 70.344C50.8161 70.264 50.8588 70.128 50.8588 69.936V64.616H51.5868V69.952ZM52.5471 66.792C52.5471 66.344 52.6378 65.952 52.8191 65.616C53.0005 65.2747 53.2485 65.0107 53.5631 64.824C53.8831 64.6373 54.2378 64.544 54.6271 64.544C55.0111 64.544 55.3445 64.6267 55.6271 64.792C55.9098 64.9573 56.1205 65.1653 56.2591 65.416V64.616H56.9951V69H56.2591V68.184C56.1151 68.44 55.8991 68.6533 55.6111 68.824C55.3285 68.9893 54.9978 69.072 54.6191 69.072C54.2298 69.072 53.8778 68.976 53.5631 68.784C53.2485 68.592 53.0005 68.3227 52.8191 67.976C52.6378 67.6293 52.5471 67.2347 52.5471 66.792ZM56.2591 66.8C56.2591 66.4693 56.1925 66.1813 56.0591 65.936C55.9258 65.6907 55.7445 65.504 55.5151 65.376C55.2911 65.2427 55.0431 65.176 54.7711 65.176C54.4991 65.176 54.2511 65.24 54.0271 65.368C53.8031 65.496 53.6245 65.6827 53.4911 65.928C53.3578 66.1733 53.2911 66.4613 53.2911 66.792C53.2911 67.128 53.3578 67.4213 53.4911 67.672C53.6245 67.9173 53.8031 68.1067 54.0271 68.24C54.2511 68.368 54.4991 68.432 54.7711 68.432C55.0431 68.432 55.2911 68.368 55.5151 68.24C55.7445 68.1067 55.9258 67.9173 56.0591 67.672C56.1925 67.4213 56.2591 67.1307 56.2591 66.8ZM58.9534 65.328C59.0814 65.0773 59.2627 64.8827 59.4974 64.744C59.7374 64.6053 60.028 64.536 60.3694 64.536V65.288H60.1774C59.3614 65.288 58.9534 65.7307 58.9534 66.616V69H58.2254V64.616H58.9534V65.328ZM66.4818 64.536C66.8231 64.536 67.1271 64.608 67.3938 64.752C67.6604 64.8907 67.8711 65.1013 68.0258 65.384C68.1804 65.6667 68.2578 66.0107 68.2578 66.416V69H67.5378V66.52C67.5378 66.0827 67.4284 65.7493 67.2098 65.52C66.9964 65.2853 66.7058 65.168 66.3378 65.168C65.9591 65.168 65.6578 65.2907 65.4338 65.536C65.2098 65.776 65.0978 66.1253 65.0978 66.584V69H64.3778V66.52C64.3778 66.0827 64.2684 65.7493 64.0498 65.52C63.8364 65.2853 63.5458 65.168 63.1778 65.168C62.7991 65.168 62.4978 65.2907 62.2738 65.536C62.0498 65.776 61.9378 66.1253 61.9378 66.584V69H61.2098V64.616H61.9378V65.248C62.0818 65.0187 62.2738 64.8427 62.5138 64.72C62.7591 64.5973 63.0284 64.536 63.3218 64.536C63.6898 64.536 64.0151 64.6187 64.2978 64.784C64.5804 64.9493 64.7911 65.192 64.9298 65.512C65.0524 65.2027 65.2551 64.9627 65.5378 64.792C65.8204 64.6213 66.1351 64.536 66.4818 64.536ZM73.3399 64.616V69H72.6119V68.352C72.4733 68.576 72.2786 68.752 72.0279 68.88C71.7826 69.0027 71.5106 69.064 71.2119 69.064C70.8706 69.064 70.5639 68.9947 70.2919 68.856C70.0199 68.712 69.8039 68.4987 69.6439 68.216C69.4893 67.9333 69.4119 67.5893 69.4119 67.184V64.616H70.1319V67.088C70.1319 67.52 70.2413 67.8533 70.4599 68.088C70.6786 68.3173 70.9773 68.432 71.3559 68.432C71.7453 68.432 72.0519 68.312 72.2759 68.072C72.4999 67.832 72.6119 67.4827 72.6119 67.024V64.616H73.3399ZM77.0939 63.904C76.9553 63.904 76.8379 63.856 76.7419 63.76C76.6513 63.664 76.6059 63.5467 76.6059 63.408C76.6059 63.2693 76.6513 63.152 76.7419 63.056C76.8379 62.96 76.9553 62.912 77.0939 62.912C77.2326 62.912 77.3473 62.96 77.4379 63.056C77.5339 63.152 77.5819 63.2693 77.5819 63.408C77.5819 63.5467 77.5339 63.664 77.4379 63.76C77.3473 63.856 77.2326 63.904 77.0939 63.904ZM77.4539 69.952C77.4539 70.3413 77.3553 70.6267 77.1579 70.808C76.9606 70.9893 76.6726 71.08 76.2939 71.08H75.8699V70.464H76.1739C76.3766 70.464 76.5179 70.424 76.5979 70.344C76.6833 70.264 76.7259 70.128 76.7259 69.936V64.616H77.4539V69.952ZM78.4143 66.792C78.4143 66.344 78.505 65.952 78.6863 65.616C78.8676 65.2747 79.1156 65.0107 79.4303 64.824C79.7503 64.6373 80.105 64.544 80.4943 64.544C80.8783 64.544 81.2116 64.6267 81.4943 64.792C81.777 64.9573 81.9876 65.1653 82.1263 65.416V64.616H82.8623V69H82.1263V68.184C81.9823 68.44 81.7663 68.6533 81.4783 68.824C81.1956 68.9893 80.865 69.072 80.4863 69.072C80.097 69.072 79.745 68.976 79.4303 68.784C79.1156 68.592 78.8676 68.3227 78.6863 67.976C78.505 67.6293 78.4143 67.2347 78.4143 66.792ZM82.1263 66.8C82.1263 66.4693 82.0596 66.1813 81.9263 65.936C81.793 65.6907 81.6116 65.504 81.3823 65.376C81.1583 65.2427 80.9103 65.176 80.6383 65.176C80.3663 65.176 80.1183 65.24 79.8943 65.368C79.6703 65.496 79.4916 65.6827 79.3583 65.928C79.225 66.1733 79.1583 66.4613 79.1583 66.792C79.1583 67.128 79.225 67.4213 79.3583 67.672C79.4916 67.9173 79.6703 68.1067 79.8943 68.24C80.1183 68.368 80.3663 68.432 80.6383 68.432C80.9103 68.432 81.1583 68.368 81.3823 68.24C81.6116 68.1067 81.793 67.9173 81.9263 67.672C82.0596 67.4213 82.1263 67.1307 82.1263 66.8ZM83.8206 66.792C83.8206 66.344 83.9112 65.952 84.0926 65.616C84.2739 65.2747 84.5219 65.0107 84.8366 64.824C85.1566 64.6373 85.5139 64.544 85.9086 64.544C86.2499 64.544 86.5672 64.624 86.8606 64.784C87.1539 64.9387 87.3779 65.144 87.5326 65.4V63.08H88.2686V69H87.5326V68.176C87.3886 68.4373 87.1752 68.6533 86.8926 68.824C86.6099 68.9893 86.2792 69.072 85.9006 69.072C85.5112 69.072 85.1566 68.976 84.8366 68.784C84.5219 68.592 84.2739 68.3227 84.0926 67.976C83.9112 67.6293 83.8206 67.2347 83.8206 66.792ZM87.5326 66.8C87.5326 66.4693 87.4659 66.1813 87.3326 65.936C87.1992 65.6907 87.0179 65.504 86.7886 65.376C86.5646 65.2427 86.3166 65.176 86.0446 65.176C85.7726 65.176 85.5246 65.24 85.3006 65.368C85.0766 65.496 84.8979 65.6827 84.7646 65.928C84.6312 66.1733 84.5646 66.4613 84.5646 66.792C84.5646 67.128 84.6312 67.4213 84.7646 67.672C84.8979 67.9173 85.0766 68.1067 85.3006 68.24C85.5246 68.368 85.7726 68.432 86.0446 68.432C86.3166 68.432 86.5646 68.368 86.7886 68.24C87.0179 68.1067 87.1992 67.9173 87.3326 67.672C87.4659 67.4213 87.5326 67.1307 87.5326 66.8ZM89.8748 63.904C89.7361 63.904 89.6188 63.856 89.5228 63.76C89.4268 63.664 89.3788 63.5467 89.3788 63.408C89.3788 63.2693 89.4268 63.152 89.5228 63.056C89.6188 62.96 89.7361 62.912 89.8748 62.912C90.0081 62.912 90.1201 62.96 90.2108 63.056C90.3068 63.152 90.3548 63.2693 90.3548 63.408C90.3548 63.5467 90.3068 63.664 90.2108 63.76C90.1201 63.856 90.0081 63.904 89.8748 63.904ZM90.2268 64.616V69H89.4988V64.616H90.2268ZM94.3284 63.08V69H93.6004V63.08H94.3284ZM99.5691 66.64C99.5691 66.7787 99.5611 66.9253 99.5451 67.08H96.0411C96.0678 67.512 96.2145 67.8507 96.4811 68.096C96.7531 68.336 97.0811 68.456 97.4651 68.456C97.7798 68.456 98.0411 68.384 98.2491 68.24C98.4625 68.0907 98.6118 67.8933 98.6971 67.648H99.4811C99.3638 68.0693 99.1291 68.4133 98.7771 68.68C98.4251 68.9413 97.9878 69.072 97.4651 69.072C97.0491 69.072 96.6758 68.9787 96.3451 68.792C96.0198 68.6053 95.7638 68.3413 95.5771 68C95.3905 67.6533 95.2971 67.2533 95.2971 66.8C95.2971 66.3467 95.3878 65.9493 95.5691 65.608C95.7505 65.2667 96.0038 65.0053 96.3291 64.824C96.6598 64.6373 97.0385 64.544 97.4651 64.544C97.8811 64.544 98.2491 64.6347 98.5691 64.816C98.8891 64.9973 99.1345 65.248 99.3051 65.568C99.4811 65.8827 99.5691 66.24 99.5691 66.64ZM98.8171 66.488C98.8171 66.2107 98.7558 65.9733 98.6331 65.776C98.5105 65.5733 98.3425 65.4213 98.1291 65.32C97.9211 65.2133 97.6891 65.16 97.4331 65.16C97.0651 65.16 96.7505 65.2773 96.4891 65.512C96.2331 65.7467 96.0865 66.072 96.0491 66.488H98.8171ZM101.258 65.432C101.407 65.1707 101.626 64.9573 101.914 64.792C102.202 64.6267 102.53 64.544 102.898 64.544C103.293 64.544 103.647 64.6373 103.962 64.824C104.277 65.0107 104.525 65.2747 104.706 65.616C104.887 65.952 104.978 66.344 104.978 66.792C104.978 67.2347 104.887 67.6293 104.706 67.976C104.525 68.3227 104.274 68.592 103.954 68.784C103.639 68.976 103.287 69.072 102.898 69.072C102.519 69.072 102.186 68.9893 101.898 68.824C101.615 68.6587 101.402 68.448 101.258 68.192V69H100.53V63.08H101.258V65.432ZM104.234 66.792C104.234 66.4613 104.167 66.1733 104.034 65.928C103.901 65.6827 103.719 65.496 103.49 65.368C103.266 65.24 103.018 65.176 102.746 65.176C102.479 65.176 102.231 65.2427 102.002 65.376C101.778 65.504 101.597 65.6933 101.458 65.944C101.325 66.1893 101.258 66.4747 101.258 66.8C101.258 67.1307 101.325 67.4213 101.458 67.672C101.597 67.9173 101.778 68.1067 102.002 68.24C102.231 68.368 102.479 68.432 102.746 68.432C103.018 68.432 103.266 68.368 103.49 68.24C103.719 68.1067 103.901 67.9173 104.034 67.672C104.167 67.4213 104.234 67.128 104.234 66.792ZM106.312 63.904C106.174 63.904 106.056 63.856 105.96 63.76C105.864 63.664 105.816 63.5467 105.816 63.408C105.816 63.2693 105.864 63.152 105.96 63.056C106.056 62.96 106.174 62.912 106.312 62.912C106.446 62.912 106.558 62.96 106.648 63.056C106.744 63.152 106.792 63.2693 106.792 63.408C106.792 63.5467 106.744 63.664 106.648 63.76C106.558 63.856 106.446 63.904 106.312 63.904ZM106.664 64.616V69H105.936V64.616H106.664ZM110.081 64.536C110.412 64.536 110.71 64.608 110.977 64.752C111.244 64.8907 111.452 65.1013 111.601 65.384C111.756 65.6667 111.833 66.0107 111.833 66.416V69H111.113V66.52C111.113 66.0827 111.004 65.7493 110.785 65.52C110.566 65.2853 110.268 65.168 109.889 65.168C109.505 65.168 109.198 65.288 108.969 65.528C108.745 65.768 108.633 66.1173 108.633 66.576V69H107.905V63.08H108.633V65.24C108.777 65.016 108.974 64.8427 109.225 64.72C109.481 64.5973 109.766 64.536 110.081 64.536ZM116.939 65.216H116.019V69H115.291V65.216H114.723V64.616H115.291V64.304C115.291 63.8133 115.416 63.456 115.667 63.232C115.923 63.0027 116.331 62.888 116.891 62.888V63.496C116.571 63.496 116.344 63.56 116.211 63.688C116.083 63.8107 116.019 64.016 116.019 64.304V64.616H116.939V65.216ZM119.7 69.072C119.289 69.072 118.916 68.9787 118.58 68.792C118.249 68.6053 117.988 68.3413 117.796 68C117.609 67.6533 117.516 67.2533 117.516 66.8C117.516 66.352 117.612 65.9573 117.804 65.616C118.001 65.2693 118.268 65.0053 118.604 64.824C118.94 64.6373 119.316 64.544 119.732 64.544C120.148 64.544 120.524 64.6373 120.86 64.824C121.196 65.0053 121.46 65.2667 121.652 65.608C121.849 65.9493 121.948 66.3467 121.948 66.8C121.948 67.2533 121.847 67.6533 121.644 68C121.447 68.3413 121.177 68.6053 120.836 68.792C120.495 68.9787 120.116 69.072 119.7 69.072ZM119.7 68.432C119.961 68.432 120.207 68.3707 120.436 68.248C120.665 68.1253 120.849 67.9413 120.988 67.696C121.132 67.4507 121.204 67.152 121.204 66.8C121.204 66.448 121.135 66.1493 120.996 65.904C120.857 65.6587 120.676 65.4773 120.452 65.36C120.228 65.2373 119.985 65.176 119.724 65.176C119.457 65.176 119.212 65.2373 118.988 65.36C118.769 65.4773 118.593 65.6587 118.46 65.904C118.327 66.1493 118.26 66.448 118.26 66.8C118.26 67.1573 118.324 67.4587 118.452 67.704C118.585 67.9493 118.761 68.1333 118.98 68.256C119.199 68.3733 119.439 68.432 119.7 68.432ZM125.353 69L123.633 67.064V69H122.905V63.08H123.633V66.56L125.321 64.616H126.337L124.273 66.8L126.345 69H125.353ZM130.91 64.616V69H130.182V68.352C130.044 68.576 129.849 68.752 129.598 68.88C129.353 69.0027 129.081 69.064 128.782 69.064C128.441 69.064 128.134 68.9947 127.862 68.856C127.59 68.712 127.374 68.4987 127.214 68.216C127.06 67.9333 126.982 67.5893 126.982 67.184V64.616H127.702V67.088C127.702 67.52 127.812 67.8533 128.03 68.088C128.249 68.3173 128.548 68.432 128.926 68.432C129.316 68.432 129.622 68.312 129.846 68.072C130.07 67.832 130.182 67.4827 130.182 67.024V64.616H130.91ZM133.691 69.072C133.355 69.072 133.054 69.016 132.787 68.904C132.521 68.7867 132.31 68.6267 132.155 68.424C132.001 68.216 131.915 67.9787 131.899 67.712H132.651C132.673 67.9307 132.774 68.1093 132.955 68.248C133.142 68.3867 133.385 68.456 133.683 68.456C133.961 68.456 134.179 68.3947 134.339 68.272C134.499 68.1493 134.579 67.9947 134.579 67.808C134.579 67.616 134.494 67.4747 134.323 67.384C134.153 67.288 133.889 67.1947 133.531 67.104C133.206 67.0187 132.939 66.9333 132.731 66.848C132.529 66.7573 132.353 66.6267 132.203 66.456C132.059 66.28 131.987 66.0507 131.987 65.768C131.987 65.544 132.054 65.3387 132.187 65.152C132.321 64.9653 132.51 64.8187 132.755 64.712C133.001 64.6 133.281 64.544 133.595 64.544C134.081 64.544 134.473 64.6667 134.771 64.912C135.07 65.1573 135.23 65.4933 135.251 65.92H134.523C134.507 65.6907 134.414 65.5067 134.243 65.368C134.078 65.2293 133.854 65.16 133.571 65.16C133.31 65.16 133.102 65.216 132.947 65.328C132.793 65.44 132.715 65.5867 132.715 65.768C132.715 65.912 132.761 66.032 132.851 66.128C132.947 66.2187 133.065 66.2933 133.203 66.352C133.347 66.4053 133.545 66.4667 133.795 66.536C134.11 66.6213 134.366 66.7067 134.563 66.792C134.761 66.872 134.929 66.9947 135.067 67.16C135.211 67.3253 135.286 67.5413 135.291 67.808C135.291 68.048 135.225 68.264 135.091 68.456C134.958 68.648 134.769 68.8 134.523 68.912C134.283 69.0187 134.006 69.072 133.691 69.072ZM142.34 64.616V69H141.612V68.352C141.473 68.576 141.279 68.752 141.028 68.88C140.783 69.0027 140.511 69.064 140.212 69.064C139.871 69.064 139.564 68.9947 139.292 68.856C139.02 68.712 138.804 68.4987 138.644 68.216C138.489 67.9333 138.412 67.5893 138.412 67.184V64.616H139.132V67.088C139.132 67.52 139.241 67.8533 139.46 68.088C139.679 68.3173 139.977 68.432 140.356 68.432C140.745 68.432 141.052 68.312 141.276 68.072C141.5 67.832 141.612 67.4827 141.612 67.024V64.616H142.34ZM145.705 64.536C146.238 64.536 146.67 64.6987 147.001 65.024C147.332 65.344 147.497 65.808 147.497 66.416V69H146.777V66.52C146.777 66.0827 146.668 65.7493 146.449 65.52C146.23 65.2853 145.932 65.168 145.553 65.168C145.169 65.168 144.862 65.288 144.633 65.528C144.409 65.768 144.297 66.1173 144.297 66.576V69H143.569V64.616H144.297V65.24C144.441 65.016 144.636 64.8427 144.881 64.72C145.132 64.5973 145.406 64.536 145.705 64.536ZM149.574 65.216V67.8C149.574 68.0133 149.62 68.1653 149.71 68.256C149.801 68.3413 149.958 68.384 150.182 68.384H150.718V69H150.062C149.657 69 149.353 68.9067 149.15 68.72C148.948 68.5333 148.846 68.2267 148.846 67.8V65.216H148.278V64.616H148.846V63.512H149.574V64.616H150.718V65.216H149.574ZM155.488 64.616V69H154.76V68.352C154.622 68.576 154.427 68.752 154.176 68.88C153.931 69.0027 153.659 69.064 153.36 69.064C153.019 69.064 152.712 68.9947 152.44 68.856C152.168 68.712 151.952 68.4987 151.792 68.216C151.638 67.9333 151.56 67.5893 151.56 67.184V64.616H152.28V67.088C152.28 67.52 152.39 67.8533 152.608 68.088C152.827 68.3173 153.126 68.432 153.504 68.432C153.894 68.432 154.2 68.312 154.424 68.072C154.648 67.832 154.76 67.4827 154.76 67.024V64.616H155.488ZM159.166 69L157.446 67.064V69H156.718V63.08H157.446V66.56L159.134 64.616H160.15L158.086 66.8L160.158 69H159.166ZM17.888 76.536C18.2293 76.536 18.5333 76.608 18.8 76.752C19.0667 76.8907 19.2773 77.1013 19.432 77.384C19.5867 77.6667 19.664 78.0107 19.664 78.416V81H18.944V78.52C18.944 78.0827 18.8347 77.7493 18.616 77.52C18.4027 77.2853 18.112 77.168 17.744 77.168C17.3653 77.168 17.064 77.2907 16.84 77.536C16.616 77.776 16.504 78.1253 16.504 78.584V81H15.784V78.52C15.784 78.0827 15.6747 77.7493 15.456 77.52C15.2427 77.2853 14.952 77.168 14.584 77.168C14.2053 77.168 13.904 77.2907 13.68 77.536C13.456 77.776 13.344 78.1253 13.344 78.584V81H12.616V76.616H13.344V77.248C13.488 77.0187 13.68 76.8427 13.92 76.72C14.1653 76.5973 14.4347 76.536 14.728 76.536C15.096 76.536 15.4213 76.6187 15.704 76.784C15.9867 76.9493 16.1973 77.192 16.336 77.512C16.4587 77.2027 16.6613 76.9627 16.944 76.792C17.2267 76.6213 17.5413 76.536 17.888 76.536ZM20.5862 78.792C20.5862 78.344 20.6769 77.952 20.8582 77.616C21.0395 77.2747 21.2875 77.0107 21.6022 76.824C21.9222 76.6373 22.2769 76.544 22.6662 76.544C23.0502 76.544 23.3835 76.6267 23.6662 76.792C23.9489 76.9573 24.1595 77.1653 24.2982 77.416V76.616H25.0342V81H24.2982V80.184C24.1542 80.44 23.9382 80.6533 23.6502 80.824C23.3675 80.9893 23.0369 81.072 22.6582 81.072C22.2689 81.072 21.9169 80.976 21.6022 80.784C21.2875 80.592 21.0395 80.3227 20.8582 79.976C20.6769 79.6293 20.5862 79.2347 20.5862 78.792ZM24.2982 78.8C24.2982 78.4693 24.2315 78.1813 24.0982 77.936C23.9649 77.6907 23.7835 77.504 23.5542 77.376C23.3302 77.2427 23.0822 77.176 22.8102 77.176C22.5382 77.176 22.2902 77.24 22.0662 77.368C21.8422 77.496 21.6635 77.6827 21.5302 77.928C21.3969 78.1733 21.3302 78.4613 21.3302 78.792C21.3302 79.128 21.3969 79.4213 21.5302 79.672C21.6635 79.9173 21.8422 80.1067 22.0662 80.24C22.2902 80.368 22.5382 80.432 22.8102 80.432C23.0822 80.432 23.3302 80.368 23.5542 80.24C23.7835 80.1067 23.9649 79.9173 24.0982 79.672C24.2315 79.4213 24.2982 79.1307 24.2982 78.8ZM27.1524 77.216V79.8C27.1524 80.0133 27.1978 80.1653 27.2884 80.256C27.3791 80.3413 27.5364 80.384 27.7604 80.384H28.2964V81H27.6404C27.2351 81 26.9311 80.9067 26.7284 80.72C26.5258 80.5333 26.4244 80.2267 26.4244 79.8V77.216H25.8564V76.616H26.4244V75.512H27.1524V76.616H28.2964V77.216H27.1524ZM33.1785 78.64C33.1785 78.7787 33.1705 78.9253 33.1545 79.08H29.6505C29.6772 79.512 29.8238 79.8507 30.0905 80.096C30.3625 80.336 30.6905 80.456 31.0745 80.456C31.3892 80.456 31.6505 80.384 31.8585 80.24C32.0718 80.0907 32.2212 79.8933 32.3065 79.648H33.0905C32.9732 80.0693 32.7385 80.4133 32.3865 80.68C32.0345 80.9413 31.5972 81.072 31.0745 81.072C30.6585 81.072 30.2852 80.9787 29.9545 80.792C29.6292 80.6053 29.3732 80.3413 29.1865 80C28.9998 79.6533 28.9065 79.2533 28.9065 78.8C28.9065 78.3467 28.9972 77.9493 29.1785 77.608C29.3598 77.2667 29.6132 77.0053 29.9385 76.824C30.2692 76.6373 30.6478 76.544 31.0745 76.544C31.4905 76.544 31.8585 76.6347 32.1785 76.816C32.4985 76.9973 32.7438 77.248 32.9145 77.568C33.0905 77.8827 33.1785 78.24 33.1785 78.64ZM32.4265 78.488C32.4265 78.2107 32.3652 77.9733 32.2425 77.776C32.1198 77.5733 31.9518 77.4213 31.7385 77.32C31.5305 77.2133 31.2985 77.16 31.0425 77.16C30.6745 77.16 30.3598 77.2773 30.0985 77.512C29.8425 77.7467 29.6958 78.072 29.6585 78.488H32.4265ZM34.8674 77.328C34.9954 77.0773 35.1768 76.8827 35.4114 76.744C35.6514 76.6053 35.9421 76.536 36.2834 76.536V77.288H36.0914C35.2754 77.288 34.8674 77.7307 34.8674 78.616V81H34.1394V76.616H34.8674V77.328ZM37.4998 75.904C37.3611 75.904 37.2438 75.856 37.1478 75.76C37.0518 75.664 37.0038 75.5467 37.0038 75.408C37.0038 75.2693 37.0518 75.152 37.1478 75.056C37.2438 74.96 37.3611 74.912 37.4998 74.912C37.6331 74.912 37.7451 74.96 37.8358 75.056C37.9318 75.152 37.9798 75.2693 37.9798 75.408C37.9798 75.5467 37.9318 75.664 37.8358 75.76C37.7451 75.856 37.6331 75.904 37.4998 75.904ZM37.8518 76.616V81H37.1238V76.616H37.8518ZM45.0014 76.616L42.3614 83.064H41.6094L42.4734 80.952L40.7054 76.616H41.5134L42.8894 80.168L44.2494 76.616H45.0014ZM45.4612 78.792C45.4612 78.344 45.5519 77.952 45.7332 77.616C45.9145 77.2747 46.1625 77.0107 46.4772 76.824C46.7972 76.6373 47.1519 76.544 47.5412 76.544C47.9252 76.544 48.2585 76.6267 48.5412 76.792C48.8239 76.9573 49.0345 77.1653 49.1732 77.416V76.616H49.9092V81H49.1732V80.184C49.0292 80.44 48.8132 80.6533 48.5252 80.824C48.2425 80.9893 47.9119 81.072 47.5332 81.072C47.1439 81.072 46.7919 80.976 46.4772 80.784C46.1625 80.592 45.9145 80.3227 45.7332 79.976C45.5519 79.6293 45.4612 79.2347 45.4612 78.792ZM49.1732 78.8C49.1732 78.4693 49.1065 78.1813 48.9732 77.936C48.8399 77.6907 48.6585 77.504 48.4292 77.376C48.2052 77.2427 47.9572 77.176 47.6852 77.176C47.4132 77.176 47.1652 77.24 46.9412 77.368C46.7172 77.496 46.5385 77.6827 46.4052 77.928C46.2719 78.1733 46.2052 78.4613 46.2052 78.792C46.2052 79.128 46.2719 79.4213 46.4052 79.672C46.5385 79.9173 46.7172 80.1067 46.9412 80.24C47.1652 80.368 47.4132 80.432 47.6852 80.432C47.9572 80.432 48.2052 80.368 48.4292 80.24C48.6585 80.1067 48.8399 79.9173 48.9732 79.672C49.1065 79.4213 49.1732 79.1307 49.1732 78.8ZM53.2754 76.536C53.8088 76.536 54.2408 76.6987 54.5714 77.024C54.9021 77.344 55.0674 77.808 55.0674 78.416V81H54.3474V78.52C54.3474 78.0827 54.2381 77.7493 54.0194 77.52C53.8008 77.2853 53.5021 77.168 53.1234 77.168C52.7394 77.168 52.4328 77.288 52.2034 77.528C51.9794 77.768 51.8674 78.1173 51.8674 78.576V81H51.1394V76.616H51.8674V77.24C52.0114 77.016 52.2061 76.8427 52.4514 76.72C52.7021 76.5973 52.9768 76.536 53.2754 76.536ZM58.0646 76.544C58.4433 76.544 58.774 76.6267 59.0566 76.792C59.3446 76.9573 59.558 77.1653 59.6966 77.416V76.616H60.4326V81.096C60.4326 81.496 60.3473 81.8507 60.1766 82.16C60.006 82.4747 59.7606 82.72 59.4406 82.896C59.126 83.072 58.758 83.16 58.3366 83.16C57.7606 83.16 57.2806 83.024 56.8966 82.752C56.5126 82.48 56.286 82.1093 56.2166 81.64H56.9366C57.0166 81.9067 57.182 82.12 57.4326 82.28C57.6833 82.4453 57.9846 82.528 58.3366 82.528C58.7366 82.528 59.062 82.4027 59.3126 82.152C59.5686 81.9013 59.6966 81.5493 59.6966 81.096V80.176C59.5526 80.432 59.3393 80.6453 59.0566 80.816C58.774 80.9867 58.4433 81.072 58.0646 81.072C57.6753 81.072 57.3206 80.976 57.0006 80.784C56.686 80.592 56.438 80.3227 56.2566 79.976C56.0753 79.6293 55.9846 79.2347 55.9846 78.792C55.9846 78.344 56.0753 77.952 56.2566 77.616C56.438 77.2747 56.686 77.0107 57.0006 76.824C57.3206 76.6373 57.6753 76.544 58.0646 76.544ZM59.6966 78.8C59.6966 78.4693 59.63 78.1813 59.4966 77.936C59.3633 77.6907 59.182 77.504 58.9526 77.376C58.7286 77.2427 58.4806 77.176 58.2086 77.176C57.9366 77.176 57.6886 77.24 57.4646 77.368C57.2406 77.496 57.062 77.6827 56.9286 77.928C56.7953 78.1733 56.7286 78.4613 56.7286 78.792C56.7286 79.128 56.7953 79.4213 56.9286 79.672C57.062 79.9173 57.2406 80.1067 57.4646 80.24C57.6886 80.368 57.9366 80.432 58.2086 80.432C58.4806 80.432 58.7286 80.368 58.9526 80.24C59.182 80.1067 59.3633 79.9173 59.4966 79.672C59.63 79.4213 59.6966 79.1307 59.6966 78.8ZM66.2437 81L64.5237 79.064V81H63.7957V75.08H64.5237V78.56L66.2117 76.616H67.2277L65.1637 78.8L67.2357 81H66.2437ZM71.8009 76.616V81H71.0729V80.352C70.9342 80.576 70.7395 80.752 70.4889 80.88C70.2435 81.0027 69.9715 81.064 69.6729 81.064C69.3315 81.064 69.0249 80.9947 68.7529 80.856C68.4809 80.712 68.2649 80.4987 68.1049 80.216C67.9502 79.9333 67.8729 79.5893 67.8729 79.184V76.616H68.5929V79.088C68.5929 79.52 68.7022 79.8533 68.9209 80.088C69.1395 80.3173 69.4382 80.432 69.8169 80.432C70.2062 80.432 70.5129 80.312 70.7369 80.072C70.9609 79.832 71.0729 79.4827 71.0729 79.024V76.616H71.8009ZM73.7581 77.328C73.8861 77.0773 74.0674 76.8827 74.3021 76.744C74.5421 76.6053 74.8327 76.536 75.1741 76.536V77.288H74.9821C74.1661 77.288 73.7581 77.7307 73.7581 78.616V81H73.0301V76.616H73.7581V77.328ZM75.7424 78.792C75.7424 78.344 75.8331 77.952 76.0144 77.616C76.1958 77.2747 76.4438 77.0107 76.7584 76.824C77.0784 76.6373 77.4331 76.544 77.8224 76.544C78.2064 76.544 78.5398 76.6267 78.8224 76.792C79.1051 76.9573 79.3158 77.1653 79.4544 77.416V76.616H80.1904V81H79.4544V80.184C79.3104 80.44 79.0944 80.6533 78.8064 80.824C78.5238 80.9893 78.1931 81.072 77.8144 81.072C77.4251 81.072 77.0731 80.976 76.7584 80.784C76.4438 80.592 76.1958 80.3227 76.0144 79.976C75.8331 79.6293 75.7424 79.2347 75.7424 78.792ZM79.4544 78.8C79.4544 78.4693 79.3878 78.1813 79.2544 77.936C79.1211 77.6907 78.9398 77.504 78.7104 77.376C78.4864 77.2427 78.2384 77.176 77.9664 77.176C77.6944 77.176 77.4464 77.24 77.2224 77.368C76.9984 77.496 76.8198 77.6827 76.6864 77.928C76.5531 78.1733 76.4864 78.4613 76.4864 78.792C76.4864 79.128 76.5531 79.4213 76.6864 79.672C76.8198 79.9173 76.9984 80.1067 77.2224 80.24C77.4464 80.368 77.6944 80.432 77.9664 80.432C78.2384 80.432 78.4864 80.368 78.7104 80.24C78.9398 80.1067 79.1211 79.9173 79.2544 79.672C79.3878 79.4213 79.4544 79.1307 79.4544 78.8ZM83.5567 76.536C84.09 76.536 84.522 76.6987 84.8527 77.024C85.1834 77.344 85.3487 77.808 85.3487 78.416V81H84.6287V78.52C84.6287 78.0827 84.5194 77.7493 84.3007 77.52C84.082 77.2853 83.7834 77.168 83.4047 77.168C83.0207 77.168 82.714 77.288 82.4847 77.528C82.2607 77.768 82.1487 78.1173 82.1487 78.576V81H81.4207V76.616H82.1487V77.24C82.2927 77.016 82.4874 76.8427 82.7327 76.72C82.9834 76.5973 83.258 76.536 83.5567 76.536ZM88.3459 76.544C88.7245 76.544 89.0552 76.6267 89.3379 76.792C89.6259 76.9573 89.8392 77.1653 89.9779 77.416V76.616H90.7139V81.096C90.7139 81.496 90.6285 81.8507 90.4579 82.16C90.2872 82.4747 90.0419 82.72 89.7219 82.896C89.4072 83.072 89.0392 83.16 88.6179 83.16C88.0419 83.16 87.5619 83.024 87.1779 82.752C86.7939 82.48 86.5672 82.1093 86.4979 81.64H87.2179C87.2979 81.9067 87.4632 82.12 87.7139 82.28C87.9645 82.4453 88.2659 82.528 88.6179 82.528C89.0179 82.528 89.3432 82.4027 89.5939 82.152C89.8499 81.9013 89.9779 81.5493 89.9779 81.096V80.176C89.8339 80.432 89.6205 80.6453 89.3379 80.816C89.0552 80.9867 88.7245 81.072 88.3459 81.072C87.9565 81.072 87.6019 80.976 87.2819 80.784C86.9672 80.592 86.7192 80.3227 86.5379 79.976C86.3565 79.6293 86.2659 79.2347 86.2659 78.792C86.2659 78.344 86.3565 77.952 86.5379 77.616C86.7192 77.2747 86.9672 77.0107 87.2819 76.824C87.6019 76.6373 87.9565 76.544 88.3459 76.544ZM89.9779 78.8C89.9779 78.4693 89.9112 78.1813 89.7779 77.936C89.6445 77.6907 89.4632 77.504 89.2339 77.376C89.0099 77.2427 88.7619 77.176 88.4899 77.176C88.2179 77.176 87.9699 77.24 87.7459 77.368C87.5219 77.496 87.3432 77.6827 87.2099 77.928C87.0765 78.1733 87.0099 78.4613 87.0099 78.792C87.0099 79.128 87.0765 79.4213 87.2099 79.672C87.3432 79.9173 87.5219 80.1067 87.7459 80.24C87.9699 80.368 88.2179 80.432 88.4899 80.432C88.7619 80.432 89.0099 80.368 89.2339 80.24C89.4632 80.1067 89.6445 79.9173 89.7779 79.672C89.9112 79.4213 89.9779 79.1307 89.9779 78.8ZM96.5249 81L94.8049 79.064V81H94.0769V75.08H94.8049V78.56L96.4929 76.616H97.5089L95.4449 78.8L97.5169 81H96.5249ZM97.9221 78.792C97.9221 78.344 98.0128 77.952 98.1941 77.616C98.3755 77.2747 98.6235 77.0107 98.9381 76.824C99.2581 76.6373 99.6128 76.544 100.002 76.544C100.386 76.544 100.719 76.6267 101.002 76.792C101.285 76.9573 101.495 77.1653 101.634 77.416V76.616H102.37V81H101.634V80.184C101.49 80.44 101.274 80.6533 100.986 80.824C100.703 80.9893 100.373 81.072 99.9941 81.072C99.6048 81.072 99.2528 80.976 98.9381 80.784C98.6235 80.592 98.3755 80.3227 98.1941 79.976C98.0128 79.6293 97.9221 79.2347 97.9221 78.792ZM101.634 78.8C101.634 78.4693 101.567 78.1813 101.434 77.936C101.301 77.6907 101.119 77.504 100.89 77.376C100.666 77.2427 100.418 77.176 100.146 77.176C99.8741 77.176 99.6261 77.24 99.4021 77.368C99.1781 77.496 98.9995 77.6827 98.8661 77.928C98.7328 78.1733 98.6661 78.4613 98.6661 78.792C98.6661 79.128 98.7328 79.4213 98.8661 79.672C98.9995 79.9173 99.1781 80.1067 99.4021 80.24C99.6261 80.368 99.8741 80.432 100.146 80.432C100.418 80.432 100.666 80.368 100.89 80.24C101.119 80.1067 101.301 79.9173 101.434 79.672C101.567 79.4213 101.634 79.1307 101.634 78.8ZM108.872 76.536C109.214 76.536 109.518 76.608 109.784 76.752C110.051 76.8907 110.262 77.1013 110.416 77.384C110.571 77.6667 110.648 78.0107 110.648 78.416V81H109.928V78.52C109.928 78.0827 109.819 77.7493 109.6 77.52C109.387 77.2853 109.096 77.168 108.728 77.168C108.35 77.168 108.048 77.2907 107.824 77.536C107.6 77.776 107.488 78.1253 107.488 78.584V81H106.768V78.52C106.768 78.0827 106.659 77.7493 106.44 77.52C106.227 77.2853 105.936 77.168 105.568 77.168C105.19 77.168 104.888 77.2907 104.664 77.536C104.44 77.776 104.328 78.1253 104.328 78.584V81H103.6V76.616H104.328V77.248C104.472 77.0187 104.664 76.8427 104.904 76.72C105.15 76.5973 105.419 76.536 105.712 76.536C106.08 76.536 106.406 76.6187 106.688 76.784C106.971 76.9493 107.182 77.192 107.32 77.512C107.443 77.2027 107.646 76.9627 107.928 76.792C108.211 76.6213 108.526 76.536 108.872 76.536ZM115.731 76.616V81H115.003V80.352C114.864 80.576 114.669 80.752 114.419 80.88C114.173 81.0027 113.901 81.064 113.603 81.064C113.261 81.064 112.955 80.9947 112.683 80.856C112.411 80.712 112.195 80.4987 112.035 80.216C111.88 79.9333 111.803 79.5893 111.803 79.184V76.616H112.523V79.088C112.523 79.52 112.632 79.8533 112.851 80.088C113.069 80.3173 113.368 80.432 113.747 80.432C114.136 80.432 114.443 80.312 114.667 80.072C114.891 79.832 115.003 79.4827 115.003 79.024V76.616H115.731ZM121.541 81L119.821 79.064V81H119.093V75.08H119.821V78.56L121.509 76.616H122.525L120.461 78.8L122.533 81H121.541ZM127.098 76.616V81H126.37V80.352C126.231 80.576 126.036 80.752 125.786 80.88C125.54 81.0027 125.268 81.064 124.97 81.064C124.628 81.064 124.322 80.9947 124.05 80.856C123.778 80.712 123.562 80.4987 123.402 80.216C123.247 79.9333 123.17 79.5893 123.17 79.184V76.616H123.89V79.088C123.89 79.52 123.999 79.8533 124.218 80.088C124.436 80.3173 124.735 80.432 125.114 80.432C125.503 80.432 125.81 80.312 126.034 80.072C126.258 79.832 126.37 79.4827 126.37 79.024V76.616H127.098ZM128.055 78.792C128.055 78.344 128.146 77.952 128.327 77.616C128.508 77.2747 128.756 77.0107 129.071 76.824C129.391 76.6373 129.746 76.544 130.135 76.544C130.519 76.544 130.852 76.6267 131.135 76.792C131.418 76.9573 131.628 77.1653 131.767 77.416V76.616H132.503V81H131.767V80.184C131.623 80.44 131.407 80.6533 131.119 80.824C130.836 80.9893 130.506 81.072 130.127 81.072C129.738 81.072 129.386 80.976 129.071 80.784C128.756 80.592 128.508 80.3227 128.327 79.976C128.146 79.6293 128.055 79.2347 128.055 78.792ZM131.767 78.8C131.767 78.4693 131.7 78.1813 131.567 77.936C131.434 77.6907 131.252 77.504 131.023 77.376C130.799 77.2427 130.551 77.176 130.279 77.176C130.007 77.176 129.759 77.24 129.535 77.368C129.311 77.496 129.132 77.6827 128.999 77.928C128.866 78.1733 128.799 78.4613 128.799 78.792C128.799 79.128 128.866 79.4213 128.999 79.672C129.132 79.9173 129.311 80.1067 129.535 80.24C129.759 80.368 130.007 80.432 130.279 80.432C130.551 80.432 130.799 80.368 131.023 80.24C131.252 80.1067 131.434 79.9173 131.567 79.672C131.7 79.4213 131.767 79.1307 131.767 78.8ZM135.285 81.072C134.949 81.072 134.648 81.016 134.381 80.904C134.115 80.7867 133.904 80.6267 133.749 80.424C133.595 80.216 133.509 79.9787 133.493 79.712H134.245C134.267 79.9307 134.368 80.1093 134.549 80.248C134.736 80.3867 134.979 80.456 135.277 80.456C135.555 80.456 135.773 80.3947 135.933 80.272C136.093 80.1493 136.173 79.9947 136.173 79.808C136.173 79.616 136.088 79.4747 135.917 79.384C135.747 79.288 135.483 79.1947 135.125 79.104C134.8 79.0187 134.533 78.9333 134.325 78.848C134.123 78.7573 133.947 78.6267 133.797 78.456C133.653 78.28 133.581 78.0507 133.581 77.768C133.581 77.544 133.648 77.3387 133.781 77.152C133.915 76.9653 134.104 76.8187 134.349 76.712C134.595 76.6 134.875 76.544 135.189 76.544C135.675 76.544 136.067 76.6667 136.365 76.912C136.664 77.1573 136.824 77.4933 136.845 77.92H136.117C136.101 77.6907 136.008 77.5067 135.837 77.368C135.672 77.2293 135.448 77.16 135.165 77.16C134.904 77.16 134.696 77.216 134.541 77.328C134.387 77.44 134.309 77.5867 134.309 77.768C134.309 77.912 134.355 78.032 134.445 78.128C134.541 78.2187 134.659 78.2933 134.797 78.352C134.941 78.4053 135.139 78.4667 135.389 78.536C135.704 78.6213 135.96 78.7067 136.157 78.792C136.355 78.872 136.523 78.9947 136.661 79.16C136.805 79.3253 136.88 79.5413 136.885 79.808C136.885 80.048 136.819 80.264 136.685 80.456C136.552 80.648 136.363 80.8 136.117 80.912C135.877 81.0187 135.6 81.072 135.285 81.072ZM137.641 78.792C137.641 78.344 137.732 77.952 137.913 77.616C138.094 77.2747 138.342 77.0107 138.657 76.824C138.977 76.6373 139.332 76.544 139.721 76.544C140.105 76.544 140.438 76.6267 140.721 76.792C141.004 76.9573 141.214 77.1653 141.353 77.416V76.616H142.089V81H141.353V80.184C141.209 80.44 140.993 80.6533 140.705 80.824C140.422 80.9893 140.092 81.072 139.713 81.072C139.324 81.072 138.972 80.976 138.657 80.784C138.342 80.592 138.094 80.3227 137.913 79.976C137.732 79.6293 137.641 79.2347 137.641 78.792ZM141.353 78.8C141.353 78.4693 141.286 78.1813 141.153 77.936C141.02 77.6907 140.838 77.504 140.609 77.376C140.385 77.2427 140.137 77.176 139.865 77.176C139.593 77.176 139.345 77.24 139.121 77.368C138.897 77.496 138.718 77.6827 138.585 77.928C138.452 78.1733 138.385 78.4613 138.385 78.792C138.385 79.128 138.452 79.4213 138.585 79.672C138.718 79.9173 138.897 80.1067 139.121 80.24C139.345 80.368 139.593 80.432 139.865 80.432C140.137 80.432 140.385 80.368 140.609 80.24C140.838 80.1067 141.02 79.9173 141.153 79.672C141.286 79.4213 141.353 79.1307 141.353 78.8ZM143.695 75.904C143.556 75.904 143.439 75.856 143.343 75.76C143.247 75.664 143.199 75.5467 143.199 75.408C143.199 75.2693 143.247 75.152 143.343 75.056C143.439 74.96 143.556 74.912 143.695 74.912C143.828 74.912 143.94 74.96 144.031 75.056C144.127 75.152 144.175 75.2693 144.175 75.408C144.175 75.5467 144.127 75.664 144.031 75.76C143.94 75.856 143.828 75.904 143.695 75.904ZM144.047 76.616V81H143.319V76.616H144.047ZM146.232 75.424L146.144 79.424H145.536L145.448 75.424H146.232ZM145.872 81.048C145.733 81.048 145.616 81 145.52 80.904C145.424 80.808 145.376 80.6907 145.376 80.552C145.376 80.4133 145.424 80.296 145.52 80.2C145.616 80.104 145.733 80.056 145.872 80.056C146.005 80.056 146.117 80.104 146.208 80.2C146.304 80.296 146.352 80.4133 146.352 80.552C146.352 80.6907 146.304 80.808 146.208 80.904C146.117 81 146.005 81.048 145.872 81.048Z" fill="#052B4F"/>
</g>
<defs>
<clipPath id="clip0_731_9762">
<rect width="312" height="108" rx="10" fill="white"/>
</clipPath>
</defs>
</svg>
