<svg width="154" height="110" viewBox="0 0 154 110" fill="none" xmlns="http://www.w3.org/2000/svg">
<rect width="148" height="110" rx="10" fill="url(#paint0_linear_516_6407)"/>
<path d="M26.936 68.216C26.936 68.664 26.828 69.084 26.612 69.476C26.404 69.868 26.072 70.184 25.616 70.424C25.168 70.664 24.6 70.784 23.912 70.784H22.508V74H20.828V65.624H23.912C24.56 65.624 25.112 65.736 25.568 65.96C26.024 66.184 26.364 66.492 26.588 66.884C26.82 67.276 26.936 67.72 26.936 68.216ZM23.84 69.428C24.304 69.428 24.648 69.324 24.872 69.116C25.096 68.9 25.208 68.6 25.208 68.216C25.208 67.4 24.752 66.992 23.84 66.992H22.508V69.428H23.84ZM34.3088 70.532C34.3088 70.772 34.2928 70.988 34.2608 71.18H29.4008C29.4408 71.66 29.6088 72.036 29.9048 72.308C30.2008 72.58 30.5648 72.716 30.9968 72.716C31.6208 72.716 32.0648 72.448 32.3288 71.912H34.1408C33.9488 72.552 33.5808 73.08 33.0368 73.496C32.4928 73.904 31.8248 74.108 31.0328 74.108C30.3928 74.108 29.8168 73.968 29.3048 73.688C28.8008 73.4 28.4048 72.996 28.1168 72.476C27.8368 71.956 27.6968 71.356 27.6968 70.676C27.6968 69.988 27.8368 69.384 28.1168 68.864C28.3968 68.344 28.7888 67.944 29.2928 67.664C29.7968 67.384 30.3768 67.244 31.0328 67.244C31.6648 67.244 32.2288 67.38 32.7248 67.652C33.2288 67.924 33.6168 68.312 33.8888 68.816C34.1688 69.312 34.3088 69.884 34.3088 70.532ZM32.5688 70.052C32.5608 69.62 32.4048 69.276 32.1008 69.02C31.7968 68.756 31.4248 68.624 30.9848 68.624C30.5688 68.624 30.2168 68.752 29.9288 69.008C29.6488 69.256 29.4768 69.604 29.4128 70.052H32.5688ZM43.791 67.256C44.607 67.256 45.263 67.508 45.759 68.012C46.263 68.508 46.515 69.204 46.515 70.1V74H44.835V70.328C44.835 69.808 44.703 69.412 44.439 69.14C44.175 68.86 43.815 68.72 43.359 68.72C42.903 68.72 42.539 68.86 42.267 69.14C42.003 69.412 41.871 69.808 41.871 70.328V74H40.191V70.328C40.191 69.808 40.059 69.412 39.795 69.14C39.531 68.86 39.171 68.72 38.715 68.72C38.251 68.72 37.883 68.86 37.611 69.14C37.347 69.412 37.215 69.808 37.215 70.328V74H35.535V67.352H37.215V68.156C37.431 67.876 37.707 67.656 38.043 67.496C38.387 67.336 38.763 67.256 39.171 67.256C39.691 67.256 40.155 67.368 40.563 67.592C40.971 67.808 41.287 68.12 41.511 68.528C41.727 68.144 42.039 67.836 42.447 67.604C42.863 67.372 43.311 67.256 43.791 67.256ZM49.7893 68.384C50.0053 68.032 50.2853 67.756 50.6293 67.556C50.9813 67.356 51.3813 67.256 51.8293 67.256V69.02H51.3853C50.8573 69.02 50.4573 69.144 50.1853 69.392C49.9213 69.64 49.7893 70.072 49.7893 70.688V74H48.1093V67.352H49.7893V68.384ZM55.9128 74.108C55.2728 74.108 54.6968 73.968 54.1848 73.688C53.6728 73.4 53.2688 72.996 52.9728 72.476C52.6848 71.956 52.5408 71.356 52.5408 70.676C52.5408 69.996 52.6888 69.396 52.9848 68.876C53.2888 68.356 53.7008 67.956 54.2208 67.676C54.7408 67.388 55.3208 67.244 55.9608 67.244C56.6008 67.244 57.1808 67.388 57.7008 67.676C58.2208 67.956 58.6288 68.356 58.9248 68.876C59.2288 69.396 59.3808 69.996 59.3808 70.676C59.3808 71.356 59.2248 71.956 58.9128 72.476C58.6088 72.996 58.1928 73.4 57.6648 73.688C57.1448 73.968 56.5608 74.108 55.9128 74.108ZM55.9128 72.644C56.2168 72.644 56.5008 72.572 56.7648 72.428C57.0368 72.276 57.2528 72.052 57.4128 71.756C57.5728 71.46 57.6528 71.1 57.6528 70.676C57.6528 70.044 57.4848 69.56 57.1488 69.224C56.8208 68.88 56.4168 68.708 55.9368 68.708C55.4568 68.708 55.0528 68.88 54.7248 69.224C54.4048 69.56 54.2448 70.044 54.2448 70.676C54.2448 71.308 54.4008 71.796 54.7128 72.14C55.0328 72.476 55.4328 72.644 55.9128 72.644ZM63.2172 67.244C63.7132 67.244 64.1492 67.344 64.5252 67.544C64.9012 67.736 65.1972 67.988 65.4132 68.3V67.352H67.1052V74.048C67.1052 74.664 66.9812 75.212 66.7332 75.692C66.4852 76.18 66.1132 76.564 65.6172 76.844C65.1212 77.132 64.5212 77.276 63.8172 77.276C62.8732 77.276 62.0972 77.056 61.4892 76.616C60.8892 76.176 60.5492 75.576 60.4692 74.816H62.1372C62.2252 75.12 62.4132 75.36 62.7012 75.536C62.9972 75.72 63.3532 75.812 63.7692 75.812C64.2572 75.812 64.6532 75.664 64.9572 75.368C65.2612 75.08 65.4132 74.64 65.4132 74.048V73.016C65.1972 73.328 64.8972 73.588 64.5132 73.796C64.1372 74.004 63.7052 74.108 63.2172 74.108C62.6572 74.108 62.1452 73.964 61.6812 73.676C61.2172 73.388 60.8492 72.984 60.5772 72.464C60.3132 71.936 60.1812 71.332 60.1812 70.652C60.1812 69.98 60.3132 69.384 60.5772 68.864C60.8492 68.344 61.2132 67.944 61.6692 67.664C62.1332 67.384 62.6492 67.244 63.2172 67.244ZM65.4132 70.676C65.4132 70.268 65.3332 69.92 65.1732 69.632C65.0132 69.336 64.7972 69.112 64.5252 68.96C64.2532 68.8 63.9612 68.72 63.6492 68.72C63.3372 68.72 63.0492 68.796 62.7852 68.948C62.5212 69.1 62.3052 69.324 62.1372 69.62C61.9772 69.908 61.8972 70.252 61.8972 70.652C61.8972 71.052 61.9772 71.404 62.1372 71.708C62.3052 72.004 62.5212 72.232 62.7852 72.392C63.0572 72.552 63.3452 72.632 63.6492 72.632C63.9612 72.632 64.2532 72.556 64.5252 72.404C64.7972 72.244 65.0132 72.02 65.1732 71.732C65.3332 71.436 65.4132 71.084 65.4132 70.676ZM70.426 68.384C70.642 68.032 70.922 67.756 71.266 67.556C71.618 67.356 72.018 67.256 72.466 67.256V69.02H72.022C71.494 69.02 71.094 69.144 70.822 69.392C70.558 69.64 70.426 70.072 70.426 70.688V74H68.746V67.352H70.426V68.384ZM73.1655 70.652C73.1655 69.98 73.2975 69.384 73.5615 68.864C73.8335 68.344 74.1975 67.944 74.6535 67.664C75.1175 67.384 75.6335 67.244 76.2015 67.244C76.6975 67.244 77.1295 67.344 77.4975 67.544C77.8735 67.744 78.1735 67.996 78.3975 68.3V67.352H80.0895V74H78.3975V73.028C78.1815 73.34 77.8815 73.6 77.4975 73.808C77.1215 74.008 76.6855 74.108 76.1895 74.108C75.6295 74.108 75.1175 73.964 74.6535 73.676C74.1975 73.388 73.8335 72.984 73.5615 72.464C73.2975 71.936 73.1655 71.332 73.1655 70.652ZM78.3975 70.676C78.3975 70.268 78.3175 69.92 78.1575 69.632C77.9975 69.336 77.7815 69.112 77.5095 68.96C77.2375 68.8 76.9455 68.72 76.6335 68.72C76.3215 68.72 76.0335 68.796 75.7695 68.948C75.5055 69.1 75.2895 69.324 75.1215 69.62C74.9615 69.908 74.8815 70.252 74.8815 70.652C74.8815 71.052 74.9615 71.404 75.1215 71.708C75.2895 72.004 75.5055 72.232 75.7695 72.392C76.0415 72.552 76.3295 72.632 76.6335 72.632C76.9455 72.632 77.2375 72.556 77.5095 72.404C77.7815 72.244 77.9975 72.02 78.1575 71.732C78.3175 71.436 78.3975 71.084 78.3975 70.676ZM89.9863 67.256C90.8023 67.256 91.4583 67.508 91.9543 68.012C92.4583 68.508 92.7103 69.204 92.7103 70.1V74H91.0303V70.328C91.0303 69.808 90.8983 69.412 90.6343 69.14C90.3703 68.86 90.0103 68.72 89.5543 68.72C89.0983 68.72 88.7343 68.86 88.4623 69.14C88.1983 69.412 88.0663 69.808 88.0663 70.328V74H86.3863V70.328C86.3863 69.808 86.2543 69.412 85.9903 69.14C85.7263 68.86 85.3663 68.72 84.9103 68.72C84.4463 68.72 84.0783 68.86 83.8063 69.14C83.5423 69.412 83.4103 69.808 83.4103 70.328V74H81.7303V67.352H83.4103V68.156C83.6263 67.876 83.9023 67.656 84.2383 67.496C84.5823 67.336 84.9583 67.256 85.3663 67.256C85.8863 67.256 86.3503 67.368 86.7583 67.592C87.1663 67.808 87.4823 68.12 87.7063 68.528C87.9223 68.144 88.2343 67.836 88.6423 67.604C89.0583 67.372 89.5063 67.256 89.9863 67.256ZM93.8726 70.652C93.8726 69.98 94.0046 69.384 94.2686 68.864C94.5406 68.344 94.9046 67.944 95.3606 67.664C95.8246 67.384 96.3406 67.244 96.9086 67.244C97.4046 67.244 97.8366 67.344 98.2046 67.544C98.5806 67.744 98.8806 67.996 99.1046 68.3V67.352H100.797V74H99.1046V73.028C98.8886 73.34 98.5886 73.6 98.2046 73.808C97.8286 74.008 97.3926 74.108 96.8966 74.108C96.3366 74.108 95.8246 73.964 95.3606 73.676C94.9046 73.388 94.5406 72.984 94.2686 72.464C94.0046 71.936 93.8726 71.332 93.8726 70.652ZM99.1046 70.676C99.1046 70.268 99.0246 69.92 98.8646 69.632C98.7046 69.336 98.4886 69.112 98.2166 68.96C97.9446 68.8 97.6526 68.72 97.3406 68.72C97.0286 68.72 96.7406 68.796 96.4766 68.948C96.2126 69.1 95.9966 69.324 95.8286 69.62C95.6686 69.908 95.5886 70.252 95.5886 70.652C95.5886 71.052 95.6686 71.404 95.8286 71.708C95.9966 72.004 96.2126 72.232 96.4766 72.392C96.7486 72.552 97.0366 72.632 97.3406 72.632C97.6526 72.632 97.9446 72.556 98.2166 72.404C98.4886 72.244 98.7046 72.02 98.8646 71.732C99.0246 71.436 99.1046 71.084 99.1046 70.676ZM106.121 67.256C106.913 67.256 107.553 67.508 108.041 68.012C108.529 68.508 108.773 69.204 108.773 70.1V74H107.093V70.328C107.093 69.8 106.961 69.396 106.697 69.116C106.433 68.828 106.073 68.684 105.617 68.684C105.153 68.684 104.785 68.828 104.513 69.116C104.249 69.396 104.117 69.8 104.117 70.328V74H102.437V67.352H104.117V68.18C104.341 67.892 104.625 67.668 104.969 67.508C105.321 67.34 105.705 67.256 106.121 67.256ZM23.756 83.624C24.636 83.624 25.408 83.796 26.072 84.14C26.744 84.484 27.26 84.976 27.62 85.616C27.988 86.248 28.172 86.984 28.172 87.824C28.172 88.664 27.988 89.4 27.62 90.032C27.26 90.656 26.744 91.14 26.072 91.484C25.408 91.828 24.636 92 23.756 92H20.828V83.624H23.756ZM23.696 90.572C24.576 90.572 25.256 90.332 25.736 89.852C26.216 89.372 26.456 88.696 26.456 87.824C26.456 86.952 26.216 86.272 25.736 85.784C25.256 85.288 24.576 85.04 23.696 85.04H22.508V90.572H23.696ZM28.9976 88.652C28.9976 87.98 29.1296 87.384 29.3936 86.864C29.6656 86.344 30.0296 85.944 30.4856 85.664C30.9496 85.384 31.4656 85.244 32.0336 85.244C32.5296 85.244 32.9616 85.344 33.3296 85.544C33.7056 85.744 34.0056 85.996 34.2296 86.3V85.352H35.9216V92H34.2296V91.028C34.0136 91.34 33.7136 91.6 33.3296 91.808C32.9536 92.008 32.5176 92.108 32.0216 92.108C31.4616 92.108 30.9496 91.964 30.4856 91.676C30.0296 91.388 29.6656 90.984 29.3936 90.464C29.1296 89.936 28.9976 89.332 28.9976 88.652ZM34.2296 88.676C34.2296 88.268 34.1496 87.92 33.9896 87.632C33.8296 87.336 33.6136 87.112 33.3416 86.96C33.0696 86.8 32.7776 86.72 32.4656 86.72C32.1536 86.72 31.8656 86.796 31.6016 86.948C31.3376 87.1 31.1216 87.324 30.9536 87.62C30.7936 87.908 30.7136 88.252 30.7136 88.652C30.7136 89.052 30.7936 89.404 30.9536 89.708C31.1216 90.004 31.3376 90.232 31.6016 90.392C31.8736 90.552 32.1616 90.632 32.4656 90.632C32.7776 90.632 33.0696 90.556 33.3416 90.404C33.6136 90.244 33.8296 90.02 33.9896 89.732C34.1496 89.436 34.2296 89.084 34.2296 88.676ZM40.1064 92.108C39.5624 92.108 39.0744 92.012 38.6424 91.82C38.2104 91.62 37.8664 91.352 37.6104 91.016C37.3624 90.68 37.2264 90.308 37.2024 89.9H38.8944C38.9264 90.156 39.0504 90.368 39.2664 90.536C39.4904 90.704 39.7664 90.788 40.0944 90.788C40.4144 90.788 40.6624 90.724 40.8384 90.596C41.0224 90.468 41.1144 90.304 41.1144 90.104C41.1144 89.888 41.0024 89.728 40.7784 89.624C40.5624 89.512 40.2144 89.392 39.7344 89.264C39.2384 89.144 38.8304 89.02 38.5104 88.892C38.1984 88.764 37.9264 88.568 37.6944 88.304C37.4704 88.04 37.3584 87.684 37.3584 87.236C37.3584 86.868 37.4624 86.532 37.6704 86.228C37.8864 85.924 38.1904 85.684 38.5824 85.508C38.9824 85.332 39.4504 85.244 39.9864 85.244C40.7784 85.244 41.4104 85.444 41.8824 85.844C42.3544 86.236 42.6144 86.768 42.6624 87.44H41.0544C41.0304 87.176 40.9184 86.968 40.7184 86.816C40.5264 86.656 40.2664 86.576 39.9384 86.576C39.6344 86.576 39.3984 86.632 39.2304 86.744C39.0704 86.856 38.9904 87.012 38.9904 87.212C38.9904 87.436 39.1024 87.608 39.3264 87.728C39.5504 87.84 39.8984 87.956 40.3704 88.076C40.8504 88.196 41.2464 88.32 41.5584 88.448C41.8704 88.576 42.1384 88.776 42.3624 89.048C42.5944 89.312 42.7144 89.664 42.7224 90.104C42.7224 90.488 42.6144 90.832 42.3984 91.136C42.1904 91.44 41.8864 91.68 41.4864 91.856C41.0944 92.024 40.6344 92.108 40.1064 92.108ZM43.6694 88.652C43.6694 87.98 43.8014 87.384 44.0654 86.864C44.3374 86.344 44.7014 85.944 45.1574 85.664C45.6214 85.384 46.1374 85.244 46.7054 85.244C47.2014 85.244 47.6334 85.344 48.0014 85.544C48.3774 85.744 48.6774 85.996 48.9014 86.3V85.352H50.5934V92H48.9014V91.028C48.6854 91.34 48.3854 91.6 48.0014 91.808C47.6254 92.008 47.1894 92.108 46.6934 92.108C46.1334 92.108 45.6214 91.964 45.1574 91.676C44.7014 91.388 44.3374 90.984 44.0654 90.464C43.8014 89.936 43.6694 89.332 43.6694 88.652ZM48.9014 88.676C48.9014 88.268 48.8214 87.92 48.6614 87.632C48.5014 87.336 48.2854 87.112 48.0134 86.96C47.7414 86.8 47.4494 86.72 47.1374 86.72C46.8254 86.72 46.5374 86.796 46.2734 86.948C46.0094 87.1 45.7934 87.324 45.6254 87.62C45.4654 87.908 45.3854 88.252 45.3854 88.652C45.3854 89.052 45.4654 89.404 45.6254 89.708C45.7934 90.004 46.0094 90.232 46.2734 90.392C46.5454 90.552 46.8334 90.632 47.1374 90.632C47.4494 90.632 47.7414 90.556 48.0134 90.404C48.2854 90.244 48.5014 90.02 48.6614 89.732C48.8214 89.436 48.9014 89.084 48.9014 88.676ZM53.9143 86.384C54.1303 86.032 54.4103 85.756 54.7543 85.556C55.1063 85.356 55.5063 85.256 55.9543 85.256V87.02H55.5103C54.9823 87.02 54.5823 87.144 54.3103 87.392C54.0463 87.64 53.9143 88.072 53.9143 88.688V92H52.2343V85.352H53.9143V86.384ZM64.8292 83.624V89.504C64.8292 90.32 64.5932 90.956 64.1212 91.412C63.6492 91.86 63.0172 92.084 62.2252 92.084C61.4252 92.084 60.7772 91.852 60.2812 91.388C59.7932 90.924 59.5492 90.276 59.5492 89.444H61.2292C61.2372 89.804 61.3212 90.084 61.4812 90.284C61.6492 90.484 61.8892 90.584 62.2012 90.584C62.5052 90.584 62.7372 90.488 62.8972 90.296C63.0572 90.104 63.1372 89.84 63.1372 89.504V83.624H64.8292ZM66.3569 88.652C66.3569 87.98 66.4889 87.384 66.7529 86.864C67.0249 86.344 67.3889 85.944 67.8449 85.664C68.3089 85.384 68.8249 85.244 69.3929 85.244C69.8889 85.244 70.3209 85.344 70.6889 85.544C71.0649 85.744 71.3649 85.996 71.5889 86.3V85.352H73.2809V92H71.5889V91.028C71.3729 91.34 71.0729 91.6 70.6889 91.808C70.3129 92.008 69.8769 92.108 69.3809 92.108C68.8209 92.108 68.3089 91.964 67.8449 91.676C67.3889 91.388 67.0249 90.984 66.7529 90.464C66.4889 89.936 66.3569 89.332 66.3569 88.652ZM71.5889 88.676C71.5889 88.268 71.5089 87.92 71.3489 87.632C71.1889 87.336 70.9729 87.112 70.7009 86.96C70.4289 86.8 70.1369 86.72 69.8249 86.72C69.5129 86.72 69.2249 86.796 68.9609 86.948C68.6969 87.1 68.4809 87.324 68.3129 87.62C68.1529 87.908 68.0729 88.252 68.0729 88.652C68.0729 89.052 68.1529 89.404 68.3129 89.708C68.4809 90.004 68.6969 90.232 68.9609 90.392C69.2329 90.552 69.5209 90.632 69.8249 90.632C70.1369 90.632 70.4289 90.556 70.7009 90.404C70.9729 90.244 71.1889 90.02 71.3489 89.732C71.5089 89.436 71.5889 89.084 71.5889 88.676ZM77.6938 90.452L79.3738 85.352H81.1618L78.7018 92H76.6618L74.2138 85.352H76.0138L77.6938 90.452ZM81.6733 88.652C81.6733 87.98 81.8053 87.384 82.0693 86.864C82.3413 86.344 82.7053 85.944 83.1613 85.664C83.6253 85.384 84.1413 85.244 84.7093 85.244C85.2053 85.244 85.6373 85.344 86.0053 85.544C86.3813 85.744 86.6813 85.996 86.9053 86.3V85.352H88.5973V92H86.9053V91.028C86.6893 91.34 86.3893 91.6 86.0053 91.808C85.6293 92.008 85.1933 92.108 84.6973 92.108C84.1373 92.108 83.6253 91.964 83.1613 91.676C82.7053 91.388 82.3413 90.984 82.0693 90.464C81.8053 89.936 81.6733 89.332 81.6733 88.652ZM86.9053 88.676C86.9053 88.268 86.8253 87.92 86.6653 87.632C86.5053 87.336 86.2893 87.112 86.0173 86.96C85.7453 86.8 85.4533 86.72 85.1413 86.72C84.8293 86.72 84.5413 86.796 84.2773 86.948C84.0133 87.1 83.7973 87.324 83.6293 87.62C83.4693 87.908 83.3893 88.252 83.3893 88.652C83.3893 89.052 83.4693 89.404 83.6293 89.708C83.7973 90.004 84.0133 90.232 84.2773 90.392C84.5493 90.552 84.8373 90.632 85.1413 90.632C85.4533 90.632 85.7453 90.556 86.0173 90.404C86.2893 90.244 86.5053 90.02 86.6653 89.732C86.8253 89.436 86.9053 89.084 86.9053 88.676Z" fill="#FAFAFA"/>
<path d="M89.1124 25.538L108.442 19.5873L94.1084 5.3186L89.1124 25.538Z" fill="white"/>
<path d="M130.885 25.1325L111.555 31.0833L116.551 10.8639L130.885 25.1325Z" fill="white"/>
<path d="M153.327 30.6778L133.997 36.6286L138.993 16.4091L153.327 30.6778Z" fill="white"/>
<path d="M65.1739 41.4323L84.5038 35.4816L70.1699 21.2129L65.1739 41.4323Z" fill="white"/>
<path d="M106.946 41.0268L87.6164 46.9776L92.6124 26.7582L106.946 41.0268Z" fill="white"/>
<path d="M129.389 46.5721L110.059 52.5229L115.055 32.3034L129.389 46.5721Z" fill="white"/>
<defs>
<linearGradient id="paint0_linear_516_6407" x1="74" y1="0" x2="74" y2="110" gradientUnits="userSpaceOnUse">
<stop offset="0.245" stop-color="#D3D840"/>
<stop offset="1" stop-color="#859229"/>
</linearGradient>
</defs>
</svg>
