<svg width="148" height="110" viewBox="0 0 148 110" fill="none" xmlns="http://www.w3.org/2000/svg">
<g clip-path="url(#clip0_516_6376)">
<rect width="148" height="110" rx="10" fill="url(#paint0_linear_516_6376)"/>
<path d="M17.936 72.216C17.936 72.664 17.828 73.084 17.612 73.476C17.404 73.868 17.072 74.184 16.616 74.424C16.168 74.664 15.6 74.784 14.912 74.784H13.508V78H11.828V69.624H14.912C15.56 69.624 16.112 69.736 16.568 69.96C17.024 70.184 17.364 70.492 17.588 70.884C17.82 71.276 17.936 71.72 17.936 72.216ZM14.84 73.428C15.304 73.428 15.648 73.324 15.872 73.116C16.096 72.9 16.208 72.6 16.208 72.216C16.208 71.4 15.752 70.992 14.84 70.992H13.508V73.428H14.84ZM25.3088 74.532C25.3088 74.772 25.2928 74.988 25.2608 75.18H20.4008C20.4408 75.66 20.6088 76.036 20.9048 76.308C21.2008 76.58 21.5648 76.716 21.9968 76.716C22.6208 76.716 23.0648 76.448 23.3288 75.912H25.1408C24.9488 76.552 24.5808 77.08 24.0368 77.496C23.4928 77.904 22.8248 78.108 22.0328 78.108C21.3928 78.108 20.8168 77.968 20.3048 77.688C19.8008 77.4 19.4048 76.996 19.1168 76.476C18.8368 75.956 18.6968 75.356 18.6968 74.676C18.6968 73.988 18.8368 73.384 19.1168 72.864C19.3968 72.344 19.7888 71.944 20.2928 71.664C20.7968 71.384 21.3768 71.244 22.0328 71.244C22.6648 71.244 23.2288 71.38 23.7248 71.652C24.2288 71.924 24.6168 72.312 24.8888 72.816C25.1688 73.312 25.3088 73.884 25.3088 74.532ZM23.5688 74.052C23.5608 73.62 23.4048 73.276 23.1008 73.02C22.7968 72.756 22.4248 72.624 21.9848 72.624C21.5688 72.624 21.2168 72.752 20.9288 73.008C20.6488 73.256 20.4768 73.604 20.4128 74.052H23.5688ZM34.791 71.256C35.607 71.256 36.263 71.508 36.759 72.012C37.263 72.508 37.515 73.204 37.515 74.1V78H35.835V74.328C35.835 73.808 35.703 73.412 35.439 73.14C35.175 72.86 34.815 72.72 34.359 72.72C33.903 72.72 33.539 72.86 33.267 73.14C33.003 73.412 32.871 73.808 32.871 74.328V78H31.191V74.328C31.191 73.808 31.059 73.412 30.795 73.14C30.531 72.86 30.171 72.72 29.715 72.72C29.251 72.72 28.883 72.86 28.611 73.14C28.347 73.412 28.215 73.808 28.215 74.328V78H26.535V71.352H28.215V72.156C28.431 71.876 28.707 71.656 29.043 71.496C29.387 71.336 29.763 71.256 30.171 71.256C30.691 71.256 31.155 71.368 31.563 71.592C31.971 71.808 32.287 72.12 32.511 72.528C32.727 72.144 33.039 71.836 33.447 71.604C33.863 71.372 34.311 71.256 34.791 71.256ZM40.7893 72.384C41.0053 72.032 41.2853 71.756 41.6293 71.556C41.9813 71.356 42.3813 71.256 42.8293 71.256V73.02H42.3853C41.8573 73.02 41.4573 73.144 41.1853 73.392C40.9213 73.64 40.7893 74.072 40.7893 74.688V78H39.1093V71.352H40.7893V72.384ZM46.9128 78.108C46.2728 78.108 45.6968 77.968 45.1848 77.688C44.6728 77.4 44.2688 76.996 43.9728 76.476C43.6848 75.956 43.5408 75.356 43.5408 74.676C43.5408 73.996 43.6888 73.396 43.9848 72.876C44.2888 72.356 44.7008 71.956 45.2208 71.676C45.7408 71.388 46.3208 71.244 46.9608 71.244C47.6008 71.244 48.1808 71.388 48.7008 71.676C49.2208 71.956 49.6288 72.356 49.9248 72.876C50.2288 73.396 50.3808 73.996 50.3808 74.676C50.3808 75.356 50.2248 75.956 49.9128 76.476C49.6088 76.996 49.1928 77.4 48.6648 77.688C48.1448 77.968 47.5608 78.108 46.9128 78.108ZM46.9128 76.644C47.2168 76.644 47.5008 76.572 47.7648 76.428C48.0368 76.276 48.2528 76.052 48.4128 75.756C48.5728 75.46 48.6528 75.1 48.6528 74.676C48.6528 74.044 48.4848 73.56 48.1488 73.224C47.8208 72.88 47.4168 72.708 46.9368 72.708C46.4568 72.708 46.0528 72.88 45.7248 73.224C45.4048 73.56 45.2448 74.044 45.2448 74.676C45.2448 75.308 45.4008 75.796 45.7128 76.14C46.0328 76.476 46.4328 76.644 46.9128 76.644ZM54.2172 71.244C54.7132 71.244 55.1492 71.344 55.5252 71.544C55.9012 71.736 56.1972 71.988 56.4132 72.3V71.352H58.1052V78.048C58.1052 78.664 57.9812 79.212 57.7332 79.692C57.4852 80.18 57.1132 80.564 56.6172 80.844C56.1212 81.132 55.5212 81.276 54.8172 81.276C53.8732 81.276 53.0972 81.056 52.4892 80.616C51.8892 80.176 51.5492 79.576 51.4692 78.816H53.1372C53.2252 79.12 53.4132 79.36 53.7012 79.536C53.9972 79.72 54.3532 79.812 54.7692 79.812C55.2572 79.812 55.6532 79.664 55.9572 79.368C56.2612 79.08 56.4132 78.64 56.4132 78.048V77.016C56.1972 77.328 55.8972 77.588 55.5132 77.796C55.1372 78.004 54.7052 78.108 54.2172 78.108C53.6572 78.108 53.1452 77.964 52.6812 77.676C52.2172 77.388 51.8492 76.984 51.5772 76.464C51.3132 75.936 51.1812 75.332 51.1812 74.652C51.1812 73.98 51.3132 73.384 51.5772 72.864C51.8492 72.344 52.2132 71.944 52.6692 71.664C53.1332 71.384 53.6492 71.244 54.2172 71.244ZM56.4132 74.676C56.4132 74.268 56.3332 73.92 56.1732 73.632C56.0132 73.336 55.7972 73.112 55.5252 72.96C55.2532 72.8 54.9612 72.72 54.6492 72.72C54.3372 72.72 54.0492 72.796 53.7852 72.948C53.5212 73.1 53.3052 73.324 53.1372 73.62C52.9772 73.908 52.8972 74.252 52.8972 74.652C52.8972 75.052 52.9772 75.404 53.1372 75.708C53.3052 76.004 53.5212 76.232 53.7852 76.392C54.0572 76.552 54.3452 76.632 54.6492 76.632C54.9612 76.632 55.2532 76.556 55.5252 76.404C55.7972 76.244 56.0132 76.02 56.1732 75.732C56.3332 75.436 56.4132 75.084 56.4132 74.676ZM61.426 72.384C61.642 72.032 61.922 71.756 62.266 71.556C62.618 71.356 63.018 71.256 63.466 71.256V73.02H63.022C62.494 73.02 62.094 73.144 61.822 73.392C61.558 73.64 61.426 74.072 61.426 74.688V78H59.746V71.352H61.426V72.384ZM64.1655 74.652C64.1655 73.98 64.2975 73.384 64.5615 72.864C64.8335 72.344 65.1975 71.944 65.6535 71.664C66.1175 71.384 66.6335 71.244 67.2015 71.244C67.6975 71.244 68.1295 71.344 68.4975 71.544C68.8735 71.744 69.1735 71.996 69.3975 72.3V71.352H71.0895V78H69.3975V77.028C69.1815 77.34 68.8815 77.6 68.4975 77.808C68.1215 78.008 67.6855 78.108 67.1895 78.108C66.6295 78.108 66.1175 77.964 65.6535 77.676C65.1975 77.388 64.8335 76.984 64.5615 76.464C64.2975 75.936 64.1655 75.332 64.1655 74.652ZM69.3975 74.676C69.3975 74.268 69.3175 73.92 69.1575 73.632C68.9975 73.336 68.7815 73.112 68.5095 72.96C68.2375 72.8 67.9455 72.72 67.6335 72.72C67.3215 72.72 67.0335 72.796 66.7695 72.948C66.5055 73.1 66.2895 73.324 66.1215 73.62C65.9615 73.908 65.8815 74.252 65.8815 74.652C65.8815 75.052 65.9615 75.404 66.1215 75.708C66.2895 76.004 66.5055 76.232 66.7695 76.392C67.0415 76.552 67.3295 76.632 67.6335 76.632C67.9455 76.632 68.2375 76.556 68.5095 76.404C68.7815 76.244 68.9975 76.02 69.1575 75.732C69.3175 75.436 69.3975 75.084 69.3975 74.676ZM80.9863 71.256C81.8023 71.256 82.4583 71.508 82.9543 72.012C83.4583 72.508 83.7103 73.204 83.7103 74.1V78H82.0303V74.328C82.0303 73.808 81.8983 73.412 81.6343 73.14C81.3703 72.86 81.0103 72.72 80.5543 72.72C80.0983 72.72 79.7343 72.86 79.4623 73.14C79.1983 73.412 79.0663 73.808 79.0663 74.328V78H77.3863V74.328C77.3863 73.808 77.2543 73.412 76.9903 73.14C76.7263 72.86 76.3663 72.72 75.9103 72.72C75.4463 72.72 75.0783 72.86 74.8063 73.14C74.5423 73.412 74.4103 73.808 74.4103 74.328V78H72.7303V71.352H74.4103V72.156C74.6263 71.876 74.9023 71.656 75.2383 71.496C75.5823 71.336 75.9583 71.256 76.3663 71.256C76.8863 71.256 77.3503 71.368 77.7583 71.592C78.1663 71.808 78.4823 72.12 78.7063 72.528C78.9223 72.144 79.2343 71.836 79.6423 71.604C80.0583 71.372 80.5063 71.256 80.9863 71.256ZM84.8726 74.652C84.8726 73.98 85.0046 73.384 85.2686 72.864C85.5406 72.344 85.9046 71.944 86.3606 71.664C86.8246 71.384 87.3406 71.244 87.9086 71.244C88.4046 71.244 88.8366 71.344 89.2046 71.544C89.5806 71.744 89.8806 71.996 90.1046 72.3V71.352H91.7966V78H90.1046V77.028C89.8886 77.34 89.5886 77.6 89.2046 77.808C88.8286 78.008 88.3926 78.108 87.8966 78.108C87.3366 78.108 86.8246 77.964 86.3606 77.676C85.9046 77.388 85.5406 76.984 85.2686 76.464C85.0046 75.936 84.8726 75.332 84.8726 74.652ZM90.1046 74.676C90.1046 74.268 90.0246 73.92 89.8646 73.632C89.7046 73.336 89.4886 73.112 89.2166 72.96C88.9446 72.8 88.6526 72.72 88.3406 72.72C88.0286 72.72 87.7406 72.796 87.4766 72.948C87.2126 73.1 86.9966 73.324 86.8286 73.62C86.6686 73.908 86.5886 74.252 86.5886 74.652C86.5886 75.052 86.6686 75.404 86.8286 75.708C86.9966 76.004 87.2126 76.232 87.4766 76.392C87.7486 76.552 88.0366 76.632 88.3406 76.632C88.6526 76.632 88.9446 76.556 89.2166 76.404C89.4886 76.244 89.7046 76.02 89.8646 75.732C90.0246 75.436 90.1046 75.084 90.1046 74.676ZM97.1214 71.256C97.9134 71.256 98.5534 71.508 99.0414 72.012C99.5294 72.508 99.7734 73.204 99.7734 74.1V78H98.0934V74.328C98.0934 73.8 97.9614 73.396 97.6974 73.116C97.4334 72.828 97.0734 72.684 96.6174 72.684C96.1534 72.684 95.7854 72.828 95.5134 73.116C95.2494 73.396 95.1174 73.8 95.1174 74.328V78H93.4374V71.352H95.1174V72.18C95.3414 71.892 95.6254 71.668 95.9694 71.508C96.3214 71.34 96.7054 71.256 97.1214 71.256ZM23.024 87.624L20.684 96H18.704L17.132 90.036L15.488 96L13.52 96.012L11.264 87.624H13.064L14.54 94.128L16.244 87.624H18.116L19.724 94.092L21.212 87.624H23.024ZM30.301 92.532C30.301 92.772 30.285 92.988 30.253 93.18H25.393C25.433 93.66 25.601 94.036 25.897 94.308C26.193 94.58 26.557 94.716 26.989 94.716C27.613 94.716 28.057 94.448 28.321 93.912H30.133C29.941 94.552 29.573 95.08 29.029 95.496C28.485 95.904 27.817 96.108 27.025 96.108C26.385 96.108 25.809 95.968 25.297 95.688C24.793 95.4 24.397 94.996 24.109 94.476C23.829 93.956 23.689 93.356 23.689 92.676C23.689 91.988 23.829 91.384 24.109 90.864C24.389 90.344 24.781 89.944 25.285 89.664C25.789 89.384 26.369 89.244 27.025 89.244C27.657 89.244 28.221 89.38 28.717 89.652C29.221 89.924 29.609 90.312 29.881 90.816C30.161 91.312 30.301 91.884 30.301 92.532ZM28.561 92.052C28.553 91.62 28.397 91.276 28.093 91.02C27.789 90.756 27.417 90.624 26.977 90.624C26.561 90.624 26.209 90.752 25.921 91.008C25.641 91.256 25.469 91.604 25.405 92.052H28.561ZM33.2072 90.324C33.4232 90.004 33.7192 89.744 34.0952 89.544C34.4792 89.344 34.9152 89.244 35.4032 89.244C35.9712 89.244 36.4832 89.384 36.9392 89.664C37.4032 89.944 37.7672 90.344 38.0312 90.864C38.3032 91.376 38.4392 91.972 38.4392 92.652C38.4392 93.332 38.3032 93.936 38.0312 94.464C37.7672 94.984 37.4032 95.388 36.9392 95.676C36.4832 95.964 35.9712 96.108 35.4032 96.108C34.9072 96.108 34.4712 96.012 34.0952 95.82C33.7272 95.62 33.4312 95.364 33.2072 95.052V96H31.5272V87.12H33.2072V90.324ZM36.7232 92.652C36.7232 92.252 36.6392 91.908 36.4712 91.62C36.3112 91.324 36.0952 91.1 35.8232 90.948C35.5592 90.796 35.2712 90.72 34.9592 90.72C34.6552 90.72 34.3672 90.8 34.0952 90.96C33.8312 91.112 33.6152 91.336 33.4472 91.632C33.2872 91.928 33.2072 92.276 33.2072 92.676C33.2072 93.076 33.2872 93.424 33.4472 93.72C33.6152 94.016 33.8312 94.244 34.0952 94.404C34.3672 94.556 34.6552 94.632 34.9592 94.632C35.2712 94.632 35.5592 94.552 35.8232 94.392C36.0952 94.232 36.3112 94.004 36.4712 93.708C36.6392 93.412 36.7232 93.06 36.7232 92.652Z" fill="#FAFAFA"/>
<path d="M77.4242 -6.41477L76.634 -9L75.8438 -6.41477L74 -4.43783L76.634 -5.04612L79.2679 -4.43783L77.4242 -6.41477Z" fill="white"/>
<path d="M89.5899 -6.41477L88.7997 -9L88.0096 -6.41477L86.1658 -4.43783L88.7997 -5.04612L91.4337 -4.43783L89.5899 -6.41477Z" fill="white"/>
<path d="M100.966 -9L101.756 -6.41477L103.599 -4.43783L100.966 -5.04612L98.3316 -4.43783L100.175 -6.41477L100.966 -9Z" fill="white"/>
<path d="M113.921 -6.41477L113.131 -9L112.341 -6.41477L110.497 -4.43783L113.131 -5.04612L115.765 -4.43783L113.921 -6.41477Z" fill="white"/>
<path d="M125.297 -9L126.087 -6.41477L127.931 -4.43783L125.297 -5.04612L122.663 -4.43783L124.507 -6.41477L125.297 -9Z" fill="white"/>
<path d="M138.253 -6.41477L137.463 -9L136.673 -6.41477L134.829 -4.43783L137.463 -5.04612L140.097 -4.43783L138.253 -6.41477Z" fill="white"/>
<path d="M149.629 -9L150.419 -6.41477L152.263 -4.43783L149.629 -5.04612L146.995 -4.43783L148.838 -6.41477L149.629 -9Z" fill="white"/>
<path d="M162.585 -6.41477L161.794 -9L161.004 -6.41477L159.16 -4.43783L161.794 -5.04612L164.428 -4.43783L162.585 -6.41477Z" fill="white"/>
<path d="M76.634 0.124332L77.4242 2.70956L79.2679 4.6865L76.634 4.07821L74 4.6865L75.8438 2.70956L76.634 0.124332Z" fill="white"/>
<path d="M89.5899 2.70956L88.7997 0.124332L88.0096 2.70956L86.1658 4.6865L88.7997 4.07821L91.4337 4.6865L89.5899 2.70956Z" fill="white"/>
<path d="M100.966 0.124332L101.756 2.70956L103.599 4.6865L100.966 4.07821L98.3316 4.6865L100.175 2.70956L100.966 0.124332Z" fill="white"/>
<path d="M113.921 2.70956L113.131 0.124332L112.341 2.70956L110.497 4.6865L113.131 4.07821L115.765 4.6865L113.921 2.70956Z" fill="white"/>
<path d="M125.297 0.124332L126.087 2.70956L127.931 4.6865L125.297 4.07821L122.663 4.6865L124.507 2.70956L125.297 0.124332Z" fill="white"/>
<path d="M138.253 2.70956L137.463 0.124332L136.673 2.70956L134.829 4.6865L137.463 4.07821L140.097 4.6865L138.253 2.70956Z" fill="white"/>
<path d="M149.629 0.124332L150.419 2.70956L152.263 4.6865L149.629 4.07821L146.995 4.6865L148.838 2.70956L149.629 0.124332Z" fill="white"/>
<path d="M162.585 2.70956L161.794 0.124332L161.004 2.70956L159.16 4.6865L161.794 4.07821L164.428 4.6865L162.585 2.70956Z" fill="white"/>
<path d="M76.634 9.24866L77.4242 11.8339L79.2679 13.8108L76.634 13.2025L74 13.8108L75.8438 11.8339L76.634 9.24866Z" fill="white"/>
<path d="M89.5899 11.8339L88.7997 9.24866L88.0096 11.8339L86.1658 13.8108L88.7997 13.2025L91.4337 13.8108L89.5899 11.8339Z" fill="white"/>
<path d="M100.966 9.24866L101.756 11.8339L103.599 13.8108L100.966 13.2025L98.3316 13.8108L100.175 11.8339L100.966 9.24866Z" fill="white"/>
<path d="M113.921 11.8339L113.131 9.24866L112.341 11.8339L110.497 13.8108L113.131 13.2025L115.765 13.8108L113.921 11.8339Z" fill="white"/>
<path d="M125.297 9.24866L126.087 11.8339L127.931 13.8108L125.297 13.2025L122.663 13.8108L124.507 11.8339L125.297 9.24866Z" fill="white"/>
<path d="M138.253 11.8339L137.463 9.24866L136.673 11.8339L134.829 13.8108L137.463 13.2025L140.097 13.8108L138.253 11.8339Z" fill="white"/>
<path d="M149.629 9.24866L150.419 11.8339L152.263 13.8108L149.629 13.2025L146.995 13.8108L148.838 11.8339L149.629 9.24866Z" fill="white"/>
<path d="M162.585 11.8339L161.794 9.24866L161.004 11.8339L159.16 13.8108L161.794 13.2025L164.428 13.8108L162.585 11.8339Z" fill="white"/>
<path d="M76.634 18.373L77.4242 20.9582L79.2679 22.9352L76.634 22.3269L74 22.9352L75.8438 20.9582L76.634 18.373Z" fill="white"/>
<path d="M89.5899 20.9582L88.7997 18.373L88.0096 20.9582L86.1658 22.9352L88.7997 22.3269L91.4337 22.9352L89.5899 20.9582Z" fill="white"/>
<path d="M100.966 18.373L101.756 20.9582L103.599 22.9352L100.966 22.3269L98.3316 22.9352L100.175 20.9582L100.966 18.373Z" fill="white"/>
<path d="M113.921 20.9582L113.131 18.373L112.341 20.9582L110.497 22.9352L113.131 22.3269L115.765 22.9352L113.921 20.9582Z" fill="white"/>
<path d="M125.297 18.373L126.087 20.9582L127.931 22.9352L125.297 22.3269L122.663 22.9352L124.507 20.9582L125.297 18.373Z" fill="white"/>
<path d="M138.253 20.9582L137.463 18.373L136.673 20.9582L134.829 22.9352L137.463 22.3269L140.097 22.9352L138.253 20.9582Z" fill="white"/>
<path d="M149.629 18.373L150.419 20.9582L152.263 22.9352L149.629 22.3269L146.995 22.9352L148.838 20.9582L149.629 18.373Z" fill="white"/>
<path d="M162.585 20.9582L161.794 18.373L161.004 20.9582L159.16 22.9352L161.794 22.3269L164.428 22.9352L162.585 20.9582Z" fill="white"/>
<path d="M76.634 27.4973L77.4242 30.0826L79.2679 32.0595L76.634 31.4512L74 32.0595L75.8438 30.0826L76.634 27.4973Z" fill="white"/>
<path d="M89.5899 30.0826L88.7997 27.4973L88.0096 30.0826L86.1658 32.0595L88.7997 31.4512L91.4337 32.0595L89.5899 30.0826Z" fill="white"/>
<path d="M100.966 27.4973L101.756 30.0826L103.599 32.0595L100.966 31.4512L98.3316 32.0595L100.175 30.0826L100.966 27.4973Z" fill="white"/>
<path d="M113.921 30.0826L113.131 27.4973L112.341 30.0826L110.497 32.0595L113.131 31.4512L115.765 32.0595L113.921 30.0826Z" fill="white"/>
<path d="M125.297 27.4973L126.087 30.0826L127.931 32.0595L125.297 31.4512L122.663 32.0595L124.507 30.0826L125.297 27.4973Z" fill="white"/>
<path d="M138.253 30.0826L137.463 27.4973L136.673 30.0826L134.829 32.0595L137.463 31.4512L140.097 32.0595L138.253 30.0826Z" fill="white"/>
<path d="M149.629 27.4973L150.419 30.0826L152.263 32.0595L149.629 31.4512L146.995 32.0595L148.838 30.0826L149.629 27.4973Z" fill="white"/>
<path d="M162.585 30.0826L161.794 27.4973L161.004 30.0826L159.16 32.0595L161.794 31.4512L164.428 32.0595L162.585 30.0826Z" fill="white"/>
<path d="M76.634 36.6217L77.4242 39.2069L79.2679 41.1838L76.634 40.5755L74 41.1838L75.8438 39.2069L76.634 36.6217Z" fill="white"/>
<path d="M89.5899 39.2069L88.7997 36.6217L88.0096 39.2069L86.1658 41.1838L88.7997 40.5755L91.4337 41.1838L89.5899 39.2069Z" fill="white"/>
<path d="M100.966 36.6217L101.756 39.2069L103.599 41.1838L100.966 40.5755L98.3316 41.1838L100.175 39.2069L100.966 36.6217Z" fill="white"/>
<path d="M113.921 39.2069L113.131 36.6217L112.341 39.2069L110.497 41.1838L113.131 40.5755L115.765 41.1838L113.921 39.2069Z" fill="white"/>
<path d="M125.297 36.6217L126.087 39.2069L127.931 41.1838L125.297 40.5755L122.663 41.1838L124.507 39.2069L125.297 36.6217Z" fill="white"/>
<path d="M138.253 39.2069L137.463 36.6217L136.673 39.2069L134.829 41.1838L137.463 40.5755L140.097 41.1838L138.253 39.2069Z" fill="white"/>
<path d="M149.629 36.6217L150.419 39.2069L152.263 41.1838L149.629 40.5755L146.995 41.1838L148.838 39.2069L149.629 36.6217Z" fill="white"/>
<path d="M162.585 39.2069L161.794 36.6217L161.004 39.2069L159.16 41.1838L161.794 40.5755L164.428 41.1838L162.585 39.2069Z" fill="white"/>
<path d="M76.634 45.746L77.4242 48.3312L79.2679 50.3082L76.634 49.6999L74 50.3082L75.8438 48.3312L76.634 45.746Z" fill="white"/>
<path d="M89.5899 48.3312L88.7997 45.746L88.0096 48.3312L86.1658 50.3082L88.7997 49.6999L91.4337 50.3082L89.5899 48.3312Z" fill="white"/>
<path d="M100.966 45.746L101.756 48.3312L103.599 50.3082L100.966 49.6999L98.3316 50.3082L100.175 48.3312L100.966 45.746Z" fill="white"/>
<path d="M113.921 48.3312L113.131 45.746L112.341 48.3312L110.497 50.3082L113.131 49.6999L115.765 50.3082L113.921 48.3312Z" fill="white"/>
<path d="M125.297 45.746L126.087 48.3312L127.931 50.3082L125.297 49.6999L122.663 50.3082L124.507 48.3312L125.297 45.746Z" fill="white"/>
<path d="M138.253 48.3312L137.463 45.746L136.673 48.3312L134.829 50.3082L137.463 49.6999L140.097 50.3082L138.253 48.3312Z" fill="white"/>
<path d="M149.629 45.746L150.419 48.3312L152.263 50.3082L149.629 49.6999L146.995 50.3082L148.838 48.3312L149.629 45.746Z" fill="white"/>
<path d="M162.585 48.3312L161.794 45.746L161.004 48.3312L159.16 50.3082L161.794 49.6999L164.428 50.3082L162.585 48.3312Z" fill="white"/>
<path d="M76.634 54.8703L77.4242 57.4556L79.2679 59.4325L76.634 58.8242L74 59.4325L75.8438 57.4556L76.634 54.8703Z" fill="white"/>
<path d="M89.5899 57.4556L88.7997 54.8703L88.0096 57.4556L86.1658 59.4325L88.7997 58.8242L91.4337 59.4325L89.5899 57.4556Z" fill="white"/>
<path d="M100.966 54.8703L101.756 57.4556L103.599 59.4325L100.966 58.8242L98.3316 59.4325L100.175 57.4556L100.966 54.8703Z" fill="white"/>
<path d="M113.921 57.4556L113.131 54.8703L112.341 57.4556L110.497 59.4325L113.131 58.8242L115.765 59.4325L113.921 57.4556Z" fill="white"/>
<path d="M125.297 54.8703L126.087 57.4556L127.931 59.4325L125.297 58.8242L122.663 59.4325L124.507 57.4556L125.297 54.8703Z" fill="white"/>
<path d="M138.253 57.4556L137.463 54.8703L136.673 57.4556L134.829 59.4325L137.463 58.8242L140.097 59.4325L138.253 57.4556Z" fill="white"/>
<path d="M149.629 54.8703L150.419 57.4556L152.263 59.4325L149.629 58.8242L146.995 59.4325L148.838 57.4556L149.629 54.8703Z" fill="white"/>
<path d="M162.585 57.4556L161.794 54.8703L161.004 57.4556L159.16 59.4325L161.794 58.8242L164.428 59.4325L162.585 57.4556Z" fill="white"/>
</g>
<defs>
<linearGradient id="paint0_linear_516_6376" x1="74" y1="0" x2="74" y2="110" gradientUnits="userSpaceOnUse">
<stop offset="0.23" stop-color="#FB773C"/>
<stop offset="1" stop-color="#954724"/>
</linearGradient>
<clipPath id="clip0_516_6376">
<rect width="148" height="110" fill="white"/>
</clipPath>
</defs>
</svg>
