<svg width="148" height="110" viewBox="0 0 148 110" fill="none" xmlns="http://www.w3.org/2000/svg">
<g clip-path="url(#clip0_516_6392)">
<rect width="148" height="110" rx="10" fill="url(#paint0_linear_516_6392)"/>
<path d="M18.936 71.216C18.936 71.664 18.828 72.084 18.612 72.476C18.404 72.868 18.072 73.184 17.616 73.424C17.168 73.664 16.6 73.784 15.912 73.784H14.508V77H12.828V68.624H15.912C16.56 68.624 17.112 68.736 17.568 68.96C18.024 69.184 18.364 69.492 18.588 69.884C18.82 70.276 18.936 70.72 18.936 71.216ZM15.84 72.428C16.304 72.428 16.648 72.324 16.872 72.116C17.096 71.9 17.208 71.6 17.208 71.216C17.208 70.4 16.752 69.992 15.84 69.992H14.508V72.428H15.84ZM21.8088 71.384C22.0248 71.032 22.3048 70.756 22.6488 70.556C23.0008 70.356 23.4008 70.256 23.8488 70.256V72.02H23.4048C22.8768 72.02 22.4768 72.144 22.2048 72.392C21.9408 72.64 21.8088 73.072 21.8088 73.688V77H20.1288V70.352H21.8088V71.384ZM27.9323 77.108C27.2923 77.108 26.7163 76.968 26.2043 76.688C25.6923 76.4 25.2883 75.996 24.9923 75.476C24.7043 74.956 24.5603 74.356 24.5603 73.676C24.5603 72.996 24.7083 72.396 25.0043 71.876C25.3083 71.356 25.7203 70.956 26.2403 70.676C26.7603 70.388 27.3403 70.244 27.9803 70.244C28.6203 70.244 29.2003 70.388 29.7203 70.676C30.2403 70.956 30.6483 71.356 30.9443 71.876C31.2483 72.396 31.4003 72.996 31.4003 73.676C31.4003 74.356 31.2443 74.956 30.9323 75.476C30.6283 75.996 30.2123 76.4 29.6843 76.688C29.1643 76.968 28.5803 77.108 27.9323 77.108ZM27.9323 75.644C28.2363 75.644 28.5203 75.572 28.7843 75.428C29.0563 75.276 29.2723 75.052 29.4323 74.756C29.5923 74.46 29.6723 74.1 29.6723 73.676C29.6723 73.044 29.5043 72.56 29.1683 72.224C28.8403 71.88 28.4363 71.708 27.9563 71.708C27.4763 71.708 27.0723 71.88 26.7443 72.224C26.4243 72.56 26.2643 73.044 26.2643 73.676C26.2643 74.308 26.4203 74.796 26.7323 75.14C27.0523 75.476 27.4523 75.644 27.9323 75.644ZM33.4847 69.56C33.1807 69.56 32.9287 69.468 32.7287 69.284C32.5367 69.092 32.4407 68.856 32.4407 68.576C32.4407 68.296 32.5367 68.064 32.7287 67.88C32.9287 67.688 33.1807 67.592 33.4847 67.592C33.7807 67.592 34.0247 67.688 34.2167 67.88C34.4087 68.064 34.5047 68.296 34.5047 68.576C34.5047 68.856 34.4087 69.092 34.2167 69.284C34.0247 69.468 33.7807 69.56 33.4847 69.56ZM34.3127 78.092C34.3127 78.828 34.1287 79.356 33.7607 79.676C33.4007 80.004 32.8807 80.168 32.2007 80.168H31.4567V78.74H31.9367C32.1927 78.74 32.3727 78.688 32.4767 78.584C32.5807 78.488 32.6327 78.328 32.6327 78.104V70.352H34.3127V78.092ZM42.1525 73.532C42.1525 73.772 42.1365 73.988 42.1045 74.18H37.2445C37.2845 74.66 37.4525 75.036 37.7485 75.308C38.0445 75.58 38.4085 75.716 38.8405 75.716C39.4645 75.716 39.9085 75.448 40.1725 74.912H41.9845C41.7925 75.552 41.4245 76.08 40.8805 76.496C40.3365 76.904 39.6685 77.108 38.8765 77.108C38.2365 77.108 37.6605 76.968 37.1485 76.688C36.6445 76.4 36.2485 75.996 35.9605 75.476C35.6805 74.956 35.5405 74.356 35.5405 73.676C35.5405 72.988 35.6805 72.384 35.9605 71.864C36.2405 71.344 36.6325 70.944 37.1365 70.664C37.6405 70.384 38.2205 70.244 38.8765 70.244C39.5085 70.244 40.0725 70.38 40.5685 70.652C41.0725 70.924 41.4605 71.312 41.7325 71.816C42.0125 72.312 42.1525 72.884 42.1525 73.532ZM40.4125 73.052C40.4045 72.62 40.2485 72.276 39.9445 72.02C39.6405 71.756 39.2685 71.624 38.8285 71.624C38.4125 71.624 38.0605 71.752 37.7725 72.008C37.4925 72.256 37.3205 72.604 37.2565 73.052H40.4125ZM42.9468 73.676C42.9468 72.988 43.0868 72.388 43.3668 71.876C43.6468 71.356 44.0348 70.956 44.5308 70.676C45.0268 70.388 45.5948 70.244 46.2348 70.244C47.0588 70.244 47.7388 70.452 48.2748 70.868C48.8188 71.276 49.1828 71.852 49.3668 72.596H47.5548C47.4588 72.308 47.2948 72.084 47.0628 71.924C46.8388 71.756 46.5588 71.672 46.2228 71.672C45.7428 71.672 45.3628 71.848 45.0828 72.2C44.8028 72.544 44.6628 73.036 44.6628 73.676C44.6628 74.308 44.8028 74.8 45.0828 75.152C45.3628 75.496 45.7428 75.668 46.2228 75.668C46.9028 75.668 47.3468 75.364 47.5548 74.756H49.3668C49.1828 75.476 48.8188 76.048 48.2748 76.472C47.7308 76.896 47.0508 77.108 46.2348 77.108C45.5948 77.108 45.0268 76.968 44.5308 76.688C44.0348 76.4 43.6468 76 43.3668 75.488C43.0868 74.968 42.9468 74.364 42.9468 73.676ZM52.5535 71.732V74.948C52.5535 75.172 52.6055 75.336 52.7095 75.44C52.8215 75.536 53.0055 75.584 53.2615 75.584H54.0415V77H52.9855C51.5695 77 50.8615 76.312 50.8615 74.936V71.732H50.0695V70.352H50.8615V68.708H52.5535V70.352H54.0415V71.732H52.5535ZM21.96 86.624V95H20.28V89.552L18.036 95H16.764L14.508 89.552V95H12.828V86.624H14.736L17.4 92.852L20.064 86.624H21.96ZM23.189 91.652C23.189 90.98 23.321 90.384 23.585 89.864C23.857 89.344 24.221 88.944 24.677 88.664C25.141 88.384 25.657 88.244 26.225 88.244C26.721 88.244 27.153 88.344 27.521 88.544C27.897 88.744 28.197 88.996 28.421 89.3V88.352H30.113V95H28.421V94.028C28.205 94.34 27.905 94.6 27.521 94.808C27.145 95.008 26.709 95.108 26.213 95.108C25.653 95.108 25.141 94.964 24.677 94.676C24.221 94.388 23.857 93.984 23.585 93.464C23.321 92.936 23.189 92.332 23.189 91.652ZM28.421 91.676C28.421 91.268 28.341 90.92 28.181 90.632C28.021 90.336 27.805 90.112 27.533 89.96C27.261 89.8 26.969 89.72 26.657 89.72C26.345 89.72 26.057 89.796 25.793 89.948C25.529 90.1 25.313 90.324 25.145 90.62C24.985 90.908 24.905 91.252 24.905 91.652C24.905 92.052 24.985 92.404 25.145 92.708C25.313 93.004 25.529 93.232 25.793 93.392C26.065 93.552 26.353 93.632 26.657 93.632C26.969 93.632 27.261 93.556 27.533 93.404C27.805 93.244 28.021 93.02 28.181 92.732C28.341 92.436 28.421 92.084 28.421 91.676ZM35.4378 88.256C36.2298 88.256 36.8698 88.508 37.3578 89.012C37.8458 89.508 38.0898 90.204 38.0898 91.1V95H36.4098V91.328C36.4098 90.8 36.2778 90.396 36.0138 90.116C35.7498 89.828 35.3898 89.684 34.9338 89.684C34.4698 89.684 34.1018 89.828 33.8298 90.116C33.5658 90.396 33.4338 90.8 33.4338 91.328V95H31.7538V88.352H33.4338V89.18C33.6578 88.892 33.9418 88.668 34.2858 88.508C34.6378 88.34 35.0218 88.256 35.4378 88.256ZM39.2554 91.652C39.2554 90.98 39.3874 90.384 39.6514 89.864C39.9234 89.344 40.2874 88.944 40.7434 88.664C41.2074 88.384 41.7234 88.244 42.2914 88.244C42.7874 88.244 43.2194 88.344 43.5874 88.544C43.9634 88.744 44.2634 88.996 44.4874 89.3V88.352H46.1794V95H44.4874V94.028C44.2714 94.34 43.9714 94.6 43.5874 94.808C43.2114 95.008 42.7754 95.108 42.2794 95.108C41.7194 95.108 41.2074 94.964 40.7434 94.676C40.2874 94.388 39.9234 93.984 39.6514 93.464C39.3874 92.936 39.2554 92.332 39.2554 91.652ZM44.4874 91.676C44.4874 91.268 44.4074 90.92 44.2474 90.632C44.0874 90.336 43.8714 90.112 43.5994 89.96C43.3274 89.8 43.0354 89.72 42.7234 89.72C42.4114 89.72 42.1234 89.796 41.8594 89.948C41.5954 90.1 41.3794 90.324 41.2114 90.62C41.0514 90.908 40.9714 91.252 40.9714 91.652C40.9714 92.052 41.0514 92.404 41.2114 92.708C41.3794 93.004 41.5954 93.232 41.8594 93.392C42.1314 93.552 42.4194 93.632 42.7234 93.632C43.0354 93.632 43.3274 93.556 43.5994 93.404C43.8714 93.244 44.0874 93.02 44.2474 92.732C44.4074 92.436 44.4874 92.084 44.4874 91.676ZM50.4242 88.244C50.9202 88.244 51.3562 88.344 51.7322 88.544C52.1082 88.736 52.4042 88.988 52.6202 89.3V88.352H54.3122V95.048C54.3122 95.664 54.1882 96.212 53.9402 96.692C53.6922 97.18 53.3202 97.564 52.8242 97.844C52.3282 98.132 51.7282 98.276 51.0242 98.276C50.0802 98.276 49.3042 98.056 48.6962 97.616C48.0962 97.176 47.7562 96.576 47.6762 95.816H49.3442C49.4322 96.12 49.6202 96.36 49.9082 96.536C50.2042 96.72 50.5602 96.812 50.9762 96.812C51.4642 96.812 51.8602 96.664 52.1642 96.368C52.4682 96.08 52.6202 95.64 52.6202 95.048V94.016C52.4042 94.328 52.1042 94.588 51.7202 94.796C51.3442 95.004 50.9122 95.108 50.4242 95.108C49.8642 95.108 49.3522 94.964 48.8882 94.676C48.4242 94.388 48.0562 93.984 47.7842 93.464C47.5202 92.936 47.3882 92.332 47.3882 91.652C47.3882 90.98 47.5202 90.384 47.7842 89.864C48.0562 89.344 48.4202 88.944 48.8762 88.664C49.3402 88.384 49.8562 88.244 50.4242 88.244ZM52.6202 91.676C52.6202 91.268 52.5402 90.92 52.3802 90.632C52.2202 90.336 52.0042 90.112 51.7322 89.96C51.4602 89.8 51.1682 89.72 50.8562 89.72C50.5442 89.72 50.2562 89.796 49.9922 89.948C49.7282 90.1 49.5122 90.324 49.3442 90.62C49.1842 90.908 49.1042 91.252 49.1042 91.652C49.1042 92.052 49.1842 92.404 49.3442 92.708C49.5122 93.004 49.7282 93.232 49.9922 93.392C50.2642 93.552 50.5522 93.632 50.8562 93.632C51.1682 93.632 51.4602 93.556 51.7322 93.404C52.0042 93.244 52.2202 93.02 52.3802 92.732C52.5402 92.436 52.6202 92.084 52.6202 91.676ZM62.133 91.532C62.133 91.772 62.117 91.988 62.085 92.18H57.225C57.265 92.66 57.433 93.036 57.729 93.308C58.025 93.58 58.389 93.716 58.821 93.716C59.445 93.716 59.889 93.448 60.153 92.912H61.965C61.773 93.552 61.405 94.08 60.861 94.496C60.317 94.904 59.649 95.108 58.857 95.108C58.217 95.108 57.641 94.968 57.129 94.688C56.625 94.4 56.229 93.996 55.941 93.476C55.661 92.956 55.521 92.356 55.521 91.676C55.521 90.988 55.661 90.384 55.941 89.864C56.221 89.344 56.613 88.944 57.117 88.664C57.621 88.384 58.201 88.244 58.857 88.244C59.489 88.244 60.053 88.38 60.549 88.652C61.053 88.924 61.441 89.312 61.713 89.816C61.993 90.312 62.133 90.884 62.133 91.532ZM60.393 91.052C60.385 90.62 60.229 90.276 59.925 90.02C59.621 89.756 59.249 89.624 58.809 89.624C58.393 89.624 58.041 89.752 57.753 90.008C57.473 90.256 57.301 90.604 57.237 91.052H60.393ZM71.6153 88.256C72.4313 88.256 73.0873 88.508 73.5833 89.012C74.0873 89.508 74.3393 90.204 74.3393 91.1V95H72.6593V91.328C72.6593 90.808 72.5273 90.412 72.2633 90.14C71.9993 89.86 71.6393 89.72 71.1833 89.72C70.7273 89.72 70.3633 89.86 70.0913 90.14C69.8273 90.412 69.6953 90.808 69.6953 91.328V95H68.0153V91.328C68.0153 90.808 67.8833 90.412 67.6193 90.14C67.3553 89.86 66.9953 89.72 66.5393 89.72C66.0753 89.72 65.7073 89.86 65.4353 90.14C65.1713 90.412 65.0393 90.808 65.0393 91.328V95H63.3593V88.352H65.0393V89.156C65.2553 88.876 65.5313 88.656 65.8673 88.496C66.2113 88.336 66.5873 88.256 66.9953 88.256C67.5153 88.256 67.9793 88.368 68.3873 88.592C68.7953 88.808 69.1113 89.12 69.3353 89.528C69.5513 89.144 69.8633 88.836 70.2713 88.604C70.6873 88.372 71.1353 88.256 71.6153 88.256ZM82.1135 91.532C82.1135 91.772 82.0975 91.988 82.0655 92.18H77.2055C77.2455 92.66 77.4135 93.036 77.7095 93.308C78.0055 93.58 78.3695 93.716 78.8015 93.716C79.4255 93.716 79.8695 93.448 80.1335 92.912H81.9455C81.7535 93.552 81.3855 94.08 80.8415 94.496C80.2975 94.904 79.6295 95.108 78.8375 95.108C78.1975 95.108 77.6215 94.968 77.1095 94.688C76.6055 94.4 76.2095 93.996 75.9215 93.476C75.6415 92.956 75.5015 92.356 75.5015 91.676C75.5015 90.988 75.6415 90.384 75.9215 89.864C76.2015 89.344 76.5935 88.944 77.0975 88.664C77.6015 88.384 78.1815 88.244 78.8375 88.244C79.4695 88.244 80.0335 88.38 80.5295 88.652C81.0335 88.924 81.4215 89.312 81.6935 89.816C81.9735 90.312 82.1135 90.884 82.1135 91.532ZM80.3735 91.052C80.3655 90.62 80.2095 90.276 79.9055 90.02C79.6015 89.756 79.2295 89.624 78.7895 89.624C78.3735 89.624 78.0215 89.752 77.7335 90.008C77.4535 90.256 77.2815 90.604 77.2175 91.052H80.3735ZM87.0237 88.256C87.8157 88.256 88.4557 88.508 88.9437 89.012C89.4317 89.508 89.6757 90.204 89.6757 91.1V95H87.9957V91.328C87.9957 90.8 87.8637 90.396 87.5997 90.116C87.3357 89.828 86.9757 89.684 86.5197 89.684C86.0557 89.684 85.6877 89.828 85.4157 90.116C85.1517 90.396 85.0197 90.8 85.0197 91.328V95H83.3397V88.352H85.0197V89.18C85.2437 88.892 85.5277 88.668 85.8717 88.508C86.2237 88.34 86.6077 88.256 87.0237 88.256ZM93.2293 89.732V92.948C93.2293 93.172 93.2813 93.336 93.3853 93.44C93.4973 93.536 93.6813 93.584 93.9373 93.584H94.7173V95H93.6613C92.2453 95 91.5373 94.312 91.5373 92.936V89.732H90.7453V88.352H91.5373V86.708H93.2293V88.352H94.7173V89.732H93.2293Z" fill="#FAFAFA"/>
<rect x="61.9346" y="48.0793" width="16.724" height="16.724" transform="rotate(-19.9271 61.9346 48.0793)" fill="white"/>
<rect x="77.909" y="4.63468" width="23.4136" height="23.4136" transform="rotate(-19.9271 77.909 4.63468)" stroke="white" stroke-width="1.6724"/>
<path d="M133.162 44.0481L125.365 60.7117L108.703 52.9152L116.498 36.2528L133.162 44.0481ZM110.927 52.11L111.432 52.3455L124.055 58.2522L124.56 58.4878L130.938 44.8551L130.434 44.6184L117.81 38.7129L117.305 38.4761L110.927 52.11ZM127.973 45.929L123.484 55.5236L113.891 51.0343L118.379 41.4409L127.973 45.929Z" fill="white" stroke="white" stroke-width="1.11494"/>
</g>
<defs>
<linearGradient id="paint0_linear_516_6392" x1="74" y1="0" x2="74" y2="110" gradientUnits="userSpaceOnUse">
<stop offset="0.285" stop-color="#4F1787"/>
<stop offset="1" stop-color="#130621"/>
</linearGradient>
<clipPath id="clip0_516_6392">
<rect width="148" height="110" fill="white"/>
</clipPath>
</defs>
</svg>
