<svg width="24" height="25" viewBox="0 0 24 25" fill="none" xmlns="http://www.w3.org/2000/svg">
<path fill-rule="evenodd" clip-rule="evenodd" d="M7.416 3.5C7.14117 4.13093 6.99955 4.81181 7 5.5C7 6.03043 7.21071 6.53914 7.58579 6.91421C7.96086 7.28929 8.46957 7.5 9 7.5H15C15.5304 7.5 16.0391 7.28929 16.4142 6.91421C16.7893 6.53914 17 6.03043 17 5.5C17 4.789 16.852 4.112 16.584 3.5H18C18.5304 3.5 19.0391 3.71071 19.4142 4.08579C19.7893 4.46086 20 4.96957 20 5.5V20.5C20 21.0304 19.7893 21.5391 19.4142 21.9142C19.0391 22.2893 18.5304 22.5 18 22.5H6C5.46957 22.5 4.96086 22.2893 4.58579 21.9142C4.21071 21.5391 4 21.0304 4 20.5V5.5C4 4.96957 4.21071 4.46086 4.58579 4.08579C4.96086 3.71071 5.46957 3.5 6 3.5H7.416ZM12 14.5H9C8.73478 14.5 8.48043 14.6054 8.29289 14.7929C8.10536 14.9804 8 15.2348 8 15.5C8 15.7652 8.10536 16.0196 8.29289 16.2071C8.48043 16.3946 8.73478 16.5 9 16.5H12C12.2652 16.5 12.5196 16.3946 12.7071 16.2071C12.8946 16.0196 13 15.7652 13 15.5C13 15.2348 12.8946 14.9804 12.7071 14.7929C12.5196 14.6054 12.2652 14.5 12 14.5ZM15 10.5H9C8.74512 10.5003 8.49997 10.5979 8.31463 10.7728C8.1293 10.9478 8.01776 11.187 8.00283 11.4414C7.98789 11.6958 8.07067 11.9464 8.23426 12.1418C8.39785 12.3373 8.6299 12.4629 8.883 12.493L9 12.5H15C15.2652 12.5 15.5196 12.3946 15.7071 12.2071C15.8946 12.0196 16 11.7652 16 11.5C16 11.2348 15.8946 10.9804 15.7071 10.7929C15.5196 10.6054 15.2652 10.5 15 10.5ZM12 2.5C12.4221 2.50001 12.8394 2.58908 13.2247 2.7614C13.61 2.93372 13.9546 3.1854 14.236 3.5C14.664 3.978 14.94 4.593 14.991 5.272L15 5.5H9C9 4.775 9.257 4.11 9.685 3.592L9.764 3.5C10.314 2.886 11.112 2.5 12 2.5Z" fill="#FFB61A"/>
</svg>
